<svg width="162" height="162" viewBox="0 0 162 162" fill="none" xmlns="http://www.w3.org/2000/svg">
<rect width="162" height="162" fill="white"/>
<rect width="162" height="162" fill="#FFF6E6"/>
<path d="M144.188 33C144.188 37.028 142.587 40.891 139.739 43.7392C136.891 46.5874 133.028 48.1875 129 48.1875C124.972 48.1875 121.109 46.5874 118.261 43.7392C115.413 40.891 113.812 37.028 113.812 33C113.812 28.972 115.413 25.109 118.261 22.2608C121.109 19.4126 124.972 17.8125 129 17.8125C133.028 17.8125 136.891 19.4126 139.739 22.2608C142.587 25.109 144.188 28.972 144.188 33Z" fill="#5FD38D"/>
<path d="M132.977 36.9775C127.486 42.4692 121.253 45.1405 119.056 42.9439C116.859 40.7473 119.531 34.5143 125.023 29.0226C130.515 23.5309 136.747 20.8596 138.944 23.0562C141.141 25.2527 138.469 31.4858 132.977 36.9775Z" fill="#FFDD55"/>
<path d="M136.598 21.7269C135.517 21.7571 134.302 22.0795 132.997 22.6388C130.387 23.7573 127.414 25.8364 124.625 28.6255C121.836 31.4144 119.757 34.3872 118.639 36.9972C118.079 38.3021 117.757 39.5172 117.727 40.5985C117.697 41.6798 117.975 42.6582 118.658 43.3418C119.342 44.0253 120.32 44.3036 121.402 44.2734C122.483 44.2432 123.698 43.9208 125.003 43.3615C127.613 42.243 130.586 40.1639 133.375 37.3748C136.164 34.586 138.243 31.6132 139.361 29.0032C139.921 27.6982 140.243 26.4832 140.273 25.4019C140.303 24.3206 140.025 23.3421 139.342 22.6586C138.658 21.975 137.68 21.6967 136.598 21.7269ZM136.63 22.8519C137.507 22.8275 138.131 23.0392 138.546 23.454C138.961 23.8688 139.173 24.4932 139.148 25.37C139.124 26.2467 138.847 27.345 138.326 28.5593C137.286 30.9878 135.282 33.8764 132.579 36.5794C129.876 39.2824 126.988 41.2856 124.559 42.3265C123.345 42.8469 122.247 43.1238 121.37 43.1482C120.493 43.1727 119.869 42.961 119.454 42.5462C119.039 42.1314 118.827 41.507 118.852 40.6302C118.876 39.7534 119.153 38.6552 119.674 37.4409C120.714 35.0123 122.718 32.1237 125.421 29.4208C128.124 26.7178 131.012 24.7146 133.441 23.6737C134.655 23.1533 135.753 22.8764 136.63 22.8519Z" fill="#391700"/>
<path d="M136.552 19.1891C136.048 19.9163 135.75 20.798 135.75 21.75C135.75 24.2353 137.765 26.25 140.25 26.25C141.204 26.25 142.086 25.9509 142.814 25.4448C141.369 22.8078 139.189 20.6352 136.552 19.1892L136.552 19.1891Z" fill="#FF5555"/>
<path d="M136.054 18.9221C135.508 19.7303 135.188 20.704 135.188 21.75C135.188 24.5393 137.461 26.8125 140.25 26.8125C141.293 26.8125 142.264 26.4932 143.071 25.9489C142.902 25.6123 142.725 25.2814 142.533 24.9591C141.89 25.4167 141.103 25.6874 140.25 25.6874C138.069 25.6874 136.312 23.9312 136.312 21.7499C136.312 20.8968 136.583 20.1104 137.041 19.467C136.718 19.2749 136.391 19.0912 136.054 18.9221L136.054 18.9221Z" fill="#391700"/>
<path d="M117.75 39.75C116.795 39.75 115.911 40.05 115.182 40.5575C116.628 43.1933 118.807 45.3714 121.442 46.8175C121.95 46.089 122.25 45.2052 122.25 44.25C122.25 41.7647 120.235 39.75 117.75 39.75Z" fill="#FF5555"/>
<path d="M117.75 39.1875C116.704 39.1875 115.73 39.5076 114.922 40.0543C115.091 40.3911 115.27 40.7217 115.463 41.0442C116.107 40.5846 116.895 40.3125 117.75 40.3125C119.931 40.3125 121.687 42.0687 121.687 44.25C121.687 45.1051 121.415 45.8931 120.956 46.5373C121.278 46.7296 121.609 46.9086 121.946 47.0779C122.492 46.2697 122.812 45.296 122.812 44.25C122.812 41.4608 120.539 39.1875 117.75 39.1875L117.75 39.1875Z" fill="#391700"/>
<path d="M129 17.25C120.308 17.25 113.25 24.3083 113.25 33C113.25 37.1438 114.857 40.9138 117.478 43.7269L116.625 44.5794L116.46 44.4146C116.359 44.3131 116.222 44.2541 116.079 44.2498C116.002 44.2476 115.926 44.2611 115.855 44.2894C115.784 44.3178 115.719 44.3604 115.665 44.4146C115.559 44.5201 115.5 44.6632 115.5 44.8123C115.5 44.9615 115.559 45.1046 115.665 45.21L116.79 46.335C116.895 46.4405 117.038 46.4998 117.188 46.4998C117.337 46.4998 117.48 46.4405 117.585 46.335C117.691 46.2296 117.75 46.0865 117.75 45.9373C117.75 45.7882 117.691 45.6451 117.585 45.5396L117.42 45.3748L118.273 44.5223C121.086 47.143 124.856 48.7498 129 48.7498C137.692 48.7498 144.75 41.6916 144.75 32.9998C144.75 25.4933 139.491 19.2028 132.452 17.6289C132.38 17.6127 132.305 17.6109 132.232 17.6235C132.159 17.6362 132.09 17.6631 132.027 17.7027C131.965 17.7423 131.911 17.7938 131.868 17.8543C131.826 17.9148 131.796 17.983 131.78 18.0552C131.763 18.1273 131.761 18.202 131.774 18.2748C131.787 18.3477 131.814 18.4173 131.853 18.4798C131.893 18.5422 131.944 18.5962 132.005 18.6388C132.065 18.6813 132.134 18.7115 132.206 18.7276C138.739 20.1886 143.625 26.0181 143.625 32.9999C143.625 41.0836 137.084 47.6249 129 47.6249C120.916 47.6249 114.375 41.0836 114.375 32.9999C114.375 24.9162 120.916 18.3749 129 18.3749C129.149 18.3749 129.292 18.3156 129.398 18.2101C129.503 18.1046 129.563 17.9616 129.563 17.8124C129.563 17.6632 129.503 17.5201 129.398 17.4146C129.292 17.3091 129.149 17.2499 129 17.2499L129 17.25Z" fill="#391700"/>
<path d="M75.9375 21.75C75.9375 23.9246 74.1746 25.6875 72 25.6875C69.8254 25.6875 68.0625 23.9246 68.0625 21.75C68.0625 19.5754 69.8254 17.8125 72 17.8125C74.1746 17.8125 75.9375 19.5754 75.9375 21.75Z" fill="#FFDD55"/>
<path d="M72 17.25C69.5214 17.25 67.5 19.2714 67.5 21.75C67.5 24.2286 69.5214 26.25 72 26.25C74.4786 26.25 76.5 24.2286 76.5 21.75C76.5 19.2714 74.4786 17.25 72 17.25ZM72 18.375C73.8706 18.375 75.375 19.8793 75.375 21.75C75.375 23.6206 73.8706 25.125 72 25.125C70.1293 25.125 68.625 23.6206 68.625 21.75C68.625 19.8793 70.1293 18.375 72 18.375Z" fill="#391700"/>
<path d="M86.625 17.8125H87.1875C87.8108 17.8125 88.3125 18.3142 88.3125 18.9375V24.5625C88.3125 25.1858 87.8108 25.6875 87.1875 25.6875H86.625C86.0017 25.6875 85.5 25.1858 85.5 24.5625V18.9375C85.5 18.3142 86.0017 17.8125 86.625 17.8125Z" fill="#DCDCDC"/>
<path d="M86.625 17.25C85.6999 17.25 84.9375 18.0124 84.9375 18.9375V24.5625C84.9375 25.4876 85.6999 26.25 86.625 26.25H87.1875C88.1126 26.25 88.875 25.4876 88.875 24.5625V18.9375C88.875 18.0124 88.1126 17.25 87.1875 17.25H86.625ZM86.625 18.375H87.1875C87.5089 18.375 87.75 18.6161 87.75 18.9375V24.5625C87.75 24.8839 87.5089 25.125 87.1875 25.125H86.625C86.3036 25.125 86.0625 24.8839 86.0625 24.5625V18.9375C86.0625 18.6161 86.3036 18.375 86.625 18.375Z" fill="#391700"/>
<path d="M71.7075 22.7541L67.0215 28.5596C66.8392 28.8163 66.6057 29.2649 66.5123 29.5657C66.0446 31.0709 65.8161 32.6171 65.8127 34.1249C65.813 38.226 67.4005 44.7202 70.3193 47.7943C70.5332 48.0195 70.9733 48.1876 71.2839 48.1876H90.5625C90.8731 48.1876 91.3127 48.019 91.527 47.7943C94.4582 44.7203 96.1872 38.2261 96.1875 34.1249C96.1466 32.4813 95.9346 31.0017 95.4886 29.5653C95.3952 29.2646 95.1609 28.8162 94.9786 28.5595L90.2927 22.7539C90.0793 22.4895 89.7772 22.3123 89.4374 22.3123H72.5624C72.2227 22.3123 71.9039 22.4769 71.7072 22.7539L71.7075 22.7541Z" fill="#FFCCAA"/>
<path d="M72.5625 21.75C72.0411 21.75 71.5504 22.0028 71.2486 22.4279L71.2694 22.4004L66.5837 28.2065C66.5765 28.2155 66.5696 28.2246 66.5629 28.234C66.3327 28.5581 66.1003 28.9956 65.9751 29.3985C65.4905 30.9585 65.2535 32.5599 65.25 34.1238C65.25 34.1241 65.25 34.1245 65.25 34.1249C65.2502 38.371 66.7904 44.8945 69.9115 48.1817C70.2945 48.5851 70.7701 48.7497 71.2837 48.7497H90.5623C91.0764 48.7497 91.5519 48.5829 91.9345 48.1817C95.0625 44.9014 96.7495 38.3841 96.7498 34.1249C96.7498 34.1201 96.7498 34.1153 96.7498 34.1106C96.7079 32.427 96.4892 30.8912 96.0258 29.3985C95.9004 28.9946 95.6666 28.5574 95.4369 28.234C95.4302 28.2246 95.4233 28.2154 95.416 28.2065L92.0652 24.0548C92.0188 23.9973 91.9616 23.9495 91.8967 23.9141C91.8319 23.8787 91.7607 23.8565 91.6872 23.8486C91.6138 23.8408 91.5395 23.8475 91.4686 23.8683C91.3978 23.8892 91.3317 23.9238 91.2742 23.9702C91.2167 24.0165 91.1689 24.0738 91.1336 24.1386C91.0982 24.2035 91.076 24.2747 91.0681 24.3481C91.0603 24.4216 91.0669 24.4959 91.0878 24.5667C91.1086 24.6376 91.1432 24.7037 91.1896 24.7611L94.5218 28.8898C94.6571 29.0816 94.8903 29.536 94.9513 29.7324C95.3791 31.1102 95.5833 32.5309 95.6237 34.1313C95.6217 38.075 93.8523 44.5398 91.1193 47.4063C91.0731 47.4547 90.6695 47.625 90.5623 47.625H71.2837C71.176 47.625 70.7715 47.4535 70.7267 47.4063C68.0104 44.5455 66.3755 38.0818 66.3751 34.1263V34.1252C66.3784 32.6736 66.5991 31.1831 67.0496 29.7328C67.1109 29.5354 67.3433 29.0813 67.4781 28.8902L72.1451 23.1083C72.1523 23.099 72.1593 23.0894 72.166 23.0797C72.2575 22.9508 72.4044 22.8754 72.5626 22.8754H89.4376C89.5868 22.8754 89.7298 22.8161 89.8353 22.7106C89.9408 22.6051 90.0001 22.462 90.0001 22.3129C90.0001 22.1637 89.9408 22.0206 89.8353 21.9151C89.7298 21.8096 89.5868 21.7504 89.4376 21.7504H72.5626L72.5625 21.75Z" fill="#391700"/>
<path d="M95.6008 29.9457C95.3629 33.2356 93.1993 35.8126 90.5625 35.8126C88.6201 35.8124 86.8491 34.3922 86.0043 32.1574C85.6285 34.9059 83.502 36.9372 81 36.9376C78.4986 36.9373 76.3724 34.9072 75.9957 32.1596C75.1504 34.3936 73.3795 35.8128 71.4375 35.8126C68.8015 35.8126 66.6383 33.2375 66.3992 29.9491C66.0203 31.2763 65.8125 32.6761 65.8125 34.1249C65.8127 38.226 67.4003 44.7202 70.3191 47.7943C70.5329 48.0195 70.973 48.1876 71.2837 48.1876H90.5622C90.8729 48.1876 91.3125 48.019 91.5268 47.7943C94.458 44.7203 96.187 38.2261 96.1872 34.1249C96.1872 32.6749 95.9801 31.274 95.6005 29.9457L95.6008 29.9457Z" fill="#5FD38D"/>
<path d="M95.6182 29.3832C95.473 29.3785 95.3316 29.4303 95.2237 29.5276C95.1157 29.6248 95.0496 29.7601 95.0392 29.905C94.8174 32.9714 92.8327 35.2499 90.5623 35.2499C88.894 35.2498 87.3111 34.0237 86.5303 31.9584C86.4859 31.8415 86.4039 31.7427 86.2971 31.6777C86.1904 31.6126 86.065 31.5849 85.9408 31.599C85.8166 31.6131 85.7006 31.6682 85.6112 31.7556C85.5218 31.8429 85.464 31.9576 85.447 32.0814C85.1047 34.5845 83.1973 36.3745 80.9998 36.3749C78.8027 36.3746 76.8955 34.5849 76.5525 32.0825C76.5353 31.9587 76.4774 31.8442 76.3879 31.757C76.2984 31.6697 76.1824 31.6148 76.0582 31.6008C75.9341 31.5869 75.8088 31.6146 75.7021 31.6798C75.5955 31.7449 75.5135 31.8437 75.4693 31.9605C74.6881 34.0251 73.1051 35.25 71.4373 35.2499C69.1676 35.2499 67.1832 32.9731 66.9603 29.9083C66.9508 29.7765 66.8952 29.6522 66.8032 29.5573C66.7112 29.4624 66.5887 29.4029 66.4572 29.3893C66.3258 29.3756 66.1937 29.4087 66.0842 29.4828C65.9747 29.5568 65.8947 29.667 65.8584 29.794C65.4657 31.1695 65.2498 32.6222 65.2498 34.1248C65.25 38.371 66.7902 44.8945 69.9112 48.1817C70.2942 48.5851 70.7699 48.7497 71.2835 48.7497H90.562C91.0761 48.7497 91.5517 48.5829 91.9342 48.1817C95.0623 44.9014 96.7493 38.3841 96.7495 34.1248C96.7495 32.6212 96.5342 31.1674 96.1409 29.7907C96.1081 29.6762 96.0398 29.575 95.9459 29.5017C95.8519 29.4284 95.7371 29.3869 95.618 29.3831L95.6182 29.3832ZM95.5182 32.6076C95.5708 33.1086 95.6248 33.6097 95.6248 34.1249C95.6245 38.068 93.8537 44.5384 91.1193 47.4061C91.0731 47.4545 90.6695 47.6247 90.5622 47.6247H71.2837C71.1759 47.6247 70.7714 47.4532 70.7267 47.4061C68.0101 44.545 66.3752 38.0804 66.375 34.1249C66.375 33.6109 66.4301 33.111 66.4827 32.611C67.4126 34.8162 69.2382 36.3749 71.4375 36.3749C73.2327 36.3751 74.8274 35.2851 75.8639 33.6052C76.7048 35.8736 78.655 37.4996 81 37.4999C83.3454 37.4995 85.2956 35.8729 86.1362 33.6041C87.1724 35.2844 88.7671 36.3747 90.5625 36.3749C92.7631 36.3749 94.5891 34.8149 95.5184 32.6076H95.5182Z" fill="#391700"/>
<path d="M77.6227 21.75C77.4899 21.7505 77.3616 21.798 77.2605 21.8841C77.1593 21.9701 77.0919 22.0892 77.0701 22.2202L75.3826 32.3452C75.3582 32.4923 75.3931 32.6432 75.4799 32.7645C75.5666 32.8859 75.698 32.9678 75.8451 32.9923C75.9923 33.0167 76.1431 32.9818 76.2645 32.895C76.3858 32.8083 76.4678 32.6769 76.4922 32.5298L78.1797 22.4048C78.2042 22.2576 78.1692 22.1068 78.0825 21.9854C77.9957 21.8641 77.8644 21.7821 77.7172 21.7577C77.686 21.7524 77.6544 21.7499 77.6227 21.75L77.6227 21.75ZM84.362 21.75C84.3355 21.7507 84.3091 21.7532 84.2829 21.7577C84.1358 21.7822 84.0044 21.8641 83.9177 21.9854C83.8309 22.1068 83.796 22.2576 83.8204 22.4048L85.5079 32.5298C85.5324 32.6769 85.6143 32.8083 85.7357 32.895C85.857 32.9818 86.0079 33.0167 86.155 32.9923C86.3022 32.9678 86.4335 32.8859 86.5203 32.7645C86.607 32.6432 86.642 32.4923 86.6175 32.3452L84.93 22.2202C84.9079 22.0865 84.8382 21.9654 84.7338 21.879C84.6295 21.7926 84.4975 21.7468 84.362 21.75L84.362 21.75Z" fill="#391700"/>
<path d="M41.6968 25.6442C43.4536 24.9043 44.0057 24.4431 46.5437 22.6092C47.3232 22.0459 48.0941 22.2979 48.1444 23.2845C48.2657 25.6657 47.9688 30.8428 42.8484 32.2147L25.2219 36.9377C24.6001 37.1043 23.5682 37.209 22.9435 37.0373C21.5763 36.6616 19.1781 35.0472 17.9117 32.0002C17.6567 31.3868 18.0382 30.8594 18.6832 30.8537L21.2085 30.8313C24.5694 30.8015 35.3947 28.2984 41.697 25.644L41.6968 25.6442Z" fill="#FFDD55"/>
<path d="M47.0041 21.786C46.7301 21.8453 46.4609 21.9747 46.2142 22.153C46.1543 22.1963 46.1036 22.2509 46.0648 22.3138C46.026 22.3767 46 22.4466 45.9883 22.5196C45.9766 22.5925 45.9793 22.6671 45.9964 22.7389C46.0135 22.8108 46.0446 22.8786 46.0879 22.9385C46.1311 22.9984 46.1858 23.0492 46.2487 23.0879C46.3116 23.1267 46.3815 23.1527 46.4545 23.1644C46.5274 23.1761 46.602 23.1734 46.6738 23.1563C46.7457 23.1392 46.8135 23.1082 46.8734 23.0649C47.1595 22.8581 47.3508 22.8648 47.4128 22.8891C47.4749 22.9133 47.5642 22.9634 47.582 23.3131C47.6404 24.4598 47.5907 26.2779 46.9393 27.9208C46.2879 29.5638 45.095 31.0306 42.703 31.6716L25.0754 36.3946C24.547 36.5362 23.5082 36.6089 23.0923 36.4946C21.9601 36.1834 19.6277 34.6643 18.4308 31.7848C18.3635 31.6226 18.3927 31.5621 18.4232 31.5178C18.4536 31.4735 18.5178 31.4171 18.6879 31.4156L21.2126 31.3936C21.2199 31.3938 21.2272 31.3938 21.2346 31.3936C26.2803 31.1565 34.7273 28.9017 41.8963 26.1697C41.9026 26.1672 41.9088 26.1646 41.915 26.162C42.7322 25.8178 43.3198 25.5199 43.9463 25.1271C44.009 25.0879 44.0633 25.0367 44.1061 24.9765C44.149 24.9162 44.1795 24.8482 44.1961 24.7761C44.2126 24.7041 44.2148 24.6295 44.2025 24.5567C44.1901 24.4838 44.1636 24.4141 44.1243 24.3514C44.085 24.2889 44.0338 24.2347 43.9735 24.192C43.9133 24.1492 43.8452 24.1188 43.7731 24.1024C43.7011 24.0859 43.6266 24.0839 43.5537 24.0962C43.4809 24.1086 43.4112 24.1352 43.3487 24.1746C42.7744 24.5347 42.2626 24.795 41.4854 25.1227C34.4058 27.8195 25.9531 30.0431 21.1893 30.2686L18.6778 30.2906C18.203 30.2948 17.7535 30.5053 17.4957 30.8795C17.2379 31.2537 17.2037 31.7653 17.3913 32.2166C18.7273 35.4308 21.1912 37.1398 22.7933 37.5801C23.627 37.8092 24.6512 37.6728 25.3663 37.4812L42.9939 32.7582C45.7224 32.0271 47.237 30.219 47.9839 28.3351C48.7308 26.4512 48.7686 24.4907 48.7057 23.2561C48.6733 22.6193 48.3521 22.0486 47.8213 21.8411C47.5559 21.7373 47.2779 21.7269 47.0039 21.7861L47.0041 21.786Z" fill="#391700"/>
<path d="M32.3835 26.8805C32.3412 26.882 32.2992 26.8883 32.2583 26.8992C32.1142 26.9378 31.9913 27.0321 31.9168 27.1613C31.8422 27.2905 31.822 27.444 31.8605 27.588L32.5889 30.305C32.6276 30.4491 32.7218 30.5719 32.851 30.6465C32.9802 30.7211 33.1337 30.7413 33.2778 30.7027C33.4218 30.6641 33.5447 30.5698 33.6193 30.4406C33.6938 30.3114 33.7141 30.1579 33.6755 30.0138L32.9482 27.2969C32.9151 27.1738 32.8413 27.0655 32.7387 26.9899C32.6361 26.9142 32.5108 26.8757 32.3835 26.8805L32.3835 26.8805ZM38.904 25.134C38.8617 25.1355 38.8197 25.1417 38.7788 25.1526C38.6347 25.1913 38.5118 25.2855 38.4373 25.4147C38.3627 25.5439 38.3425 25.6974 38.381 25.8415L39.1094 28.5584C39.1481 28.7025 39.2423 28.8253 39.3715 28.8999C39.5007 28.9745 39.6542 28.9947 39.7983 28.9561C39.9423 28.9175 40.0652 28.8232 40.1398 28.6941C40.2143 28.5649 40.2346 28.4114 40.196 28.2673L39.4676 25.5504C39.4346 25.4274 39.3609 25.3193 39.2585 25.2437C39.1562 25.168 39.0312 25.1294 38.904 25.134L38.904 25.134ZM25.8641 28.6277C25.8218 28.6292 25.7798 28.6354 25.7389 28.6463C25.5948 28.685 25.472 28.7792 25.3974 28.9084C25.3228 29.0376 25.3026 29.1911 25.3412 29.3352L26.0685 32.0521C26.1071 32.1962 26.2014 32.319 26.3305 32.3936C26.4597 32.4682 26.6132 32.4884 26.7573 32.4498C26.9014 32.4112 27.0242 32.3169 27.0988 32.1877C27.1734 32.0586 27.1936 31.9051 27.155 31.761L26.4277 29.044C26.3947 28.9211 26.321 28.813 26.2187 28.7374C26.1163 28.6617 25.9913 28.6231 25.8641 28.6277L25.8641 28.6277Z" fill="#391700"/>
<path d="M24.0804 35.4964L43.6403 30.2553C44.5433 30.0133 45.4651 30.5455 45.707 31.4485C45.949 32.3515 45.4168 33.2733 44.5138 33.5152L24.9539 38.7563C24.0509 38.9983 23.1291 38.4661 22.8872 37.5631C22.6453 36.6601 23.1774 35.7383 24.0804 35.4964Z" fill="#FF9955"/>
<path d="M44.3839 29.6582C44.0946 29.6174 43.7938 29.632 43.4951 29.712L23.9353 34.9536C22.7406 35.2737 22.0233 36.5144 22.3433 37.709C22.6634 38.9036 23.9052 39.6199 25.0998 39.2998L44.6596 34.0593C45.8543 33.7392 46.5706 32.4974 46.2504 31.3028C46.0104 30.4069 45.2519 29.7806 44.3838 29.6582H44.3839ZM43.7862 30.7985C44.3977 30.6347 45.0001 30.9836 45.1639 31.595C45.3277 32.2065 44.9799 32.8089 44.3685 32.9727L35.8252 35.2615C32.1529 36.6585 28.4807 37.6777 24.8081 38.2132C24.1967 38.377 23.5942 38.0292 23.4304 37.4177C23.2666 36.8063 23.6144 36.2039 24.2259 36.0401L43.7862 30.7985Z" fill="#391700"/>
<path d="M43.7472 42.0782C44.0702 41.3687 44.2502 40.5802 44.2502 39.7498C44.2502 36.6432 41.7318 34.1248 38.6252 34.1248C36.9377 34.1248 35.2848 35.039 34.3545 36.0892C34.1284 36.353 33.7015 36.5082 33.3588 36.4512C33.0547 36.4006 32.7467 36.375 32.4377 36.3748C29.3312 36.3748 26.8127 38.8932 26.8127 41.9998L43.7472 42.0782Z" fill="#55DDFF"/>
<path d="M38.6132 33.5625C36.8006 33.5661 35.0926 34.3638 33.9275 35.7235C33.8582 35.8043 33.5557 35.9134 33.4507 35.896C33.1162 35.8403 32.7776 35.8126 32.4377 35.8125C29.0271 35.8125 26.2502 38.5894 26.2502 42C26.2502 42.1491 26.3095 42.2922 26.415 42.3977C26.5205 42.5032 26.6636 42.5625 26.8127 42.5625C26.9619 42.5625 27.105 42.5032 27.2105 42.3977C27.316 42.2922 27.3752 42.1491 27.3752 42C27.3752 39.1974 29.6351 36.9375 32.4377 36.9375C32.7158 36.9376 32.9925 36.9611 33.2661 37.0067C33.8465 37.1033 34.3983 36.9019 34.7812 36.4552C35.734 35.3432 37.1307 34.6908 38.6143 34.6874H38.6253C40.7076 34.6874 42.4883 35.9397 43.2681 37.7284C43.2976 37.7962 43.3402 37.8575 43.3934 37.9088C43.4465 37.9601 43.5093 38.0004 43.5781 38.0274C43.6468 38.0544 43.7202 38.0677 43.7941 38.0663C43.868 38.065 43.9409 38.0491 44.0086 38.0196C44.0764 37.9901 44.1376 37.9475 44.1889 37.8944C44.2402 37.8412 44.2805 37.7784 44.3076 37.7097C44.3346 37.6409 44.3478 37.5675 44.3465 37.4936C44.3452 37.4197 44.3293 37.3468 44.2998 37.2791C43.3455 35.0902 41.1594 33.5624 38.6252 33.5624H38.6143C38.6139 33.5624 38.6135 33.5624 38.6132 33.5624L38.6132 33.5625Z" fill="#391700"/>
<path d="M48.1874 43.6875C45.3749 40.875 41.3879 39.1875 32.9999 39.1875C31.9997 39.1875 31.069 39.2146 30.1916 39.263C29.7759 39.286 29.3255 38.9851 29.0802 38.6503C28.5594 37.9394 27.7228 37.5004 26.8124 37.5001C25.5681 37.5002 24.5058 38.3102 24.1379 39.4412C24.0095 39.836 23.6776 40.2699 23.2817 40.3987C20.9052 41.1713 19.2108 42.2892 17.8125 43.6876" fill="#2AD4FF"/>
<path d="M26.8124 36.9375C25.324 36.9376 24.0453 37.9078 23.6033 39.2666C23.5255 39.5055 23.2381 39.8208 23.1078 39.8631C20.6543 40.6607 18.8677 41.8367 17.4147 43.2897C17.3093 43.3952 17.25 43.5383 17.25 43.6874C17.25 43.8366 17.3093 43.9797 17.4147 44.0852C17.5202 44.1906 17.6633 44.2499 17.8124 44.2499C17.9616 44.2499 18.1047 44.1906 18.2102 44.0852C19.5538 42.7415 21.1555 41.6808 23.455 40.9332C24.1166 40.7181 24.4932 40.1654 24.6723 39.6148C24.9661 38.7116 25.8122 38.0625 26.8125 38.0624C27.5422 38.0627 28.2099 38.4147 28.6263 38.9831C28.9707 39.4531 29.5144 39.8637 30.2226 39.8246C31.0897 39.7768 32.0099 39.7499 33 39.7499C41.3126 39.7499 45.0858 41.3811 47.7898 44.0851C47.8953 44.1906 48.0383 44.2498 48.1875 44.2498C48.3367 44.2498 48.4797 44.1906 48.5852 44.0851C48.6907 43.9796 48.7499 43.8366 48.7499 43.6874C48.7499 43.5382 48.6907 43.3952 48.5852 43.2897C45.6643 40.3688 41.4634 38.6249 33 38.6249C31.9896 38.6249 31.0489 38.6528 30.1611 38.7018C30.0379 38.7086 29.6801 38.5169 29.5338 38.3172C28.9085 37.4638 27.9036 36.9378 26.8125 36.9374L26.8124 36.9375Z" fill="#391700"/>
<path d="M131.525 75.7879C131.034 75.8235 130.579 75.944 130.169 76.1262C129.349 76.4908 128.708 77.082 128.212 77.6918C127.221 78.9113 126.778 80.2593 126.778 80.2593C126.755 80.3294 126.746 80.4035 126.751 80.4772C126.756 80.5509 126.776 80.6229 126.809 80.689C126.842 80.7552 126.888 80.8141 126.944 80.8625C126.999 80.9109 127.064 80.9479 127.134 80.9712C127.205 80.9946 127.279 81.004 127.352 80.9988C127.426 80.9936 127.498 80.9738 127.564 80.9408C127.63 80.9077 127.689 80.862 127.738 80.8061C127.786 80.7502 127.823 80.6854 127.846 80.6153C127.846 80.6153 128.247 79.432 129.084 78.4015C129.503 77.8863 130.022 77.4228 130.626 77.1546C131.229 76.8863 131.915 76.7926 132.782 77.0403C132.926 77.0814 133.08 77.0638 133.21 76.9915C133.34 76.9192 133.437 76.798 133.478 76.6547C133.519 76.5114 133.501 76.3576 133.429 76.2272C133.357 76.0968 133.235 76.0004 133.092 75.9593C132.541 75.8019 132.015 75.7523 131.524 75.7879L131.525 75.7879ZM137.726 75.7378C137.225 75.7375 136.7 75.8048 136.157 75.9597C136.014 76.0008 135.893 76.0972 135.821 76.2276C135.748 76.358 135.731 76.5118 135.772 76.6551C135.813 76.7985 135.909 76.9196 136.04 76.9919C136.17 77.0642 136.324 77.0818 136.467 77.0408C138.235 76.5356 139.728 77.159 140.84 77.9438C141.951 78.7286 142.604 79.6401 142.604 79.6401C142.647 79.7003 142.701 79.7515 142.764 79.7907C142.827 79.8299 142.897 79.8563 142.97 79.8684C143.043 79.8806 143.117 79.8782 143.189 79.8615C143.261 79.8447 143.329 79.8139 143.389 79.7709C143.45 79.7279 143.501 79.6735 143.54 79.6108C143.579 79.548 143.606 79.4782 143.618 79.4052C143.63 79.3322 143.628 79.2576 143.611 79.1856C143.594 79.1135 143.563 79.0455 143.52 78.9853C143.52 78.9853 142.767 77.9281 141.488 77.0254C140.529 76.3483 139.231 75.7387 137.726 75.7377L137.726 75.7378Z" fill="#391700"/>
<path d="M143.506 71.9618C142.05 71.9585 138.836 72.3566 136.423 75.6015C136.379 75.6608 136.346 75.7282 136.328 75.7999C136.31 75.8716 136.306 75.9461 136.317 76.0193C136.328 76.0925 136.353 76.1628 136.391 76.2263C136.429 76.2898 136.479 76.3451 136.538 76.3892C136.597 76.4335 136.665 76.4655 136.736 76.4837C136.808 76.5018 136.883 76.5056 136.956 76.4949C137.029 76.4842 137.099 76.4591 137.163 76.4212C137.226 76.3833 137.282 76.3332 137.326 76.2739C140.206 72.4013 144.092 73.1175 144.092 73.1175C144.165 73.13 144.24 73.1279 144.312 73.1115C144.384 73.0951 144.452 73.0647 144.512 73.0219C144.572 72.9792 144.624 72.925 144.663 72.8624C144.702 72.7998 144.729 72.7301 144.741 72.6572C144.754 72.5843 144.752 72.5097 144.735 72.4377C144.719 72.3656 144.689 72.2974 144.646 72.2371C144.603 72.1768 144.549 72.1256 144.486 72.0862C144.424 72.0469 144.354 72.0203 144.281 72.0079C144.281 72.0079 143.991 71.9629 143.505 71.9618L143.506 71.9618ZM129.73 73.7173C128.498 73.6005 127.335 73.9051 126.341 74.3446C124.352 75.2237 122.969 76.6726 122.969 76.6726C122.918 76.7259 122.878 76.7887 122.851 76.8575C122.824 76.9262 122.811 76.9997 122.812 77.0735C122.814 77.1474 122.83 77.2203 122.859 77.288C122.889 77.3556 122.931 77.4168 122.985 77.4681C123.038 77.5193 123.101 77.5595 123.169 77.5865C123.238 77.6134 123.312 77.6265 123.385 77.6251C123.459 77.6237 123.532 77.6077 123.6 77.5781C123.668 77.5486 123.729 77.5059 123.78 77.4527C123.78 77.4527 125.05 76.1456 126.796 75.3741C127.669 74.9883 128.644 74.7439 129.625 74.8368C130.605 74.9298 131.606 75.3428 132.607 76.365C132.712 76.4715 132.854 76.5322 133.003 76.5336C133.153 76.535 133.296 76.4772 133.403 76.3727C133.509 76.2684 133.57 76.126 133.572 75.9768C133.574 75.8277 133.516 75.684 133.412 75.5773C132.248 74.3896 130.962 73.8341 129.73 73.7173L129.73 73.7173Z" fill="#391700"/>
<path d="M124.5 68.625C124.351 68.625 124.208 68.6843 124.102 68.7897C123.997 68.8952 123.938 69.0383 123.938 69.1875C123.938 69.3367 123.997 69.4797 124.102 69.5852C124.208 69.6907 124.351 69.75 124.5 69.75C124.5 69.75 126.53 69.7577 128.525 70.4894C129.523 70.8553 130.495 71.3978 131.203 72.1758C131.91 72.9538 132.375 73.956 132.375 75.375C132.375 75.5242 132.434 75.6672 132.54 75.7727C132.645 75.8782 132.788 75.9375 132.937 75.9375C133.087 75.9375 133.23 75.8782 133.335 75.7727C133.441 75.6672 133.5 75.5242 133.5 75.375C133.5 73.7003 132.91 72.3821 132.035 71.4199C131.161 70.4577 130.024 69.8401 128.912 69.4325C126.689 68.6173 124.5 68.625 124.5 68.625L124.5 68.625ZM141.949 65.25C141.843 65.2479 141.739 65.2757 141.648 65.3302C141.648 65.3302 135.75 68.8466 135.75 75.3748C135.75 75.5239 135.809 75.667 135.915 75.7725C136.02 75.878 136.163 75.9373 136.312 75.9373C136.462 75.9373 136.605 75.878 136.71 75.7725C136.816 75.667 136.875 75.5239 136.875 75.3748C136.875 69.5281 142.226 66.2943 142.226 66.2943C142.354 66.2176 142.446 66.0933 142.483 65.9487C142.519 65.8041 142.496 65.651 142.42 65.5231C142.371 65.4414 142.302 65.3735 142.22 65.3257C142.138 65.2778 142.045 65.2516 141.949 65.2495L141.949 65.25Z" fill="#391700"/>
<path d="M134.463 74.8113C134.329 74.8094 134.196 74.8313 134.07 74.8762C133.484 75.0833 133.177 75.7263 133.384 76.3121C135.586 82.5344 136.312 88.3124 135.161 94.4999H139.687C139.038 89.0165 137.821 82.1041 135.506 75.5617C135.349 75.1182 134.933 74.819 134.463 74.8113L134.463 74.8113Z" fill="#FF9955"/>
<path d="M134.472 74.2489C134.271 74.246 134.071 74.2794 133.882 74.3467V74.3455C133.01 74.6541 132.545 75.6275 132.854 76.5C135.032 82.6554 135.74 88.313 134.608 94.3965C134.593 94.4777 134.596 94.5612 134.617 94.6411C134.638 94.7211 134.676 94.7954 134.728 94.859C134.781 94.9225 134.847 94.9737 134.922 95.0088C134.997 95.044 135.078 95.0622 135.161 95.0623H139.687C139.767 95.0622 139.845 95.0453 139.918 95.0127C139.99 94.9801 140.055 94.9326 140.107 94.8733C140.16 94.8139 140.2 94.7441 140.223 94.6683C140.247 94.5926 140.255 94.5127 140.245 94.4338C139.977 92.1665 139.613 89.6558 139.114 87.0257C139.1 86.953 139.072 86.8838 139.032 86.8219C138.991 86.76 138.939 86.7067 138.878 86.6651C138.817 86.6235 138.748 86.5943 138.675 86.5793C138.603 86.5642 138.528 86.5636 138.456 86.5775C138.309 86.6054 138.18 86.6903 138.096 86.8135C138.012 86.9367 137.981 87.0881 138.009 87.2345C138.46 89.6115 138.776 91.8475 139.034 93.9372H135.788C136.786 87.8971 136.061 82.1877 133.915 76.124C133.809 75.8248 133.959 75.5124 134.258 75.4065C134.258 75.4062 134.258 75.4058 134.258 75.4054C134.321 75.383 134.388 75.3726 134.455 75.3736C134.692 75.3774 134.896 75.5247 134.975 75.7482C134.975 75.7486 134.975 75.7489 134.975 75.7493C135.957 78.5235 136.742 81.3699 137.368 84.1463C137.384 84.2184 137.415 84.2866 137.457 84.3469C137.5 84.4073 137.554 84.4587 137.616 84.4982C137.679 84.5376 137.748 84.5644 137.821 84.577C137.894 84.5896 137.968 84.5877 138.04 84.5715C138.113 84.5553 138.181 84.525 138.241 84.4823C138.302 84.4397 138.353 84.3855 138.393 84.323C138.432 84.2604 138.459 84.1907 138.472 84.1177C138.484 84.0448 138.482 83.9702 138.466 83.898C137.832 81.0865 137.036 78.1993 136.037 75.375V75.3739C135.802 74.711 135.175 74.2603 134.472 74.2489L134.472 74.2489Z" fill="#391700"/>
<path d="M131.25 65.25C131.157 65.25 131.066 65.2729 130.985 65.3166C130.903 65.3603 130.833 65.4234 130.782 65.5005C130.699 65.6246 130.669 65.7765 130.698 65.9228C130.728 66.0691 130.814 66.1978 130.938 66.2805C130.938 66.2805 131.662 66.749 132.455 68.0702C133.248 69.3913 134.062 71.5312 134.062 74.8123C134.062 74.9615 134.122 75.1045 134.227 75.21C134.333 75.3155 134.476 75.3748 134.625 75.3748C134.774 75.3748 134.917 75.3155 135.023 75.21C135.128 75.1045 135.187 74.9615 135.187 74.8123C135.187 71.3435 134.315 68.9837 133.42 67.4919C132.525 66.0005 131.562 65.3441 131.562 65.3441C131.47 65.2825 131.361 65.2496 131.25 65.2496L131.25 65.25Z" fill="#391700"/>
<path d="M116.782 95.2554C116.327 94.5519 116.062 93.7131 116.062 92.8125C116.062 90.3272 118.077 88.3125 120.562 88.3125C123.047 88.3125 125.062 90.3272 125.062 92.8125" fill="#FFB380"/>
<path d="M120.562 87.75C117.773 87.75 115.5 90.0232 115.5 92.8125C115.5 93.8233 115.798 94.7699 116.311 95.5613C116.392 95.6864 116.519 95.7742 116.665 95.8053C116.811 95.8364 116.963 95.8083 117.089 95.7272C117.214 95.646 117.301 95.5185 117.333 95.3726C117.364 95.2267 117.336 95.0745 117.255 94.9493C116.856 94.3336 116.625 93.6029 116.625 92.8125C116.625 90.6312 118.381 88.875 120.562 88.875C122.744 88.875 124.5 90.6312 124.5 92.8125C124.5 92.9617 124.559 93.1048 124.665 93.2103C124.77 93.3157 124.913 93.375 125.062 93.375C125.212 93.375 125.355 93.3157 125.46 93.2103C125.566 93.1048 125.625 92.9617 125.625 92.8125C125.625 90.0232 123.352 87.75 120.562 87.75V87.75Z" fill="#391700"/>
<path d="M144.187 96.1875C141.375 93.375 137.387 91.6875 128.999 91.6875C128.806 91.6875 128.616 91.6892 128.429 91.6919C128.093 91.6967 127.773 91.4307 127.639 91.1233C127.2 90.1167 126.198 89.4376 125.062 89.4375C123.744 89.4376 122.633 90.3457 122.331 91.5765C122.251 91.9023 121.982 92.2237 121.652 92.2883C117.958 93.0123 115.637 94.3629 113.812 96.1875" fill="#FFCCAA"/>
<path d="M125.062 88.875C123.485 88.8751 122.148 89.9641 121.785 91.4425C121.754 91.5679 121.585 91.7278 121.544 91.7359C117.764 92.4767 115.309 93.8947 113.414 95.7898C113.309 95.8953 113.25 96.0383 113.25 96.1875C113.25 96.3367 113.309 96.4797 113.414 96.5852C113.52 96.6907 113.663 96.75 113.812 96.75C113.961 96.75 114.104 96.6907 114.21 96.5852C115.964 94.8311 118.152 93.5472 121.761 92.84C122.379 92.7188 122.748 92.2368 122.877 91.7106C123.118 90.7275 124.002 90.0001 125.062 90C125.974 90.0001 126.773 90.5436 127.124 91.3481C127.342 91.8465 127.799 92.2635 128.437 92.2544C128.622 92.2518 128.809 92.25 129 92.25C137.312 92.25 141.085 93.8812 143.789 96.5852C143.895 96.6907 144.038 96.75 144.187 96.75C144.336 96.75 144.479 96.6907 144.585 96.5852C144.69 96.4797 144.75 96.3367 144.75 96.1875C144.75 96.0383 144.69 95.8953 144.585 95.7898C141.664 92.8689 137.463 91.125 129 91.125C128.802 91.125 128.611 91.1267 128.422 91.1294C128.388 91.1299 128.206 91.015 128.155 90.8987C127.627 89.6898 126.422 88.875 125.062 88.875L125.062 88.875Z" fill="#391700"/>
<path d="M134.625 75.375C134.625 76.307 133.87 77.0625 132.938 77.0625C132.006 77.0625 131.25 76.307 131.25 75.375C131.25 74.443 132.005 73.6875 132.938 73.6875C133.869 73.6875 134.625 74.443 134.625 75.375Z" fill="#5FD38D"/>
<path d="M132.938 73.125C131.702 73.125 130.688 74.139 130.688 75.375C130.688 76.611 131.702 77.625 132.938 77.625C134.173 77.625 135.188 76.611 135.188 75.375C135.188 74.139 134.173 73.125 132.938 73.125ZM132.938 74.25C133.565 74.25 134.062 74.747 134.062 75.375C134.062 76.003 133.565 76.5 132.938 76.5C132.31 76.5 131.812 76.003 131.812 75.375C131.812 74.747 132.31 74.25 132.938 74.25Z" fill="#391700"/>
<path d="M138 75.375C138 76.307 137.244 77.0625 136.312 77.0625C135.38 77.0625 134.625 76.307 134.625 75.375C134.625 74.443 135.38 73.6875 136.312 73.6875C137.244 73.6875 138 74.443 138 75.375Z" fill="#5FD38D"/>
<path d="M136.312 73.125C135.077 73.125 134.062 74.139 134.062 75.375C134.062 76.611 135.077 77.625 136.312 77.625C137.548 77.625 138.562 76.611 138.562 75.375C138.562 74.139 137.548 73.125 136.312 73.125ZM136.312 74.25C136.94 74.25 137.438 74.747 137.438 75.375C137.438 76.003 136.94 76.5 136.312 76.5C135.685 76.5 135.188 76.003 135.188 75.375C135.188 74.747 135.685 74.25 136.312 74.25Z" fill="#391700"/>
<path d="M81 65.25C80.8508 65.25 80.7077 65.3093 80.6023 65.4148C80.4968 65.5202 80.4375 65.6633 80.4375 65.8125V69.1875C80.4375 69.3367 80.4968 69.4798 80.6023 69.5852C80.7077 69.6907 80.8508 69.75 81 69.75C81.1492 69.75 81.2923 69.6907 81.3977 69.5852C81.5032 69.4798 81.5625 69.3367 81.5625 69.1875V65.8125C81.5625 65.6633 81.5032 65.5202 81.3977 65.4148C81.2923 65.3093 81.1492 65.25 81 65.25Z" fill="#391700"/>
<path d="M72.5625 72.5625L74.25 93.9375V95.0625C74.25 95.6838 74.7537 96.1875 75.375 96.1875H86.625C87.2463 96.1875 87.75 95.6838 87.75 95.0625V93.9375L89.4375 72.5625H72.5625Z" fill="#55DDFF"/>
<path d="M87.9609 78.8777C86.6014 78.9079 85.0078 79.1721 83.25 79.8752C79.3718 81.4265 75.2743 80.0455 73.0732 79.0326L73.6259 86.0352C75.9264 87 79.6958 88.0468 83.2497 86.6251C85.2063 85.8424 86.952 85.6108 88.4055 85.633L88.9373 78.9005C88.6251 78.8817 88.3036 78.8698 87.9606 78.8774L87.9609 78.8777Z" fill="#FFDD55"/>
<path d="M87.9554 78.3281C86.5276 78.355 84.8628 78.6245 83.0412 79.3532C79.2269 80.8789 75.061 79.3541 73.022 78.3841L73.1252 79.6926C75.384 80.7207 79.4275 82.0095 83.4589 80.3969C85.6151 79.5344 87.4539 79.3434 88.8961 79.4235L88.9806 78.3545C88.6527 78.3339 88.3148 78.3214 87.9556 78.3281L87.9554 78.3281ZM88.0103 85.0759C86.5767 85.0944 84.8955 85.3614 83.0412 86.1031C79.5139 87.514 75.7287 86.3321 73.5743 85.3857L73.6776 86.6887C76.0381 87.6505 79.7948 88.6123 83.4589 87.1468C85.3328 86.3973 86.9885 86.1681 88.3621 86.1811L88.4489 85.0803C88.3047 85.0771 88.1602 85.074 88.0105 85.0759L88.0103 85.0759Z" fill="#391700"/>
<path d="M72.5625 72C72.485 72.0001 72.4083 72.0162 72.3373 72.0473C72.2663 72.0784 72.2025 72.1239 72.1499 72.1808C72.0972 72.2377 72.057 72.3049 72.0316 72.3782C72.0061 72.4514 71.9962 72.5291 72.0022 72.6064L73.6875 93.9595V95.0625C73.6875 95.9878 74.4497 96.75 75.375 96.75H86.625C87.5503 96.75 88.3125 95.9878 88.3125 95.0625V93.9595L89.9978 72.6064C90.0039 72.5291 89.9939 72.4514 89.9685 72.3782C89.943 72.3049 89.9028 72.2377 89.8502 72.1808C89.7976 72.1239 89.7337 72.0784 89.6627 72.0473C89.5917 72.0162 89.515 72.0001 89.4375 72H72.5625ZM73.1711 73.125H88.8289L87.1897 93.8936C87.1884 93.9082 87.1877 93.9229 87.1875 93.9376V95.0626C87.1875 95.3799 86.9423 95.6251 86.625 95.6251H75.375C75.0577 95.6251 74.8125 95.3799 74.8125 95.0626V93.9376C74.8123 93.9229 74.8116 93.9082 74.8103 93.8936L73.1711 73.125Z" fill="#391700"/>
<path d="M71.4375 69.1875V71.4375C71.4375 72.0588 71.9412 72.5625 72.5625 72.5625H89.4375C90.0588 72.5625 90.5625 72.0588 90.5625 71.4375V69.1875" fill="#FFDD55"/>
<path d="M70.875 69.1875V71.4375C70.875 72.3628 71.6372 73.125 72.5625 73.125H89.4375C90.3628 73.125 91.125 72.3628 91.125 71.4375V69.1875H90V71.4375C90 71.7548 89.7548 72 89.4375 72H72.5625C72.2452 72 72 71.7548 72 71.4375V69.1875H70.875Z" fill="#391700"/>
<path d="M70.3125 68.625C70.1633 68.625 70.0202 68.6843 69.9148 68.7898C69.8093 68.8952 69.75 69.0383 69.75 69.1875C69.75 69.3367 69.8093 69.4798 69.9148 69.5852C70.0202 69.6907 70.1633 69.75 70.3125 69.75H86.0625C86.2117 69.75 86.3548 69.6907 86.4602 69.5852C86.5657 69.4798 86.625 69.3367 86.625 69.1875C86.625 69.0383 86.5657 68.8952 86.4602 68.7898C86.3548 68.6843 86.2117 68.625 86.0625 68.625H70.3125ZM89.4375 68.625C89.2883 68.625 89.1452 68.6843 89.0398 68.7898C88.9343 68.8952 88.875 69.0383 88.875 69.1875C88.875 69.3367 88.9343 69.4798 89.0398 69.5852C89.1452 69.6907 89.2883 69.75 89.4375 69.75H91.6875C91.8367 69.75 91.9798 69.6907 92.0852 69.5852C92.1907 69.4798 92.25 69.3367 92.25 69.1875C92.25 69.0383 92.1907 68.8952 92.0852 68.7898C91.9798 68.6843 91.8367 68.625 91.6875 68.625H89.4375Z" fill="#391700"/>
<path d="M89.126 118.331L90 134.063H72L73.0627 114.934C73.0976 114.305 73.6181 113.813 74.2483 113.813H77.0642C77.6846 113.813 78.1875 114.316 78.1875 114.936V116.064C78.1875 116.685 78.6904 117.188 79.3108 117.188H82.6892C83.3096 117.188 83.8125 116.685 83.8125 116.064V114.936C83.8125 114.315 84.3154 113.813 84.9358 113.813H87.7517C88.3819 113.813 88.9023 114.305 88.9373 114.934" fill="#FF9955"/>
<path d="M74.2478 113.25C73.3246 113.25 72.5522 113.981 72.501 114.902L71.4386 134.032C71.4344 134.108 71.4458 134.185 71.4722 134.256C71.4985 134.328 71.5392 134.394 71.5917 134.449C71.6442 134.505 71.7075 134.549 71.7777 134.579C71.8479 134.609 71.9236 134.625 72 134.625H90C90.0764 134.625 90.152 134.609 90.2222 134.579C90.2924 134.549 90.3557 134.505 90.4083 134.449C90.4608 134.394 90.5015 134.328 90.5278 134.256C90.5541 134.185 90.5656 134.108 90.5614 134.032L89.688 118.299C89.6839 118.225 89.6653 118.153 89.6333 118.087C89.6013 118.02 89.5564 117.96 89.5013 117.911C89.4463 117.862 89.382 117.824 89.3122 117.799C89.2424 117.775 89.1685 117.764 89.0947 117.769C89.0209 117.773 88.9486 117.791 88.882 117.823C88.8154 117.855 88.7557 117.9 88.7064 117.955C88.6572 118.01 88.6192 118.075 88.5948 118.144C88.5704 118.214 88.5599 118.288 88.5641 118.362L89.4056 133.5H72.5942L73.6236 114.965C73.6423 114.628 73.9104 114.375 74.2477 114.375H77.0646C77.3809 114.375 77.6249 114.619 77.6249 114.935V116.065C77.6249 116.989 78.3858 117.75 79.3102 117.75H82.6896C83.6139 117.75 84.3749 116.989 84.3749 116.065V114.935C84.3749 114.619 84.6188 114.375 84.9352 114.375H87.7521C88.0893 114.375 88.3574 114.628 88.3761 114.965C88.3843 115.114 88.4513 115.253 88.5623 115.353C88.6734 115.452 88.8194 115.504 88.9682 115.496C89.042 115.492 89.1143 115.473 89.181 115.441C89.2476 115.409 89.3072 115.364 89.3565 115.309C89.4058 115.254 89.4437 115.19 89.4682 115.12C89.4926 115.05 89.503 114.976 89.4989 114.902C89.4477 113.981 88.6752 113.25 87.752 113.25H84.9351C84.0108 113.25 83.2498 114.011 83.2498 114.935V116.065C83.2498 116.381 83.0059 116.625 82.6895 116.625H79.3101C78.9938 116.625 78.7498 116.381 78.7498 116.065V114.935C78.7498 114.011 77.9889 113.25 77.0645 113.25H74.2478Z" fill="#391700"/>
<path d="M77.625 135.188V130.688C77.625 128.818 79.1303 127.312 81 127.312C82.8698 127.312 84.375 128.818 84.375 130.688V135.188" fill="#D38D5F"/>
<path d="M81 126.75C78.8283 126.75 77.0625 128.516 77.0625 130.688V135.188C77.0625 135.337 77.1217 135.48 77.2272 135.585C77.3327 135.691 77.4758 135.75 77.625 135.75C77.7741 135.75 77.9172 135.691 78.0227 135.585C78.1282 135.48 78.1875 135.337 78.1875 135.188V130.688C78.1875 129.12 79.4321 127.875 81 127.875C82.5678 127.875 83.8125 129.12 83.8125 130.688V135.188C83.8125 135.337 83.8717 135.48 83.9772 135.585C84.0827 135.691 84.2258 135.75 84.375 135.75C84.5241 135.75 84.6672 135.691 84.7727 135.585C84.8782 135.48 84.9375 135.337 84.9375 135.188V130.688C84.9375 128.516 83.1716 126.75 81 126.75ZM87.8557 134.625H90.0002C90.6332 134.625 91.1252 135.117 91.1252 135.75V141.375H92.2502V135.75C92.2502 134.513 91.237 133.5 90.0002 133.5H87.8909L87.8557 134.625ZM73.1252 133.5H72.0002C70.7635 133.5 69.7502 134.513 69.7502 135.75V138.295L70.8752 138.345V135.75C70.8752 135.117 71.3673 134.625 72.0002 134.625H73.1252V133.5Z" fill="#391700"/>
<path d="M70.3125 142.5V135.75C70.3125 134.815 71.0651 134.062 72 134.062H90C90.9349 134.062 91.6875 134.815 91.6875 135.75V142.5" fill="#FF9955"/>
<path d="M72 133.5C70.7632 133.5 69.75 134.513 69.75 135.75V142.5C69.75 142.649 69.8093 142.792 69.9148 142.898C70.0202 143.003 70.1633 143.062 70.3125 143.062C70.4617 143.062 70.6048 143.003 70.7102 142.898C70.8157 142.792 70.875 142.649 70.875 142.5V135.75C70.875 135.117 71.367 134.625 72 134.625H90C90.633 134.625 91.125 135.117 91.125 135.75V142.5C91.125 142.649 91.1843 142.792 91.2898 142.898C91.3952 143.003 91.5383 143.062 91.6875 143.062C91.8367 143.062 91.9798 143.003 92.0852 142.898C92.1907 142.792 92.25 142.649 92.25 142.5V135.75C92.25 134.513 91.2368 133.5 90 133.5H72Z" fill="#391700"/>
<path d="M68.7824 143.255C68.3268 142.552 68.0623 141.713 68.0623 140.812C68.0623 138.327 70.077 136.312 72.5623 136.312C75.0476 136.312 77.0623 138.327 77.0623 140.812" fill="#FFB380"/>
<path d="M72.5625 135.75C69.7732 135.75 67.5 138.023 67.5 140.812C67.5 141.823 67.7983 142.77 68.3108 143.561C68.392 143.686 68.5195 143.774 68.6654 143.805C68.8112 143.836 68.9635 143.808 69.0886 143.727C69.2137 143.646 69.3015 143.518 69.3326 143.373C69.3637 143.227 69.3356 143.074 69.2545 142.949C68.8558 142.334 68.625 141.603 68.625 140.813C68.625 138.631 70.3812 136.875 72.5625 136.875C74.7438 136.875 76.5 138.631 76.5 140.813C76.5 140.962 76.5593 141.105 76.6648 141.21C76.7703 141.316 76.9133 141.375 77.0625 141.375C77.2117 141.375 77.3548 141.316 77.4603 141.21C77.5657 141.105 77.625 140.962 77.625 140.813C77.625 138.023 75.3518 135.75 72.5625 135.75L72.5625 135.75Z" fill="#391700"/>
<path d="M96.1876 144.188C93.3751 141.375 89.3881 139.688 81.0001 139.688C80.8062 139.688 80.6167 139.689 80.4297 139.692C80.0936 139.697 79.774 139.431 79.6398 139.123C79.2002 138.117 78.1984 137.438 77.0626 137.438C75.7444 137.438 74.634 138.346 74.3316 139.576C74.2515 139.902 73.9825 140.224 73.6526 140.288C69.9582 141.012 67.6372 142.363 65.8125 144.188" fill="#FFCCAA"/>
<path d="M77.0626 136.875C75.4861 136.875 74.1486 137.964 73.7854 139.443C73.7546 139.568 73.5859 139.728 73.5448 139.736C69.7644 140.477 67.31 141.895 65.415 143.79C65.3095 143.895 65.2502 144.038 65.2502 144.188C65.2502 144.337 65.3095 144.48 65.415 144.585C65.5205 144.691 65.6635 144.75 65.8127 144.75C65.9618 144.75 66.1049 144.691 66.2104 144.585C67.9645 142.831 70.1528 141.547 73.7614 140.84C74.3799 140.719 74.7483 140.237 74.8776 139.711C75.1192 138.727 76.003 138 77.0628 138C77.9744 138 78.7737 138.544 79.1249 139.348C79.3426 139.847 79.8 140.264 80.4378 140.254C80.623 140.252 80.8098 140.25 81.0003 140.25C89.3129 140.25 93.0862 141.881 95.7901 144.585C95.8956 144.691 96.0387 144.75 96.1878 144.75C96.337 144.75 96.4801 144.691 96.5856 144.585C96.691 144.48 96.7503 144.337 96.7503 144.188C96.7503 144.038 96.691 143.895 96.5856 143.79C93.6647 140.869 89.4638 139.125 81.0004 139.125C80.8031 139.125 80.6114 139.127 80.4225 139.129C80.3883 139.13 80.2064 139.015 80.1556 138.899C79.6276 137.69 78.4229 136.875 77.0629 136.875L77.0626 136.875Z" fill="#391700"/>
<path d="M138.855 136.346C138.813 136.347 138.771 136.353 138.73 136.364C138.658 136.383 138.591 136.416 138.533 136.461C138.474 136.506 138.425 136.562 138.388 136.626C138.35 136.69 138.326 136.761 138.317 136.834C138.307 136.907 138.312 136.982 138.331 137.053L140.269 144.332C140.288 144.404 140.321 144.471 140.366 144.53C140.411 144.588 140.467 144.638 140.531 144.675C140.595 144.712 140.665 144.736 140.739 144.745C140.812 144.755 140.886 144.75 140.958 144.731C141.029 144.712 141.096 144.679 141.155 144.634C141.214 144.59 141.263 144.534 141.3 144.47C141.337 144.406 141.361 144.335 141.371 144.262C141.38 144.188 141.376 144.114 141.357 144.042L139.417 136.763C139.385 136.64 139.311 136.532 139.209 136.456C139.107 136.38 138.982 136.341 138.855 136.346L138.855 136.346ZM128.661 125.065C128.537 125.064 128.415 125.104 128.316 125.18C128.217 125.255 128.145 125.362 128.113 125.482L123.171 144.042C123.152 144.114 123.148 144.188 123.157 144.262C123.167 144.335 123.191 144.406 123.228 144.47C123.265 144.534 123.314 144.59 123.373 144.634C123.432 144.679 123.499 144.712 123.57 144.731C123.714 144.77 123.868 144.749 123.997 144.674C124.126 144.599 124.22 144.477 124.258 144.332L129.201 125.772C129.22 125.701 129.225 125.626 129.215 125.553C129.205 125.48 129.181 125.409 129.144 125.345C129.107 125.281 129.058 125.225 128.999 125.18C128.94 125.135 128.873 125.102 128.802 125.083C128.756 125.071 128.709 125.065 128.661 125.065L128.661 125.065Z" fill="#391700"/>
<path d="M139.125 136.312L124.5 136.313C124.175 136.313 123.861 136.196 123.615 135.985L116.596 129.969C116.281 129.699 115.879 129.555 115.464 129.563C114.983 129.572 114.529 129.786 114.216 130.152C113.609 130.859 113.691 131.924 114.398 132.531L122.275 139.281C122.581 139.543 122.97 139.688 123.373 139.688H142.501C143.433 139.688 144.188 138.932 144.188 138C144.188 137.068 143.433 136.313 142.501 136.313" fill="#55DDFF"/>
<path d="M115.453 129C114.812 129.013 114.206 129.299 113.788 129.785C112.983 130.724 113.094 132.154 114.032 132.958L121.908 139.708C122.316 140.058 122.836 140.25 123.373 140.25H142.5C143.736 140.25 144.75 139.236 144.75 138C144.75 136.764 143.736 135.75 142.5 135.75C142.351 135.75 142.208 135.809 142.102 135.915C141.997 136.02 141.937 136.163 141.937 136.312C141.937 136.462 141.997 136.605 142.102 136.71C142.208 136.816 142.351 136.875 142.5 136.875C143.128 136.875 143.625 137.372 143.625 138C143.625 138.628 143.128 139.125 142.5 139.125H123.373C123.104 139.125 122.844 139.029 122.64 138.854L114.764 132.104C114.288 131.695 114.234 130.995 114.643 130.518C114.852 130.275 115.154 130.131 115.475 130.125C115.751 130.12 116.02 130.216 116.229 130.396L123.249 136.412C123.597 136.711 124.041 136.875 124.5 136.875H139.125C139.274 136.875 139.417 136.815 139.523 136.71C139.628 136.604 139.688 136.461 139.688 136.312C139.688 136.163 139.628 136.02 139.523 135.914C139.417 135.809 139.274 135.75 139.125 135.75H124.5C124.31 135.75 124.125 135.681 123.981 135.557L116.962 129.543H116.961C116.542 129.183 116.005 128.989 115.453 129H115.453Z" fill="#391700"/>
<path d="M117.589 121.498C119.688 115.852 125.779 112.627 131.715 114.217C137.65 115.808 141.313 121.647 140.307 127.586C140.204 128.198 139.581 128.554 138.981 128.393L118.334 122.861C117.734 122.7 117.373 122.081 117.589 121.499L117.589 121.498Z" fill="#FFDD55"/>
<path d="M129.53 113.282C124.116 112.894 118.984 116.128 117.061 121.303C116.728 122.199 117.294 123.165 118.188 123.405L138.835 128.936C139.729 129.176 140.702 128.622 140.862 127.68C141.712 122.658 139.376 117.703 135.171 115.103C135.044 115.024 134.891 115 134.746 115.034C134.601 115.068 134.476 115.158 134.397 115.285C134.358 115.348 134.332 115.418 134.32 115.491C134.309 115.564 134.311 115.638 134.328 115.71C134.345 115.782 134.376 115.85 134.419 115.91C134.462 115.97 134.517 116.021 134.58 116.06C138.4 118.422 140.525 122.925 139.752 127.492C139.704 127.774 139.432 127.932 139.126 127.85L118.479 122.318C118.174 122.236 118.016 121.963 118.116 121.694C120.115 116.316 125.91 113.244 131.568 114.761C131.712 114.799 131.866 114.779 131.995 114.705C132.124 114.63 132.219 114.507 132.257 114.363C132.296 114.219 132.276 114.066 132.201 113.936C132.126 113.807 132.004 113.713 131.86 113.674C131.083 113.466 130.304 113.337 129.53 113.282L129.53 113.282Z" fill="#391700"/>
<path d="M36.0037 65.25C35.8789 65.2486 35.7572 65.2888 35.6578 65.3642C35.5583 65.4395 35.4868 65.5458 35.4543 65.6664L27.8837 93.9202C27.8451 94.0642 27.8653 94.2178 27.9399 94.3469C28.0144 94.4761 28.1373 94.5704 28.2814 94.609C28.3528 94.6283 28.4273 94.6333 28.5006 94.6237C28.574 94.6141 28.6447 94.5902 28.7088 94.5533C28.7729 94.5163 28.8291 94.4671 28.8741 94.4084C28.9192 94.3497 28.9522 94.2828 28.9713 94.2113L36.5409 65.9586C36.5602 65.8872 36.5652 65.8127 36.5556 65.7393C36.546 65.666 36.5221 65.5952 36.4852 65.5311C36.4482 65.467 36.399 65.4109 36.3403 65.3658C36.2816 65.3208 36.2146 65.2878 36.1432 65.2686C36.0976 65.2566 36.0508 65.2503 36.0037 65.25L36.0037 65.25Z" fill="#391700"/>
<path d="M20.4908 73.8883C22.7292 67.7514 29.1735 65.1487 35.707 66.8992C42.2398 68.6497 46.5199 74.1262 45.3898 80.5595C45.2824 81.1713 44.6598 81.5272 44.0596 81.3663L21.2396 75.252C20.6394 75.0912 20.2781 74.4717 20.4909 73.8882L20.4908 73.8883Z" fill="#FFDD55"/>
<path d="M27.7593 76.999C29.6086 70.0971 34.0767 66.4622 35.7068 66.8993C37.3369 67.336 39.3889 72.7178 37.5395 79.6196L27.7593 76.999Z" fill="#55DDFF"/>
<path d="M35.8518 66.3563C35.1938 66.18 34.5033 66.4079 33.7578 66.8342C33.0122 67.2606 32.2062 67.9253 31.3979 68.8195C29.7813 70.6078 28.163 73.3174 27.2154 76.8537C27.1769 76.9978 27.1971 77.1513 27.2717 77.2804C27.3462 77.4096 27.4691 77.5039 27.6131 77.5425L37.3933 80.1627C37.5374 80.2013 37.6909 80.1811 37.8201 80.1065C37.9493 80.0319 38.0435 79.9091 38.0822 79.765C39.0297 76.2287 38.9834 73.0735 38.4777 70.7167C38.2248 69.5382 37.8587 68.5594 37.4263 67.8174C36.9938 67.0753 36.5099 66.5325 35.852 66.3562L35.8518 66.3563ZM35.5606 67.4429C35.7177 67.4849 36.102 67.7777 36.4549 68.3833C36.8078 68.9889 37.1451 69.8688 37.3777 70.953C37.8169 72.9994 37.8605 75.7885 37.1097 78.9225L28.4787 76.6099C29.3955 73.5204 30.8292 71.1268 32.2327 69.5742C32.9763 68.7515 33.7073 68.1588 34.3157 67.8109C34.9241 67.4629 35.4034 67.4007 35.5604 67.4428L35.5606 67.4429Z" fill="#391700"/>
<path d="M20.7824 95.2554C20.3268 94.5519 20.0623 93.7131 20.0623 92.8125C20.0623 90.3272 22.077 88.3125 24.5623 88.3125C27.0476 88.3125 29.0623 90.3272 29.0623 92.8125" fill="#FFB380"/>
<path d="M24.5625 87.75C21.7732 87.75 19.5 90.0232 19.5 92.8125C19.5 93.8233 19.7983 94.7699 20.3108 95.5613C20.392 95.6864 20.5195 95.7741 20.6654 95.8053C20.8112 95.8364 20.9635 95.8083 21.0886 95.7272C21.2137 95.646 21.3015 95.5185 21.3326 95.3726C21.3637 95.2267 21.3356 95.0745 21.2545 94.9493C20.8558 94.3336 20.625 93.6029 20.625 92.8125C20.625 90.6312 22.3812 88.875 24.5625 88.875C26.7438 88.875 28.5 90.6312 28.5 92.8125C28.5 92.9617 28.5593 93.1048 28.6648 93.2103C28.7703 93.3157 28.9133 93.375 29.0625 93.375C29.2117 93.375 29.3548 93.3157 29.4603 93.2103C29.5657 93.1048 29.625 92.9617 29.625 92.8125C29.625 90.0232 27.3518 87.75 24.5625 87.75L24.5625 87.75Z" fill="#391700"/>
<path d="M48.1876 96.1875C45.3751 93.375 41.3881 91.6875 33.0001 91.6875C32.8062 91.6875 32.6167 91.6892 32.4297 91.6919C32.0936 91.6967 31.774 91.4307 31.6398 91.1233C31.2002 90.1167 30.1984 89.4376 29.0626 89.4375C27.7444 89.4376 26.634 90.3457 26.3316 91.5765C26.2515 91.9023 25.9825 92.2237 25.6526 92.2883C21.9582 93.0123 19.6372 94.3629 17.8125 96.1875" fill="#FFCCAA"/>
<path d="M29.0626 88.875C27.4861 88.8751 26.1486 89.9641 25.7854 91.4425C25.7546 91.5679 25.5859 91.7278 25.5448 91.7358C21.7644 92.4766 19.31 93.8946 17.415 95.7898C17.3095 95.8953 17.2502 96.0383 17.2502 96.1875C17.2502 96.3366 17.3095 96.4797 17.415 96.5852C17.5205 96.6907 17.6635 96.7499 17.8127 96.7499C17.9618 96.7499 18.1049 96.6907 18.2104 96.5852C19.9645 94.8311 22.1528 93.5471 25.7614 92.84C26.3799 92.7188 26.7483 92.2367 26.8776 91.7106C27.1192 90.7274 28.003 90.0001 29.0628 90C29.9744 90 30.7737 90.5436 31.1249 91.348C31.3426 91.8465 31.8 92.2635 32.4378 92.2544C32.623 92.2518 32.8098 92.25 33.0003 92.25C41.3129 92.25 45.0862 93.8811 47.7901 96.5852C47.8956 96.6907 48.0387 96.7499 48.1878 96.7499C48.337 96.7499 48.4801 96.6907 48.5856 96.5852C48.691 96.4797 48.7503 96.3366 48.7503 96.1875C48.7503 96.0383 48.691 95.8952 48.5856 95.7898C45.6647 92.8689 41.4638 91.1249 33.0004 91.1249C32.8031 91.1249 32.6114 91.1267 32.4225 91.1293C32.3883 91.1298 32.2064 91.015 32.1556 90.8986C31.6276 89.6898 30.4229 88.875 29.0629 88.875L29.0626 88.875ZM30.848 65.8367C25.9772 66.1427 21.7175 68.8838 19.9625 73.6953C19.6355 74.5918 20.1996 75.5551 21.0941 75.7948L43.9136 81.9097C44.8081 82.1494 45.7788 81.5971 45.9439 80.6573C46.6958 76.3759 45.1403 72.4555 42.1645 69.7358C42.0544 69.6353 41.9088 69.5827 41.7599 69.5895C41.6109 69.5963 41.4708 69.662 41.3702 69.772C41.2696 69.8821 41.2168 70.0275 41.2234 70.1765C41.23 70.3254 41.2955 70.4656 41.4054 70.5663C44.1312 73.0576 45.5219 76.553 44.8353 80.463C44.7855 80.7467 44.5105 80.9053 44.2047 80.8233L21.3852 74.7084C21.0794 74.6264 20.9207 74.3517 21.0194 74.0811C23.1562 68.2226 29.2516 65.7527 35.5611 67.443C36.7249 67.7549 37.8123 68.1877 38.8043 68.7251C38.9354 68.7962 39.0894 68.8123 39.2324 68.7698C39.3754 68.7274 39.4956 68.6299 39.5667 68.4988C39.6378 68.3677 39.6539 68.2137 39.6115 68.0707C39.569 67.9277 39.4715 67.8075 39.3404 67.7363C38.2686 67.1557 37.0986 66.6904 35.8523 66.3565C34.163 65.9038 32.4716 65.7348 30.848 65.8368L30.848 65.8367Z" fill="#391700"/>
<path d="M29.0625 120C29.0625 121.072 29.4925 121.769 30.1875 122.202C29.0761 128.969 27.94 135.735 26.8125 142.5H39.1875C38.1139 135.726 36.8534 128.979 35.8125 122.202C36.5075 121.769 36.9375 121.072 36.9375 120H29.0625Z" fill="#DCDCDC"/>
<path d="M29.0625 127.312H36.9375L37.5 131.812H28.5L29.0625 127.312Z" fill="#FFDD55"/>
<path d="M29.0624 119.438C28.9132 119.438 28.7702 119.497 28.6647 119.602C28.5592 119.708 28.4999 119.851 28.4999 120C28.4999 121.041 28.9546 121.815 29.5909 122.361C28.4928 129.043 27.3714 135.725 26.2576 142.408C26.2442 142.488 26.2485 142.571 26.2702 142.65C26.292 142.728 26.3306 142.802 26.3833 142.864C26.4361 142.926 26.5019 142.976 26.576 143.011C26.6501 143.045 26.7308 143.063 26.8124 143.063H39.1874C39.2687 143.063 39.3491 143.045 39.423 143.011C39.4968 142.977 39.5625 142.928 39.6153 142.866C39.6681 142.804 39.7069 142.731 39.729 142.653C39.7512 142.575 39.756 142.493 39.7433 142.412C38.6811 135.71 37.4407 129.045 36.409 122.361C37.0453 121.815 37.5 121.042 37.5 120.001C37.5 119.851 37.4407 119.708 37.3352 119.603C37.2297 119.497 37.0867 119.438 36.9375 119.438H29.0625L29.0624 119.438ZM29.7403 120.562H36.2597C36.1445 121.083 35.9239 121.469 35.5148 121.724C35.4213 121.782 35.347 121.867 35.3011 121.967C35.2552 122.067 35.2397 122.178 35.2566 122.287C35.4853 123.777 35.7268 125.264 35.9718 126.75H30.0009C30.247 125.264 30.4984 123.779 30.7425 122.293C30.7606 122.183 30.7459 122.071 30.7002 121.969C30.6544 121.868 30.5797 121.783 30.4854 121.724C30.0763 121.469 29.8557 121.083 29.7406 120.563L29.7403 120.562ZM29.8139 127.875H36.1572C36.3451 129.001 36.5356 130.125 36.7274 131.25H29.2523C29.4397 130.125 29.6271 129 29.8137 127.875H29.8139ZM29.0657 132.375H36.9176C37.463 135.563 38.0128 138.749 38.5239 141.938H27.4758C28.0072 138.751 28.5342 135.563 29.0655 132.375H29.0657Z" fill="#391700"/>
<path d="M36.9375 117.188C36.9375 115.013 35.1746 113.812 33 113.812C30.8254 113.812 29.0625 115.013 29.0625 117.188H36.9375Z" fill="#DCDCDC"/>
<path d="M33 113.25C31.8577 113.25 30.7813 113.404 29.9249 113.922C29.2171 114.351 28.791 115.126 28.6351 116.062H27.9375C27.7883 116.062 27.6452 116.122 27.5398 116.227C27.4343 116.333 27.375 116.476 27.375 116.625C27.375 116.774 27.4343 116.917 27.5398 117.023C27.6452 117.128 27.7883 117.188 27.9375 117.188H29.0625C29.2117 117.187 29.3547 117.128 29.4602 117.023C29.5657 116.917 29.625 116.774 29.625 116.625C29.625 115.69 29.9384 115.229 30.5072 114.885C31.076 114.54 31.9677 114.375 33 114.375C34.0323 114.375 34.924 114.54 35.4928 114.885C36.0615 115.229 36.375 115.69 36.375 116.625C36.375 116.774 36.4343 116.917 36.5398 117.023C36.6453 117.128 36.7883 117.187 36.9375 117.188H38.0625C38.2117 117.188 38.3548 117.128 38.4602 117.023C38.5657 116.917 38.625 116.774 38.625 116.625C38.625 116.476 38.5657 116.333 38.4602 116.227C38.3548 116.122 38.2117 116.062 38.0625 116.062H37.3649C37.209 115.126 36.7829 114.351 36.0751 113.922C35.2187 113.404 34.1423 113.25 33 113.25Z" fill="#391700"/>
<path d="M34.6875 116.625H36.9375V120H29.0625V116.625H31.3125" fill="#FFDD55"/>
<path d="M29.0625 116.062C28.9133 116.063 28.7703 116.122 28.6648 116.227C28.5593 116.333 28.5 116.476 28.5 116.625V120C28.5 120.149 28.5593 120.292 28.6648 120.398C28.7703 120.503 28.9133 120.562 29.0625 120.562H36.9375C37.0867 120.562 37.2297 120.503 37.3352 120.398C37.4407 120.292 37.5 120.149 37.5 120V116.625C37.5 116.476 37.4407 116.333 37.3352 116.227C37.2297 116.122 37.0867 116.063 36.9375 116.062H34.6875C34.5383 116.062 34.3952 116.122 34.2898 116.227C34.1843 116.333 34.125 116.476 34.125 116.625C34.125 116.774 34.1843 116.917 34.2898 117.023C34.3952 117.128 34.5383 117.188 34.6875 117.188H36.375V119.438H29.625V117.188H31.3125C31.4617 117.188 31.6048 117.128 31.7102 117.023C31.8157 116.917 31.875 116.774 31.875 116.625C31.875 116.476 31.8157 116.333 31.7102 116.227C31.6048 116.122 31.4617 116.062 31.3125 116.062H29.0625Z" fill="#391700"/>
<path d="M27.9375 119.438C27.7883 119.438 27.6452 119.497 27.5398 119.602C27.4343 119.708 27.375 119.851 27.375 120C27.375 120.149 27.4343 120.292 27.5398 120.398C27.6452 120.503 27.7883 120.562 27.9375 120.562H38.0625C38.2117 120.562 38.3548 120.503 38.4602 120.398C38.5657 120.292 38.625 120.149 38.625 120C38.625 119.851 38.5657 119.708 38.4602 119.602C38.3548 119.497 38.2117 119.438 38.0625 119.438H27.9375Z" fill="#391700"/>
<path d="M20.7824 143.255C20.3268 142.552 20.0623 141.713 20.0623 140.812C20.0623 138.327 22.077 136.312 24.5623 136.312C27.0476 136.312 29.0623 138.327 29.0623 140.812" fill="#FFB380"/>
<path d="M24.5625 135.75C21.7732 135.75 19.5 138.023 19.5 140.812C19.5 141.823 19.7983 142.77 20.3108 143.561C20.392 143.686 20.5195 143.774 20.6654 143.805C20.8112 143.836 20.9635 143.808 21.0886 143.727C21.2137 143.646 21.3015 143.518 21.3326 143.373C21.3637 143.227 21.3356 143.074 21.2545 142.949C20.8558 142.334 20.625 141.603 20.625 140.813C20.625 138.631 22.3812 136.875 24.5625 136.875C26.7438 136.875 28.5 138.631 28.5 140.813C28.5 140.962 28.5593 141.105 28.6648 141.21C28.7703 141.316 28.9133 141.375 29.0625 141.375C29.2117 141.375 29.3548 141.316 29.4603 141.21C29.5657 141.105 29.625 140.962 29.625 140.813C29.625 138.023 27.3518 135.75 24.5625 135.75L24.5625 135.75Z" fill="#391700"/>
<path d="M48.1876 144.188C45.3751 141.375 41.3881 139.688 33.0001 139.688C32.8062 139.688 32.6167 139.689 32.4297 139.692C32.0936 139.697 31.774 139.431 31.6398 139.123C31.2002 138.117 30.1984 137.438 29.0626 137.438C27.7444 137.438 26.634 138.346 26.3316 139.576C26.2515 139.902 25.9825 140.224 25.6526 140.288C21.9582 141.012 19.6372 142.363 17.8125 144.188" fill="#FFCCAA"/>
<path d="M29.0626 136.875C27.4861 136.875 26.1486 137.964 25.7854 139.443C25.7546 139.568 25.5859 139.728 25.5448 139.736C21.7644 140.477 19.31 141.895 17.415 143.79C17.3095 143.895 17.2502 144.038 17.2502 144.188C17.2502 144.337 17.3095 144.48 17.415 144.585C17.5205 144.691 17.6635 144.75 17.8127 144.75C17.9618 144.75 18.1049 144.691 18.2104 144.585C19.9645 142.831 22.1528 141.547 25.7614 140.84C26.3799 140.719 26.7483 140.237 26.8776 139.711C27.1192 138.727 28.003 138 29.0628 138C29.9744 138 30.7737 138.544 31.1249 139.348C31.3426 139.847 31.8 140.264 32.4378 140.254C32.623 140.252 32.8098 140.25 33.0003 140.25C41.3129 140.25 45.0862 141.881 47.7901 144.585C47.8956 144.691 48.0387 144.75 48.1878 144.75C48.337 144.75 48.4801 144.691 48.5856 144.585C48.691 144.48 48.7503 144.337 48.7503 144.188C48.7503 144.038 48.691 143.895 48.5856 143.79C45.6647 140.869 41.4638 139.125 33.0004 139.125C32.8031 139.125 32.6114 139.127 32.4225 139.129C32.3883 139.13 32.2064 139.015 32.1556 138.899C31.6276 137.69 30.4229 136.875 29.0629 136.875L29.0626 136.875Z" fill="#391700"/>
</svg>
