<svg width="162" height="162" viewBox="0 0 162 162" fill="none" xmlns="http://www.w3.org/2000/svg">
<g clip-path="url(#clip0)">
<rect width="162" height="162" fill="white"/>
<rect width="162" height="162" fill="#E7F7FE"/>
<path d="M28.0217 41.0128C27.6042 41.1015 27.2139 41.2884 26.883 41.5579C26.6953 41.703 26.4802 41.8088 26.2506 41.8687C26.0211 41.9287 25.7817 41.9416 25.547 41.9068C25.3123 41.872 25.0871 41.7902 24.8848 41.6662C24.6825 41.5422 24.5074 41.3786 24.3698 41.1853C23.0996 39.4796 21.2813 38.5485 19.5079 38.9198C18.9318 39.0545 18.3898 39.3068 17.9158 39.6609C17.4418 40.0149 17.0461 40.463 16.7534 40.9772C16.631 41.183 16.4677 41.3615 16.2737 41.5019C16.0797 41.6422 15.859 41.7414 15.6252 41.7934C15.3915 41.8453 15.1495 41.8489 14.9144 41.8038C14.6792 41.7588 14.4557 41.6662 14.2576 41.5316C13.9341 41.2945 13.5655 41.1262 13.1745 41.0369C12.7835 40.9477 12.3784 40.9395 11.9841 41.0128C10.5472 41.3136 9.57292 42.7732 9.42993 44.5758H32.3062C31.6865 42.2149 29.8218 40.6359 28.0217 41.0128Z" fill="#C7EEFF"/>
<path d="M103.851 9.32484C103.267 9.44881 102.722 9.70997 102.26 10.0867C101.997 10.2895 101.697 10.4372 101.376 10.521C101.055 10.6048 100.721 10.6229 100.393 10.5743C100.065 10.5257 99.7498 10.4113 99.4671 10.238C99.1844 10.0647 98.9396 9.83616 98.7475 9.56597C96.9723 7.18231 94.4313 5.88117 91.953 6.40005C91.148 6.5883 90.3905 6.94085 89.7282 7.4356C89.0658 7.93035 88.5128 8.55661 88.1038 9.27513C87.9327 9.56271 87.7045 9.81224 87.4334 10.0084C87.1622 10.2045 86.8538 10.3432 86.5271 10.4157C86.2005 10.4883 85.8624 10.4933 85.5337 10.4304C85.205 10.3674 84.8927 10.238 84.6159 10.0499C84.1639 9.71855 83.6488 9.48329 83.1024 9.35859C82.556 9.2339 81.9898 9.22241 81.4388 9.32484C79.4308 9.74521 78.0692 11.785 77.8694 14.3041H109.838C108.972 11.0048 106.366 8.79817 103.851 9.32484Z" fill="#C7EEFF"/>
<path d="M129.861 36.4487C129.565 36.5116 129.288 36.6442 129.054 36.8353C128.92 36.9383 128.768 37.0132 128.605 37.0558C128.442 37.0983 128.273 37.1075 128.106 37.0828C127.94 37.0581 127.78 37.0001 127.636 36.9122C127.493 36.8242 127.369 36.7082 127.271 36.5711C126.37 35.3614 125.081 34.7011 123.823 34.9644C123.415 35.06 123.03 35.2389 122.694 35.49C122.358 35.7411 122.077 36.0589 121.87 36.4235C121.783 36.5694 121.667 36.6961 121.529 36.7956C121.392 36.8952 121.235 36.9655 121.069 37.0023C120.904 37.0392 120.732 37.0417 120.565 37.0098C120.399 36.9778 120.24 36.9121 120.1 36.8167C119.87 36.6485 119.609 36.5291 119.331 36.4659C119.054 36.4026 118.767 36.3967 118.487 36.4487C117.468 36.6621 116.777 37.6972 116.676 38.9756H132.9C132.46 37.3013 131.138 36.1814 129.861 36.4487Z" fill="#C7EEFF"/>
<path d="M124.619 149.547H82.1854C82.1854 149.547 80.4558 146.204 82.7619 144.359C84.0358 143.34 85.5207 144.326 86.5948 145.413C86.7028 145.522 86.8407 145.596 86.9911 145.626C87.1414 145.655 87.2972 145.64 87.4383 145.58C87.5795 145.52 87.6996 145.42 87.7832 145.291C87.8668 145.163 87.91 145.012 87.9073 144.859C87.8501 141.599 88.395 136.138 92.678 136.057C96.9593 135.976 101.354 141.252 103.602 144.418C103.69 144.544 103.815 144.641 103.959 144.695C104.104 144.749 104.261 144.758 104.411 144.722C104.561 144.686 104.696 144.605 104.799 144.49C104.903 144.376 104.969 144.233 104.99 144.08C105.168 142.685 105.849 141.162 107.783 140.438C110.403 139.458 113.731 143.346 117.642 146.001C119.826 147.444 122.166 148.634 124.619 149.547Z" fill="white"/>
<path d="M52.6448 149.644H14.7063C14.7063 149.644 13.16 146.654 15.2218 145.005C16.3607 144.094 17.6883 144.976 18.6486 145.948C18.7451 146.045 18.8685 146.111 19.0029 146.138C19.1373 146.164 19.2766 146.15 19.4028 146.097C19.529 146.043 19.6364 145.953 19.7111 145.839C19.7858 145.724 19.8245 145.589 19.8221 145.452C19.7709 142.537 20.2581 137.655 24.0874 137.582C27.9151 137.51 31.8439 142.227 33.8536 145.058C33.933 145.17 34.0444 145.257 34.1735 145.305C34.3026 145.354 34.4432 145.362 34.5772 145.33C34.7112 145.297 34.8322 145.225 34.9246 145.122C35.017 145.02 35.0764 144.892 35.0952 144.756C35.1516 144.03 35.4176 143.335 35.8608 142.758C36.304 142.18 36.9053 141.743 37.592 141.5C39.9347 140.623 42.9096 144.099 46.4065 146.473C48.3588 147.763 50.4517 148.827 52.6448 149.644Z" fill="white"/>
<path d="M72.3385 126.762L69.4168 135.82C69.3673 135.976 69.3527 136.141 69.3741 136.303C69.3955 136.465 69.4524 136.62 69.5407 136.758C69.6291 136.896 69.7466 137.012 69.8851 137.099C70.0235 137.186 70.1794 137.241 70.3417 137.261L80.9614 138.555C81.1639 138.58 81.3681 138.526 81.5313 138.403C81.6945 138.281 81.8041 138.1 81.837 137.899C81.8565 137.779 81.8484 137.657 81.8132 137.541C81.7781 137.426 81.7169 137.32 81.6343 137.231L78.8938 134.301C78.7523 134.149 78.6559 133.962 78.6155 133.758C78.575 133.555 78.5921 133.345 78.6649 133.151L80.3593 128.633L72.3385 126.762Z" fill="black"/>
<path d="M68.8561 135.117L68.8325 135.299L80.381 136.793L80.4046 136.611L68.8561 135.117Z" fill="#FFC840"/>
<path d="M84.0015 93.6621L70.943 127.022C70.8503 127.258 70.8139 127.513 70.8367 127.766C70.8594 128.02 70.9406 128.264 71.0739 128.48C71.2073 128.697 71.389 128.879 71.6049 129.013C71.8209 129.148 72.065 129.23 72.318 129.253L80.5492 130.024C80.903 130.057 81.258 129.975 81.5608 129.789C81.8637 129.603 82.0979 129.323 82.2284 128.993L94.5412 97.8055C94.8534 97.0147 94.9835 96.1637 94.9219 95.3158C94.8603 94.4678 94.6085 93.6446 94.1852 92.9072C93.7619 92.1698 93.178 91.5372 92.4769 91.0564C91.7757 90.5755 90.9752 90.2588 90.1349 90.1296H90.1348C88.8633 89.9341 87.5631 90.1774 86.4482 90.8195C85.3334 91.4616 84.4705 92.4641 84.0015 93.6621Z" fill="#3E5ACE"/>
<path d="M79.7862 116.533C79.3391 114.581 78.9017 112.626 78.4135 110.684C78.272 110.12 78.1345 109.557 78.0009 108.992L75.9421 114.251C77.2373 117.172 78.4911 120.109 79.8514 123.003C80.6997 124.807 81.505 126.669 82.4431 128.449L82.6584 127.904C81.5437 124.155 80.6591 120.344 79.7862 116.533Z" fill="black"/>
<path d="M82.0566 74.0057L94.4821 93.4557C95.0052 94.4561 95.159 95.6089 94.9163 96.7115C94.6736 97.814 94.0501 98.7958 93.1552 99.4841C92.1532 100.255 90.8875 100.599 89.6331 100.442C88.3787 100.285 87.2368 99.6399 86.4555 98.646L69.9687 83.1325C68.0597 80.704 82.0566 74.0057 82.0566 74.0057Z" fill="#3E5ACE"/>
<path d="M83.1781 94.9392C85.5745 92.3252 88.0106 89.7458 90.4865 87.2011L82.0566 74.0056C82.0566 74.0056 68.0597 80.7039 69.9687 83.1324L82.8746 95.2764C82.9756 95.1633 83.0764 95.0501 83.1781 94.9392Z" fill="black"/>
<path d="M79.1312 140.211L73.0615 139.677C72.7651 139.651 72.4912 139.508 72.3 139.28C72.1088 139.052 72.0161 138.757 72.0422 138.461C72.0683 138.164 72.211 137.89 72.4391 137.699C72.6671 137.508 72.9618 137.415 73.2582 137.441L79.3279 137.975C79.6243 138.001 79.8982 138.144 80.0894 138.372C80.2806 138.6 80.3733 138.895 80.3473 139.191C80.3212 139.488 80.1784 139.762 79.9503 139.953C79.7223 140.144 79.4276 140.237 79.1312 140.211Z" fill="#3B82FE"/>
<path d="M50.5384 26.9247C43.2359 25.6567 41.5302 32.6805 34.4218 31.6494C34.331 31.6349 34.2462 31.5948 34.1775 31.5337C34.1088 31.4726 34.059 31.3931 34.034 31.3046C33.3588 28.9342 32.9684 27.5632 32.3248 25.3031C32.3036 25.2281 32.3012 25.1491 32.3177 25.073C32.3342 24.9969 32.3691 24.926 32.4194 24.8665C32.4696 24.807 32.5337 24.7607 32.606 24.7318C32.6784 24.7028 32.7567 24.6921 32.8341 24.7004C39.6047 25.4126 41.3835 18.6815 48.545 19.9249C49.3423 22.7249 49.741 24.1248 50.5384 26.9247Z" fill="#FC6363"/>
<path d="M33.7422 25.7162C33.4116 25.716 33.0813 25.6983 32.7526 25.6633C32.7406 25.662 32.729 25.6584 32.7184 25.6527C32.7078 25.6469 32.6984 25.6391 32.6908 25.6297C32.6832 25.6203 32.6776 25.6096 32.6741 25.598C32.6707 25.5864 32.6696 25.5743 32.6709 25.5623C32.6717 25.5501 32.675 25.5382 32.6807 25.5274C32.6863 25.5165 32.6941 25.507 32.7036 25.4993C32.7131 25.4916 32.724 25.486 32.7358 25.4828C32.7476 25.4796 32.7599 25.4788 32.772 25.4806C36.0044 25.821 38.1312 24.418 40.1883 23.0613C42.4286 21.5837 44.7457 20.0553 48.489 20.706C48.513 20.7103 48.5343 20.7238 48.5483 20.7437C48.5622 20.7636 48.5677 20.7883 48.5636 20.8122C48.5594 20.8362 48.5458 20.8575 48.5259 20.8715C48.5061 20.8855 48.4814 20.8911 48.4574 20.8869C44.7855 20.2496 42.5 21.757 40.2893 23.2147C38.4215 24.4467 36.4963 25.7162 33.7422 25.7162Z" fill="white"/>
<path d="M35.5039 31.0294C35.1734 31.0292 34.8432 31.0115 34.5145 30.9765C34.5025 30.9753 34.4909 30.9716 34.4803 30.9659C34.4697 30.9601 34.4603 30.9523 34.4527 30.9429C34.4452 30.9336 34.4395 30.9228 34.4361 30.9112C34.4327 30.8996 34.4316 30.8875 34.4329 30.8755C34.4339 30.8634 34.4373 30.8516 34.443 30.8409C34.4487 30.8301 34.4565 30.8207 34.4659 30.813C34.4754 30.8054 34.4863 30.7998 34.4979 30.7965C34.5096 30.7932 34.5219 30.7923 34.5339 30.7939C37.7665 31.1333 39.893 29.7312 41.9501 28.3745C44.1906 26.8969 46.5069 25.3684 50.2508 26.0193C50.2747 26.0235 50.296 26.0371 50.3099 26.057C50.3239 26.0769 50.3294 26.1015 50.3252 26.1255C50.321 26.1494 50.3075 26.1707 50.2876 26.1847C50.2677 26.1987 50.2431 26.2042 50.2192 26.2001C46.5474 25.5634 44.2618 27.0701 42.0511 28.528C40.1833 29.7599 38.2581 31.0294 35.5039 31.0294Z" fill="white"/>
<path d="M71.1024 101.406C71.0221 101.406 70.9441 101.38 70.8802 101.331C70.8162 101.283 70.77 101.215 70.7485 101.137L48.047 19.2318C48.021 19.1379 48.0334 19.0375 48.0814 18.9526C48.1294 18.8678 48.2091 18.8055 48.3031 18.7795C48.397 18.7535 48.4974 18.7658 48.5822 18.8139C48.667 18.8619 48.7293 18.9416 48.7553 19.0355L71.4568 100.941C71.4828 101.035 71.4704 101.135 71.4224 101.22C71.3744 101.305 71.2947 101.367 71.2007 101.393C71.1687 101.402 71.1356 101.406 71.1024 101.406Z" fill="#FFC840"/>
<path d="M70.4825 97.4249C70.3355 97.7857 70.1815 98.1431 70.0164 98.4954L70.7487 101.137C70.7702 101.215 70.8164 101.283 70.8803 101.331C70.9442 101.38 71.0223 101.406 71.1026 101.406C71.1358 101.406 71.1689 101.402 71.2009 101.393C71.2948 101.367 71.3746 101.305 71.4226 101.22C71.4706 101.135 71.483 101.035 71.457 100.941L70.4825 97.4249Z" fill="black"/>
<path d="M53.8742 37.504C53.8434 37.5587 53.8118 37.6129 53.7813 37.6678C53.6369 37.9276 53.4996 38.1856 53.3718 38.4436L63.2386 74.0421C63.3615 73.6426 63.4846 73.243 63.6189 72.8471C63.628 72.8202 63.6387 72.7939 63.6479 72.7671L53.8742 37.504Z" fill="black"/>
<path d="M38.0313 29.477C38.3417 29.374 38.652 29.2711 38.9624 29.1681C39.021 29.1518 39.0707 29.1129 39.1007 29.06C39.1307 29.0071 39.1384 28.9444 39.1223 28.8858C39.1061 28.8271 39.0674 28.7773 39.0145 28.7472C38.9616 28.7171 38.899 28.7092 38.8403 28.7252C38.5299 28.8282 38.2195 28.9311 37.9092 29.0341C37.8506 29.0504 37.8008 29.0893 37.7708 29.1422C37.7408 29.1951 37.7331 29.2578 37.7492 29.3165C37.7654 29.3751 37.8042 29.4249 37.8571 29.455C37.9099 29.4851 37.9726 29.493 38.0313 29.477Z" fill="white"/>
<path d="M36.7321 25.9128C37.0388 27.0354 37.3742 28.1501 37.7022 29.2666C37.72 29.3235 37.7592 29.3712 37.8115 29.3997C37.8638 29.4283 37.9252 29.4353 37.9826 29.4195C38.04 29.4037 38.0891 29.3662 38.1194 29.3148C38.1497 29.2635 38.1589 29.2025 38.1451 29.1445C37.8171 28.028 37.4817 26.9133 37.175 25.7907C37.1572 25.7338 37.118 25.6861 37.0657 25.6576C37.0134 25.629 36.952 25.6219 36.8946 25.6378C36.8372 25.6536 36.7881 25.6911 36.7578 25.7424C36.7275 25.7937 36.7183 25.8548 36.7321 25.9128Z" fill="white"/>
<path d="M39.5487 25.8531C39.4785 25.6287 39.495 25.3861 39.5949 25.1732C39.6157 25.1403 39.6437 25.1126 39.6769 25.0922C39.71 25.0718 39.7474 25.0593 39.7862 25.0556C39.8919 25.0632 39.9769 25.2118 40.0298 25.2878C40.3295 25.717 40.5533 26.1945 40.6916 26.6994C40.7694 26.9422 40.8118 27.195 40.8176 27.4499C40.8132 27.6099 40.714 27.9061 40.4968 27.817C40.2879 27.7312 40.1828 27.4442 40.078 27.241C39.8399 26.8044 39.6618 26.3375 39.5487 25.8531C39.4884 25.564 39.0456 25.6864 39.1059 25.9752C39.2405 26.539 39.4541 27.081 39.7403 27.5851C39.9327 27.9459 40.2278 28.4001 40.7132 28.2752C41.4746 28.0794 41.2803 27.0997 41.1271 26.5508C41.0346 26.2218 40.9091 25.9029 40.7527 25.599C40.6145 25.2852 40.4199 24.9995 40.1785 24.756C40.1125 24.7004 40.0358 24.6588 39.9532 24.6337C39.8706 24.6086 39.7838 24.6006 39.698 24.6102C39.6122 24.6197 39.5292 24.6466 39.4541 24.6891C39.379 24.7317 39.3133 24.7891 39.2611 24.8579C39.1552 25.0215 39.0864 25.2063 39.0596 25.3993C39.0327 25.5924 39.0485 25.7889 39.1059 25.9752C39.1608 26.2653 39.6035 26.1425 39.5487 25.8531Z" fill="white"/>
<path d="M41.2034 24.156C41.5452 24.6319 41.8848 25.1095 42.234 25.5801C42.4366 25.8531 42.6415 26.1248 42.8541 26.3901C42.9847 26.5686 43.1323 26.734 43.2949 26.8839C43.3276 26.9146 43.3684 26.9352 43.4125 26.9433C43.4565 26.9513 43.502 26.9465 43.5434 26.9293C43.5848 26.9122 43.6203 26.8834 43.6458 26.8466C43.6713 26.8097 43.6856 26.7663 43.6869 26.7215C43.6657 26.4599 43.6276 26.1999 43.5729 25.9431C43.5325 25.6401 43.5013 25.3358 43.4777 25.0311C43.4322 24.4326 43.4178 23.8321 43.4348 23.2321C43.4327 23.1726 43.4076 23.1163 43.3648 23.0749C43.322 23.0335 43.2647 23.0104 43.2052 23.0104C43.1457 23.0104 43.0884 23.0335 43.0456 23.0749C43.0028 23.1163 42.9777 23.1726 42.9756 23.2321C42.9586 23.8321 42.9729 24.4326 43.0185 25.0311C43.0411 25.3246 43.0714 25.6174 43.1093 25.9094C43.1279 26.0533 43.148 26.197 43.1696 26.3405C43.1982 26.4659 43.2176 26.5933 43.2277 26.7215C43.3583 26.6674 43.489 26.6133 43.6197 26.5591C43.4613 26.4134 43.3173 26.2526 43.1899 26.0792C42.9889 25.8289 42.7962 25.5719 42.6051 25.314C42.2648 24.8545 41.9335 24.3886 41.6 23.9241C41.4291 23.6862 41.0306 23.9152 41.2034 24.156Z" fill="white"/>
<path d="M44.4614 22.813C44.6902 22.7439 44.919 22.6749 45.1477 22.6059C45.1769 22.5979 45.2041 22.5843 45.228 22.5658C45.2519 22.5472 45.2718 22.5242 45.2868 22.498C45.3017 22.4717 45.3113 22.4428 45.3151 22.4128C45.3188 22.3828 45.3166 22.3524 45.3086 22.3233C45.3005 22.2942 45.2868 22.2669 45.2683 22.2431C45.2497 22.2193 45.2266 22.1994 45.2003 22.1845C45.1741 22.1696 45.1451 22.1601 45.1151 22.1564C45.0852 22.1527 45.0548 22.155 45.0257 22.163C44.7969 22.232 44.5681 22.301 44.3393 22.3701C44.3101 22.378 44.2828 22.3916 44.2589 22.4101C44.235 22.4287 44.215 22.4517 44.2001 22.478C44.1851 22.5042 44.1755 22.5332 44.1717 22.5632C44.1679 22.5932 44.1701 22.6236 44.1782 22.6527C44.1862 22.6819 44.1999 22.7092 44.2185 22.733C44.2371 22.7568 44.2602 22.7767 44.2865 22.7916C44.3128 22.8065 44.3418 22.8161 44.3718 22.8197C44.4018 22.8234 44.4322 22.8211 44.4614 22.813Z" fill="white"/>
<path d="M45.1119 24.2153C45.2204 24.1868 45.3288 24.1582 45.4372 24.1297C45.4946 24.1131 45.5437 24.0754 45.5744 24.0242C45.591 23.9986 45.6004 23.9692 45.6017 23.9388C45.6086 23.9084 45.6071 23.8768 45.5976 23.8472C45.5814 23.7896 45.5436 23.7404 45.4921 23.71C45.4382 23.6799 45.3749 23.6716 45.3151 23.6868C45.2067 23.7154 45.0982 23.7439 44.9898 23.7724C44.9324 23.789 44.8833 23.8268 44.8526 23.878C44.8361 23.9035 44.8266 23.933 44.8253 23.9634C44.8185 23.9937 44.8199 24.0254 44.8294 24.055C44.8456 24.1126 44.8834 24.1618 44.9349 24.1922C44.9888 24.2222 45.0521 24.2305 45.1119 24.2153Z" fill="white"/>
<path d="M46.121 25.0896C45.8421 25.1261 45.5703 25.2038 45.3143 25.3201C45.419 25.3476 45.5237 25.375 45.6285 25.4025C45.221 24.488 44.884 23.5436 44.6205 22.5777C44.6027 22.5209 44.5635 22.4732 44.5112 22.4446C44.4589 22.4161 44.3975 22.4091 44.3401 22.4249C44.2827 22.4407 44.2337 22.4783 44.2033 22.5295C44.173 22.5808 44.1638 22.6419 44.1777 22.6998C44.4537 23.7035 44.8061 24.6845 45.2319 25.6343C45.2633 25.6862 45.3136 25.7239 45.3723 25.7392C45.4309 25.7546 45.4933 25.7465 45.5461 25.7167C45.7682 25.6218 46.003 25.5597 46.243 25.5325C46.5334 25.4799 46.4104 25.0372 46.121 25.0896Z" fill="white"/>
<path d="M120.118 102.566C119.368 100.831 118.82 99.0157 118.486 97.1554L116.88 88.2158C116.869 88.1525 116.872 88.0873 116.889 88.0253C116.906 87.9633 116.937 87.906 116.98 87.8577C117.023 87.8094 117.075 87.7713 117.135 87.7463C117.194 87.7214 117.258 87.7101 117.323 87.7135L120.403 87.8735L120.537 85.3051L117.456 85.1451C117.005 85.1215 116.554 85.2003 116.137 85.3756C115.721 85.5508 115.349 85.8179 115.05 86.1569C114.751 86.496 114.533 86.8982 114.412 87.3335C114.29 87.7688 114.268 88.226 114.348 88.6708L115.271 93.807H75.6964L75.3896 92.5074L75.0512 92.5872L73.3595 92.9865L73.0212 93.0662L73.4821 95.019L54.2288 127.247L82.5349 134.016C82.9806 134.123 83.4465 134.11 83.8859 133.98C84.3253 133.85 84.7228 133.607 85.0385 133.275L116.54 100.149C116.868 101.321 117.275 102.47 117.758 103.588L127.724 126.619L130.084 125.598L120.118 102.566ZM58.0173 125.651L73.2133 100.214C73.2997 100.069 73.4275 99.9538 73.5801 99.882C73.7326 99.8103 73.9032 99.7857 74.0698 99.8115C74.2365 99.8372 74.3916 99.9122 74.5154 100.027C74.6392 100.141 74.7261 100.29 74.7648 100.454L82.0687 131.402L58.0173 125.651ZM84.338 130.423L76.5165 97.2823C76.4872 97.1579 76.4864 97.0285 76.5141 96.9038C76.5418 96.779 76.5974 96.6622 76.6768 96.562C76.7561 96.4618 76.857 96.3809 76.972 96.3252C77.0871 96.2696 77.2132 96.2407 77.341 96.2407H115.708L115.897 97.2925L84.338 130.423Z" fill="#FC6363"/>
<path d="M73.8383 86.7384L72.0408 87.1147L73.3021 93.1399L75.0997 92.7636L73.8383 86.7384Z" fill="white"/>
<path d="M73.9952 87.4875L73.8384 86.7385L72.0408 87.1148L72.5075 89.3442C73.0121 88.7326 73.4996 88.1067 73.9952 87.4875Z" fill="black"/>
<path d="M129.499 150.011C118.963 150.011 109.48 141.621 107.562 129.958C106.51 123.895 107.768 117.658 111.09 112.478C114.397 107.403 119.363 104.091 125.073 103.152C130.783 102.214 136.548 103.76 141.306 107.509C146.07 111.389 149.25 116.877 150.247 122.939C151.243 129.002 149.989 135.219 146.718 140.42C143.411 145.495 138.445 148.807 132.735 149.746C131.665 149.922 130.583 150.011 129.499 150.011ZM128.339 103.987C127.305 103.987 126.273 104.072 125.252 104.24C119.851 105.128 115.15 108.267 112.014 113.079C108.842 118.029 107.642 123.988 108.65 129.78C110.663 142.025 121.387 150.496 132.556 148.658C137.957 147.77 142.659 144.631 145.795 139.819C148.915 134.848 150.111 128.909 149.159 123.118C148.206 117.328 145.171 112.084 140.624 108.375C137.143 105.566 132.812 104.019 128.339 103.987Z" fill="#393D7F"/>
<path d="M129.383 145.119C121.042 145.119 113.534 138.468 112.014 129.226C110.34 119.047 116.556 109.52 125.869 107.988C128.131 107.629 130.443 107.75 132.655 108.344C134.868 108.938 136.93 109.992 138.708 111.436C142.518 114.484 145.046 118.85 145.795 123.672C146.63 128.479 145.632 133.424 142.999 137.532C141.777 139.469 140.161 141.127 138.255 142.398C136.35 143.67 134.198 144.525 131.94 144.909C131.095 145.048 130.239 145.119 129.383 145.119ZM128.451 108.144C127.606 108.144 126.762 108.213 125.928 108.351C116.815 109.85 110.736 119.187 112.376 129.166C114.018 139.146 122.766 146.046 131.88 144.547C134.088 144.171 136.192 143.334 138.054 142.09C139.917 140.847 141.497 139.225 142.691 137.331C145.274 133.3 146.252 128.448 145.432 123.731C144.699 119 142.218 114.716 138.48 111.725C135.638 109.432 132.103 108.17 128.451 108.144Z" fill="white"/>
<path d="M56.7188 150.011C46.182 150.011 36.6986 141.62 34.7809 129.958C33.7284 123.895 34.9872 117.658 38.309 112.478C41.6162 107.403 46.5822 104.091 52.2924 103.152C58.001 102.214 63.767 103.76 68.5255 107.509C73.289 111.389 76.4688 116.877 77.4657 122.939C78.4626 129.002 77.2076 135.219 73.9373 140.42C70.6301 145.495 65.6641 148.807 59.9541 149.746C58.8846 149.922 57.8026 150.011 56.7188 150.011ZM55.5578 103.987C54.5238 103.987 53.4916 104.072 52.4713 104.24C47.0702 105.128 42.3686 108.267 39.2326 113.079C36.0613 118.029 34.8609 123.988 35.8685 129.78C37.6976 140.902 46.7123 148.908 56.7181 148.909C57.7423 148.909 58.7648 148.825 59.7754 148.658C65.1761 147.77 69.8777 144.631 73.0139 139.819C76.1337 134.848 77.33 128.909 76.3778 123.118C75.4256 117.328 72.3906 112.084 67.8434 108.375C64.3618 105.566 60.0312 104.019 55.5578 103.987Z" fill="#393D7F"/>
<path d="M56.5753 145.121C52.8414 145.095 49.2264 143.805 46.3198 141.461C42.5438 138.384 40.0232 134.033 39.2328 129.226C38.4425 124.42 39.4368 119.49 42.0287 115.366C43.2505 113.429 44.8667 111.77 46.7721 110.499C48.6775 109.228 50.8294 108.373 53.0874 107.989C62.4016 106.456 71.3395 113.492 73.0133 123.672C73.8483 128.479 72.8507 133.424 70.2175 137.532C68.9957 139.469 67.3794 141.127 65.474 142.399C63.5686 143.67 61.4167 144.525 59.1586 144.909C58.3047 145.05 57.4407 145.121 56.5753 145.121ZM55.6451 108.146C54.8082 108.146 53.9727 108.215 53.147 108.351C50.9394 108.727 48.8358 109.564 46.9731 110.807C45.1105 112.051 43.5307 113.672 42.3365 115.567C39.7947 119.614 38.8198 124.451 39.5952 129.167C40.3707 133.883 42.8431 138.153 46.5471 141.173C48.2785 142.597 50.2939 143.634 52.4586 144.216C54.6233 144.798 56.8873 144.911 59.0991 144.547C61.3109 144.183 63.4195 143.351 65.2839 142.107C67.1483 140.862 68.7253 139.234 69.9096 137.331C72.4927 133.3 73.4708 128.448 72.6508 123.731C71.1607 114.669 63.8081 108.146 55.6451 108.146Z" fill="white"/>
<path d="M76.3415 139.554C76.1855 139.554 76.0335 139.505 75.9075 139.413C75.7815 139.321 75.6881 139.191 75.6407 139.043C75.5933 138.894 75.5944 138.734 75.6439 138.586C75.6934 138.438 75.7887 138.31 75.9159 138.22L82.6 133.484C82.759 133.371 82.9563 133.326 83.1484 133.359C83.3405 133.392 83.5118 133.499 83.6244 133.658C83.7371 133.817 83.782 134.015 83.7492 134.207C83.7165 134.399 83.6087 134.57 83.4497 134.683L76.7656 139.419C76.6418 139.507 76.4935 139.554 76.3415 139.554Z" fill="#393D7F"/>
<path d="M108.732 93.807H94.1224C93.8029 94.6205 93.481 95.433 93.1472 96.2406H107.474C107.923 95.4447 108.331 94.6279 108.732 93.807Z" fill="black"/>
<path d="M56.2939 123.79C56.9969 124.195 57.7001 124.6 58.4037 125.004L60.3195 121.797C59.7624 121.157 59.2009 120.52 58.6127 119.909L56.2939 123.79Z" fill="black"/>
<path d="M79.8926 87.9568L68.1563 87.7665C67.525 87.6161 66.9793 87.221 66.6393 86.6682C66.2993 86.1155 66.1928 85.4503 66.3433 84.819C66.4937 84.1877 66.8888 83.642 67.4416 83.302C67.9943 82.962 68.6595 82.8556 69.2908 83.006L80.1885 85.6031C80.3409 85.6395 80.4847 85.7055 80.6116 85.7973C80.7385 85.8892 80.8461 86.0052 80.9282 86.1387C81.0103 86.2721 81.0653 86.4205 81.09 86.5752C81.1148 86.7299 81.1088 86.888 81.0725 87.0404C81.0096 87.3047 80.8583 87.5395 80.6437 87.7061C80.4292 87.8727 80.1642 87.9612 79.8926 87.9568Z" fill="#393D7F"/>
<path d="M88.2308 135.517C88.9169 132.63 87.1323 129.733 84.2448 129.047C81.3573 128.361 78.4603 130.145 77.7742 133.033C77.0882 135.92 78.8728 138.817 81.7603 139.503C84.6478 140.189 87.5447 138.405 88.2308 135.517Z" fill="#FFC840"/>
<path d="M83.0027 138.547C82.1579 138.547 81.332 138.296 80.6295 137.827C79.927 137.358 79.3795 136.691 79.0562 135.91C78.7328 135.13 78.6482 134.271 78.813 133.442C78.9778 132.613 79.3846 131.852 79.9819 131.255C80.5793 130.657 81.3404 130.251 82.169 130.086C82.9976 129.921 83.8564 130.005 84.637 130.329C85.4175 130.652 86.0847 131.199 86.5541 131.902C87.0235 132.604 87.274 133.43 87.2741 134.275C87.2727 135.407 86.8223 136.493 86.0216 137.294C85.2208 138.095 84.1352 138.545 83.0027 138.547ZM83.0027 130.187C82.1942 130.187 81.4038 130.427 80.7315 130.876C80.0593 131.325 79.5353 131.964 79.2259 132.711C78.9165 133.458 78.8355 134.28 78.9932 135.073C79.1509 135.866 79.5403 136.594 80.112 137.166C80.6837 137.737 81.4121 138.127 82.2051 138.285C82.998 138.442 83.82 138.361 84.5669 138.052C85.3139 137.742 85.9523 137.218 86.4015 136.546C86.8507 135.874 87.0904 135.084 87.0903 134.275C87.0891 133.191 86.658 132.152 85.8917 131.386C85.1254 130.62 84.0864 130.189 83.0027 130.187Z" fill="#393D7F"/>
<path d="M83.0061 134.812C82.8501 134.812 82.6981 134.763 82.5721 134.671C82.4461 134.579 82.3526 134.449 82.3052 134.301C82.2579 134.152 82.259 133.992 82.3085 133.844C82.358 133.696 82.4532 133.568 82.5805 133.478L87.3319 130.111C87.4107 130.056 87.4996 130.016 87.5937 129.994C87.6878 129.973 87.7852 129.97 87.8803 129.987C87.9755 130.003 88.0665 130.038 88.1481 130.089C88.2298 130.14 88.3006 130.207 88.3564 130.286C88.4122 130.365 88.4519 130.454 88.4733 130.548C88.4947 130.642 88.4974 130.739 88.4812 130.834C88.4649 130.93 88.4301 131.021 88.3787 131.102C88.3274 131.184 88.2604 131.255 88.1816 131.31L83.4302 134.677C83.3063 134.765 83.1581 134.812 83.0061 134.812Z" fill="#393D7F"/>
<path d="M90.3049 131.744L84.2855 130.799C83.9915 130.753 83.7279 130.592 83.5526 130.352C83.3774 130.111 83.3048 129.811 83.351 129.517C83.3738 129.371 83.4251 129.232 83.5019 129.106C83.5787 128.98 83.6796 128.871 83.7986 128.784C83.9177 128.697 84.0527 128.635 84.1959 128.6C84.3392 128.566 84.4878 128.56 84.6334 128.583L90.6528 129.527C90.7983 129.55 90.938 129.601 91.0637 129.678C91.1895 129.755 91.2989 129.856 91.3856 129.975C91.4724 130.094 91.5349 130.229 91.5695 130.372C91.6041 130.515 91.6101 130.664 91.5873 130.81C91.5412 131.104 91.3801 131.367 91.1396 131.542C90.8991 131.718 90.5989 131.79 90.3049 131.744Z" fill="#3B82FE"/>
<path d="M84.5512 134.275C84.5512 134.581 84.4604 134.881 84.2902 135.135C84.1201 135.39 83.8782 135.589 83.5952 135.706C83.3122 135.823 83.0008 135.854 82.7004 135.794C82.4 135.734 82.124 135.587 81.9075 135.37C81.6909 135.154 81.5434 134.878 81.4836 134.577C81.4239 134.277 81.4545 133.965 81.5717 133.682C81.689 133.399 81.8875 133.157 82.1421 132.987C82.3968 132.817 82.6963 132.726 83.0026 132.726C83.2059 132.726 83.4073 132.766 83.5952 132.844C83.7831 132.922 83.9538 133.036 84.0976 133.18C84.2414 133.324 84.3555 133.494 84.4333 133.682C84.5112 133.87 84.5512 134.072 84.5512 134.275Z" fill="#393D7F"/>
<path d="M131.149 126.449C131.149 126.893 131.017 127.327 130.771 127.696C130.524 128.065 130.174 128.353 129.763 128.523C129.353 128.693 128.902 128.737 128.466 128.65C128.031 128.564 127.631 128.35 127.317 128.036C127.003 127.722 126.789 127.322 126.703 126.887C126.616 126.451 126.661 126 126.831 125.59C127 125.18 127.288 124.829 127.657 124.583C128.026 124.336 128.46 124.204 128.904 124.204C129.5 124.204 130.071 124.441 130.492 124.862C130.912 125.283 131.149 125.854 131.149 126.449Z" fill="#FFC840"/>
<path d="M117.063 94.8938L117.374 96.5049C117.419 96.7314 117.541 96.9354 117.719 97.0822C117.897 97.229 118.121 97.3097 118.352 97.3104C118.406 97.3105 118.461 97.3059 118.515 97.2966C118.506 97.2493 118.494 97.2028 118.486 97.1554L118.478 97.1161C118.271 97.148 118.059 97.0987 117.887 96.9785C117.715 96.8582 117.596 96.6763 117.554 96.4705L117.243 94.8594C117.204 94.6499 117.248 94.4331 117.366 94.2559C117.485 94.0787 117.668 93.9552 117.877 93.9121L117.902 93.907L117.87 93.7261L117.841 93.7319C117.585 93.7847 117.359 93.9362 117.214 94.1536C117.068 94.3709 117.014 94.6368 117.063 94.8938Z" fill="#393D7F"/>
<path d="M117.661 92.5282L115.054 92.8271C114.998 92.8336 114.941 92.8289 114.886 92.8133C114.832 92.7977 114.781 92.7716 114.736 92.7363C114.692 92.701 114.655 92.6573 114.627 92.6078C114.6 92.5582 114.582 92.5037 114.576 92.4473C114.569 92.391 114.574 92.3339 114.59 92.2794C114.605 92.2249 114.631 92.174 114.667 92.1296C114.702 92.0852 114.746 92.0481 114.795 92.0206C114.845 91.9931 114.899 91.9756 114.956 91.9692L117.563 91.6702C117.676 91.6571 117.791 91.6898 117.88 91.7611C117.97 91.8323 118.028 91.9362 118.041 92.05C118.054 92.1638 118.021 92.2781 117.95 92.3678C117.879 92.4574 117.775 92.5151 117.661 92.5282Z" fill="#FFC840"/>
<path d="M75.6373 92.9482L73.0689 93.4859C72.9568 93.5094 72.8399 93.4874 72.7441 93.4247C72.6482 93.362 72.5812 93.2638 72.5577 93.1517C72.5461 93.0962 72.5456 93.039 72.5561 92.9833C72.5666 92.9275 72.5879 92.8744 72.619 92.827C72.65 92.7795 72.6901 92.7386 72.7369 92.7066C72.7837 92.6747 72.8364 92.6522 72.8919 92.6406L75.4603 92.1029C75.5724 92.0794 75.6892 92.1015 75.785 92.1641C75.8809 92.2268 75.9479 92.325 75.9714 92.437C75.9949 92.5491 75.9729 92.666 75.9102 92.7618C75.8475 92.8577 75.7494 92.9247 75.6373 92.9482Z" fill="#FFC840"/>
<path d="M119.364 101.089L116.824 101.747C116.713 101.776 116.596 101.76 116.497 101.702C116.398 101.643 116.327 101.549 116.298 101.438V101.438C116.284 101.383 116.28 101.326 116.288 101.269C116.296 101.213 116.315 101.159 116.344 101.11C116.373 101.062 116.411 101.019 116.456 100.985C116.501 100.951 116.553 100.926 116.608 100.911L119.148 100.253C119.203 100.239 119.26 100.236 119.316 100.244C119.372 100.252 119.426 100.271 119.475 100.299C119.524 100.328 119.567 100.366 119.601 100.411C119.635 100.457 119.66 100.508 119.674 100.563C119.688 100.618 119.692 100.675 119.684 100.731C119.676 100.788 119.657 100.842 119.628 100.89C119.6 100.939 119.562 100.982 119.516 101.016C119.471 101.05 119.419 101.075 119.364 101.089Z" fill="#FFC840"/>
<path d="M93.1484 50.5389L98.4815 47.0663C98.5478 47.0231 98.6224 46.9939 98.7004 46.9805C98.7785 46.9671 98.8585 46.9698 98.9355 46.9884C99.0125 47.0071 99.0848 47.0413 99.1481 47.0889C99.2114 47.1365 99.2643 47.1966 99.3036 47.2654L101.99 51.9768C102.055 52.0904 102.08 52.2224 102.06 52.3517C102.041 52.4809 101.978 52.5998 101.883 52.6891L97.9552 56.366L93.1484 50.4709" fill="#936767"/>
<path d="M101.99 51.9768L100.355 49.1085C100.194 49.8758 100.035 50.6437 99.9211 51.4198C99.8079 52.1906 99.7365 52.9639 99.6119 53.7339C99.5357 54.1336 99.4892 54.5385 99.4729 54.9451L101.883 52.6891C101.978 52.5997 102.041 52.4808 102.06 52.3516C102.08 52.2224 102.055 52.0903 101.99 51.9768Z" fill="black"/>
<path d="M107.454 49.7174L106.801 47.7266C106.773 47.6424 106.753 47.5563 106.739 47.469C106.307 44.8399 104.577 42.9114 102.667 43.0557C100.598 43.2119 99.1027 45.7427 99.3266 48.7082C99.5506 51.6738 101.41 53.9511 103.479 53.7949C105.108 53.6719 106.378 52.0739 106.736 49.953L107.175 50.0356C107.217 50.0434 107.26 50.0403 107.3 50.0263C107.341 50.0124 107.377 49.9882 107.405 49.956C107.433 49.9239 107.452 49.885 107.461 49.8432C107.47 49.8014 107.467 49.758 107.454 49.7174Z" fill="#936767"/>
<path d="M102.403 53.7491C102.395 53.7491 102.386 53.7479 102.378 53.7457C100.678 53.2746 99.8969 51.2007 99.8646 51.1127C99.8604 51.1014 99.8585 51.0894 99.859 51.0773C99.8594 51.0653 99.8623 51.0534 99.8673 51.0425C99.8724 51.0315 99.8795 51.0217 99.8884 51.0135C99.8972 51.0053 99.9076 50.999 99.9189 50.9948C99.9302 50.9906 99.9422 50.9887 99.9543 50.9892C99.9663 50.9897 99.9781 50.9925 99.9891 50.9976C100 51.0026 100.01 51.0098 100.018 51.0186C100.026 51.0275 100.033 51.0378 100.037 51.0491C100.044 51.0698 100.819 53.123 102.427 53.5688C102.449 53.5747 102.467 53.5881 102.48 53.6067C102.492 53.6252 102.497 53.6476 102.494 53.6696C102.491 53.6917 102.48 53.7119 102.463 53.7265C102.447 53.7411 102.425 53.7491 102.403 53.7491Z" fill="black"/>
<path d="M105.325 48.2683C105.044 48.269 104.769 48.1942 104.527 48.0516C104.285 47.9091 104.086 47.7041 103.951 47.4582C103.94 47.4362 103.939 47.411 103.947 47.388C103.955 47.365 103.972 47.3462 103.994 47.3356C104.016 47.3251 104.041 47.3237 104.064 47.3318C104.087 47.3399 104.106 47.3568 104.116 47.3788C104.136 47.4198 104.622 48.3894 105.911 47.9884C105.934 47.9813 105.959 47.9836 105.981 47.995C106.002 48.0063 106.018 48.0257 106.026 48.049C106.033 48.0722 106.03 48.0973 106.019 48.1188C106.008 48.1404 105.989 48.1565 105.965 48.1639C105.758 48.2309 105.542 48.2661 105.325 48.2683Z" fill="black"/>
<path d="M100.517 46.2763C100.517 46.2763 102.323 46.0332 103.199 44.8485C103.286 44.7275 103.415 44.6447 103.561 44.6177C103.707 44.5907 103.858 44.6215 103.982 44.7037C104.245 44.88 104.546 44.9916 104.861 45.0294C105.175 45.0672 105.494 45.0302 105.792 44.9214C107.161 44.4638 106.458 41.3335 105.029 40.3132C104.431 39.8697 103.712 39.6172 102.968 39.5889C102.224 39.5605 101.488 39.7577 100.857 40.1545C99.8372 40.7667 98.6921 40.7182 98.1594 40.3812C97.0484 39.6783 95.3252 39.2476 94.8264 40.744C94.2349 42.5184 96.8443 42.8073 96.9577 44.1677C97.071 45.5281 97.0937 47.0472 100.517 46.2763Z" fill="#260C0E"/>
<path d="M101.175 46.2309C101.175 46.5583 101.078 46.8783 100.896 47.1505C100.714 47.4226 100.455 47.6348 100.153 47.7601C99.8506 47.8853 99.5178 47.9181 99.1967 47.8542C98.8757 47.7904 98.5808 47.6327 98.3493 47.4013C98.1178 47.1698 97.9602 46.8749 97.8963 46.5538C97.8324 46.2327 97.8652 45.8999 97.9905 45.5975C98.1158 45.2951 98.3279 45.0366 98.6001 44.8547C98.8723 44.6728 99.1923 44.5757 99.5197 44.5757C99.9586 44.5757 100.38 44.7501 100.69 45.0605C101 45.3709 101.175 45.7919 101.175 46.2309Z" fill="#936767"/>
<path d="M101.175 46.3228C101.15 46.3227 101.127 46.3131 101.11 46.2958C101.093 46.2786 101.083 46.2553 101.083 46.2309C101.082 45.8164 100.918 45.4191 100.625 45.126C100.331 44.8329 99.9341 44.668 99.5196 44.6675C99.4952 44.6675 99.4719 44.6579 99.4546 44.6406C99.4374 44.6234 99.4277 44.6 99.4277 44.5757C99.4277 44.5513 99.4374 44.528 99.4546 44.5107C99.4719 44.4935 99.4952 44.4838 99.5196 44.4838C99.9828 44.4843 100.427 44.6685 100.754 44.9961C101.082 45.3236 101.266 45.7677 101.267 46.2309C101.267 46.2553 101.257 46.2786 101.24 46.2958C101.223 46.3131 101.199 46.3227 101.175 46.3228Z" fill="black"/>
<path d="M99.7238 46.7764C99.7045 46.7764 99.6856 46.7703 99.67 46.7589C99.6543 46.7475 99.6427 46.7315 99.6367 46.7131L99.2057 45.398C99.1982 45.3749 99.2001 45.3497 99.2111 45.328C99.2221 45.3063 99.2412 45.2898 99.2644 45.2823C99.2875 45.2747 99.3127 45.2766 99.3344 45.2876C99.3561 45.2986 99.3725 45.3178 99.3801 45.3409L99.811 46.656C99.8186 46.6791 99.8167 46.7043 99.8058 46.726C99.7948 46.7477 99.7757 46.7642 99.7526 46.7719C99.7433 46.7748 99.7336 46.7763 99.7238 46.7764Z" fill="black"/>
<path d="M105.79 52.3542C106.129 51.8641 106.386 51.322 106.551 50.7492L104.436 50.0705C104.416 50.0641 104.395 50.0625 104.375 50.0659C104.355 50.0693 104.336 50.0776 104.319 50.09C104.303 50.1024 104.29 50.1186 104.281 50.1372C104.273 50.1558 104.268 50.1762 104.269 50.1967C104.282 50.6663 104.433 51.1217 104.703 51.5056C104.974 51.8895 105.352 52.1847 105.79 52.3542Z" fill="white"/>
<path d="M103.663 45.2102C103.641 45.2102 103.618 45.2016 103.602 45.1861C103.585 45.1707 103.574 45.1494 103.572 45.1266C103.472 44.0401 103.023 43.0152 102.291 42.2053C101.887 41.7849 101.448 41.3993 100.979 41.0526C100.305 40.5823 99.7137 40.0032 99.2296 39.3391C99.2163 39.3186 99.2118 39.2937 99.2169 39.2699C99.222 39.2461 99.2364 39.2253 99.2568 39.212C99.2773 39.1988 99.3022 39.1943 99.326 39.1994C99.3498 39.2045 99.3707 39.2189 99.3839 39.2393C99.8576 39.8858 100.435 40.4496 101.092 40.908C101.57 41.261 102.016 41.6537 102.428 42.0819C103.185 42.9215 103.651 43.9839 103.755 45.1101C103.756 45.1221 103.755 45.1342 103.751 45.1458C103.748 45.1573 103.742 45.168 103.734 45.1773C103.726 45.1865 103.717 45.1942 103.706 45.1998C103.695 45.2053 103.684 45.2088 103.672 45.2098L103.663 45.2102Z" fill="#433036"/>
<path d="M105.054 45.6963C105.036 45.6963 105.019 45.6911 105.004 45.6815C104.989 45.6718 104.977 45.658 104.97 45.6417C104.963 45.6255 104.96 45.6075 104.963 45.59C104.966 45.5725 104.974 45.5561 104.986 45.5429C105.104 45.3772 105.165 45.1774 105.16 44.9738C105.23 43.7607 104.987 42.55 104.453 41.4581C103.919 40.3654 103.175 39.3886 102.264 38.5837C102.246 38.5673 102.235 38.5444 102.234 38.5201C102.232 38.4957 102.241 38.4719 102.257 38.4538C102.274 38.4357 102.296 38.4249 102.321 38.4236C102.345 38.4224 102.369 38.4309 102.387 38.4473C103.317 39.2684 104.075 40.2647 104.619 41.3792C105.166 42.4995 105.415 43.7418 105.343 44.9863C105.348 45.2313 105.27 45.4706 105.122 45.666C105.113 45.6755 105.103 45.6832 105.091 45.6884C105.079 45.6936 105.067 45.6963 105.054 45.6963Z" fill="#433036"/>
<path d="M102.955 46.9112C102.94 46.9112 102.925 46.9075 102.912 46.9005C102.898 46.8935 102.887 46.8833 102.879 46.8709C102.475 46.2754 102.058 45.6812 101.637 45.105C101.214 44.4834 100.721 43.913 100.167 43.4052C99.9252 43.2029 99.6733 43.0132 99.412 42.8369C97.8453 41.7041 96.1129 40.8203 94.2763 40.2166C94.2647 40.2131 94.254 40.2073 94.2447 40.1996C94.2355 40.1919 94.2278 40.1825 94.2221 40.1719C94.2165 40.1612 94.213 40.1496 94.2118 40.1376C94.2107 40.1256 94.2119 40.1135 94.2155 40.1019C94.219 40.0904 94.2248 40.0797 94.2324 40.0704C94.2401 40.0611 94.2495 40.0534 94.2602 40.0478C94.2708 40.0422 94.2825 40.0387 94.2945 40.0375C94.3065 40.0364 94.3186 40.0376 94.3301 40.0411C96.1849 40.6503 97.9344 41.5424 99.5168 42.6858C99.7832 42.8659 100.04 43.0595 100.287 43.266C100.851 43.7837 101.354 44.3644 101.786 44.9966C102.207 45.5746 102.626 46.1706 103.031 46.7679C103.04 46.7817 103.046 46.7978 103.046 46.8145C103.047 46.8312 103.044 46.8478 103.036 46.8625C103.028 46.8773 103.016 46.8896 103.002 46.8982C102.988 46.9068 102.971 46.9113 102.955 46.9112Z" fill="#433036"/>
<path d="M69.251 68.156C69.251 68.156 76.7544 52.8307 90.0414 49.9155C91.535 49.5851 93.0949 49.738 94.496 50.3519C95.897 50.9659 97.0668 52.0092 97.8363 53.3312L97.8535 53.3609C98.0673 53.7292 98.1898 54.1433 98.2109 54.5686C98.2321 54.994 98.1511 55.4182 97.9749 55.8059L88.5686 76.4998L69.251 68.156Z" fill="#FC6363"/>
<path d="M88.3916 74.3131C85.5596 73.7789 82.725 73.258 79.8879 72.7505L88.5685 76.4998L89.4691 74.5183C89.1099 74.4503 88.7509 74.3809 88.3916 74.3131Z" fill="black"/>
<path d="M80.2392 56.5209C83.7454 54.4818 87.0919 52.203 90.3912 49.8533C90.2745 49.8729 90.1577 49.8899 90.0412 49.9155C84.0114 51.2385 79.1729 55.1172 75.686 58.9596C77.2315 58.2002 78.7492 57.3873 80.2392 56.5209Z" fill="black"/>
<path d="M69.2464 29.2835L73.3114 24.4868C73.3516 24.428 73.4034 24.378 73.4637 24.3399C73.5239 24.3018 73.5914 24.2764 73.6618 24.2653C73.7322 24.2542 73.8041 24.2576 73.8732 24.2753C73.9423 24.293 74.007 24.3247 74.0633 24.3683L75.6568 27.4047C75.7498 27.4767 75.8159 27.5779 75.8443 27.6921C75.8728 27.8062 75.8619 27.9266 75.8135 28.0338L73.8202 32.4465L69.2229 29.227" fill="#F69C5E"/>
<path d="M74.2837 28.7071C74.4203 29.5125 74.4619 30.3312 74.4076 31.1463L75.0838 29.6492L74.2837 28.7071Z" fill="black"/>
<path d="M80.2397 27.1468C80.2015 26.8996 80.189 26.6492 80.2025 26.3995C80.2233 26.0851 80.2221 25.7697 80.1986 25.4556C79.997 22.7867 78.3241 20.737 76.462 20.8777C74.5998 21.0183 73.2537 23.2959 73.4553 25.9649C73.6569 28.6338 75.3298 30.6834 77.1919 30.5428C78.3268 30.4571 79.2676 29.5751 79.7856 28.297L80.1391 28.4302C80.17 28.4419 80.2035 28.4453 80.2361 28.4401C80.2688 28.4349 80.2995 28.4213 80.3253 28.4006C80.351 28.3799 80.371 28.3528 80.3831 28.3221C80.3952 28.2913 80.3992 28.2579 80.3944 28.2252L80.2397 27.1468Z" fill="#F69C5E"/>
<path d="M79.3012 22.589L79.301 22.5837C79.053 22.1381 78.7206 21.745 78.3223 21.4266C78.7068 21.7611 79.037 22.1532 79.3012 22.589Z" fill="#433036"/>
<path d="M76.0814 20.3614C76.0616 20.3576 76.0424 20.3583 76.0227 20.3555C76.8662 20.5165 77.6564 20.8845 78.3224 21.4264C77.6837 20.878 76.91 20.5103 76.0814 20.3614Z" fill="#433036"/>
<path d="M79.3011 22.589C79.0369 22.1532 78.7067 21.7611 78.3222 21.4266C77.6561 20.8846 76.8659 20.5167 76.0224 20.3557C75.2662 20.2056 74.4913 20.1736 73.7253 20.2607C69.1944 20.7294 66.1445 22.9456 62.6982 19.4312C62.1073 18.8195 61.4629 18.2619 60.7726 17.7652C60.0885 17.2858 59.2989 16.9785 58.4708 16.8694C57.6427 16.7604 56.8004 16.8528 56.0156 17.1388C55.2308 17.4248 54.5266 17.8959 53.9628 18.5122C53.399 19.1285 52.9922 19.8717 52.777 20.6788L52.5771 21.4225C52.1877 22.866 52.1648 24.3839 52.5104 25.8385C52.856 27.2931 53.5592 28.6384 54.5563 29.7525C55.5533 30.8666 56.8127 31.7142 58.2202 32.2184C59.6277 32.7227 61.1389 32.8676 62.6165 32.6401C62.6889 32.6287 62.7615 32.6168 62.8342 32.6044C65.1161 32.1919 67.3508 31.5514 69.5046 30.6925C69.415 30.4378 69.3314 30.1798 69.2664 29.9182C69.2315 29.7775 69.2028 29.6371 69.1804 29.497C69.3509 29.4849 69.5299 29.4659 69.7269 29.4326C73.2797 28.8329 73.9095 26.2084 73.9476 24.5813L75.2138 24.4647C75.2138 24.4647 77.6787 25.4357 79.4032 24.3968C79.5932 24.2856 79.7694 24.1522 79.928 23.9996C79.7801 23.5045 79.5694 23.0305 79.3011 22.589Z" fill="#433036"/>
<path d="M68.0508 29.7452C67.8515 29.7452 67.6516 29.7398 67.4511 29.729C66.1693 29.6198 64.9001 29.3944 63.6591 29.0555C62.8412 28.8586 61.9955 28.6548 61.1546 28.5227C58.8795 28.1687 56.5546 28.3148 54.3417 28.9506C54.3301 28.954 54.318 28.955 54.306 28.9536C54.294 28.9523 54.2824 28.9486 54.2719 28.9428C54.2505 28.931 54.2347 28.9112 54.228 28.8878C54.2212 28.8644 54.224 28.8393 54.2358 28.818C54.2476 28.7966 54.2673 28.7808 54.2907 28.7741C56.5294 28.1308 58.8814 27.9831 61.1829 28.3412C62.0313 28.4745 62.8808 28.679 63.7022 28.8771C64.9324 29.2129 66.1905 29.4367 67.4611 29.5457C71.0382 29.7384 74.4503 28.1089 77.459 26.6693C77.4699 26.664 77.4818 26.661 77.4938 26.6603C77.5059 26.6596 77.518 26.6614 77.5294 26.6654C77.5408 26.6694 77.5513 26.6756 77.5603 26.6837C77.5693 26.6918 77.5766 26.7016 77.5818 26.7125C77.587 26.7234 77.59 26.7353 77.5906 26.7473C77.5912 26.7594 77.5894 26.7715 77.5854 26.7829C77.5813 26.7943 77.575 26.8047 77.5669 26.8137C77.5587 26.8226 77.5489 26.8299 77.538 26.835C74.6771 28.2039 71.4558 29.7452 68.0508 29.7452Z" fill="#6B515A"/>
<path d="M69.0973 26.8081C66.9873 26.7422 64.8875 26.4877 62.8229 26.0476C59.9356 25.5215 56.9502 24.9781 54.061 25.5021C53.3751 25.5872 52.7236 25.8507 52.1713 26.2662C52.1528 26.282 52.1289 26.2898 52.1047 26.288C52.0805 26.2862 52.058 26.2749 52.0422 26.2566C52.0263 26.2382 52.0183 26.2143 52.02 26.1901C52.0217 26.1659 52.0329 26.1434 52.0511 26.1274C52.6279 25.6896 53.3099 25.4116 54.0283 25.3213C56.9498 24.791 59.9524 25.338 62.8558 25.8667C65.7929 26.4015 68.8303 26.9545 71.7631 26.3814C74.2773 25.8898 76.9799 24.1869 79.5261 22.4198C79.5461 22.406 79.5708 22.4007 79.5947 22.4051C79.6186 22.4094 79.6398 22.4231 79.6537 22.4431C79.6675 22.4631 79.6729 22.4877 79.6686 22.5117C79.6643 22.5356 79.6507 22.5569 79.6308 22.5708C77.0685 24.3492 74.3458 26.0637 71.7982 26.5615C70.9079 26.7306 70.0034 26.8131 69.0973 26.8081Z" fill="#6B515A"/>
<path d="M69.2591 23.8786C68.9555 23.8786 68.6536 23.869 68.3534 23.8498C65.9937 23.6981 63.7084 22.9355 61.4984 22.1979C59.6055 21.566 57.6483 20.9128 55.6531 20.6468C53.9884 20.4248 52.7174 20.5951 51.7673 21.1676C51.7464 21.1802 51.7215 21.1839 51.6978 21.1781C51.6742 21.1722 51.6539 21.1572 51.6413 21.1364C51.6288 21.1155 51.625 21.0905 51.6309 21.0669C51.6367 21.0433 51.6517 21.023 51.6726 21.0104C52.6595 20.4155 53.9694 20.237 55.6775 20.4645C57.6899 20.733 59.6555 21.3892 61.5565 22.0236C63.7554 22.7575 66.0292 23.5164 68.3653 23.6664C72.0309 23.9009 75.9499 22.6796 80.015 20.0335C80.0251 20.0269 80.0364 20.0223 80.0483 20.02C80.0602 20.0177 80.0724 20.0178 80.0842 20.0203C80.0961 20.0228 80.1073 20.0275 80.1173 20.0344C80.1273 20.0412 80.1359 20.0499 80.1425 20.0601C80.1491 20.0702 80.1537 20.0815 80.1559 20.0934C80.1581 20.1053 80.158 20.1175 80.1554 20.1294C80.1529 20.1412 80.1481 20.1525 80.1412 20.1624C80.1344 20.1724 80.1256 20.1809 80.1154 20.1875C76.3482 22.6393 72.7009 23.8786 69.2591 23.8786Z" fill="#6B515A"/>
<path d="M75.9343 24.4776C75.9343 24.7316 75.859 24.98 75.7178 25.1912C75.5767 25.4025 75.376 25.5671 75.1413 25.6643C74.9066 25.7616 74.6483 25.787 74.3992 25.7374C74.15 25.6879 73.9211 25.5655 73.7415 25.3859C73.5618 25.2062 73.4395 24.9774 73.3899 24.7282C73.3404 24.479 73.3658 24.2207 73.463 23.986C73.5602 23.7513 73.7249 23.5507 73.9361 23.4095C74.1474 23.2684 74.3957 23.1931 74.6498 23.1931C74.9904 23.1931 75.3172 23.3284 75.5581 23.5693C75.799 23.8102 75.9343 24.1369 75.9343 24.4776Z" fill="#F69C5E"/>
<path d="M75.809 25.1387C75.793 25.1386 75.7772 25.135 75.7627 25.1282C75.7371 25.1159 75.7175 25.094 75.7081 25.0672C75.6987 25.0404 75.7003 25.011 75.7125 24.9854C75.7885 24.827 75.8278 24.6534 75.8273 24.4777C75.827 24.1655 75.7028 23.8661 75.482 23.6454C75.2612 23.4246 74.9619 23.3004 74.6497 23.3C74.6213 23.3 74.5941 23.2888 74.574 23.2687C74.554 23.2487 74.5427 23.2215 74.5427 23.1931C74.5427 23.1648 74.554 23.1376 74.574 23.1175C74.5941 23.0974 74.6213 23.0862 74.6497 23.0862C75.0186 23.0866 75.3723 23.2334 75.6331 23.4942C75.894 23.7551 76.0407 24.1088 76.0411 24.4777C76.0417 24.6855 75.9954 24.8907 75.9055 25.078C75.8968 25.0961 75.8831 25.1115 75.866 25.1222C75.8489 25.133 75.8291 25.1386 75.809 25.1387Z" fill="black"/>
<path d="M74.8083 24.9364C74.7858 24.9363 74.7638 24.9292 74.7456 24.916C74.7274 24.9028 74.7138 24.8842 74.7068 24.8628L74.3723 23.8423C74.3679 23.829 74.3662 23.8149 74.3672 23.8009C74.3683 23.7869 74.3721 23.7732 74.3784 23.7607C74.3847 23.7481 74.3935 23.7369 74.4041 23.7278C74.4148 23.7186 74.4271 23.7116 74.4405 23.7072C74.4538 23.7029 74.4679 23.7011 74.4819 23.7022C74.4959 23.7033 74.5096 23.7071 74.5221 23.7134C74.5346 23.7198 74.5458 23.7285 74.5549 23.7392C74.5641 23.7499 74.571 23.7622 74.5754 23.7756L74.9098 24.7961C74.9187 24.823 74.9164 24.8523 74.9036 24.8776C74.8909 24.9029 74.8685 24.9221 74.8416 24.9309C74.8309 24.9346 74.8196 24.9364 74.8083 24.9364Z" fill="black"/>
<path d="M75.3275 29.9906C75.3061 29.9906 75.2853 29.9843 75.2676 29.9723C74.8389 29.656 74.4771 29.258 74.203 28.8013C74.188 28.7773 74.1832 28.7484 74.1895 28.7208C74.1958 28.6933 74.2127 28.6693 74.2366 28.6542C74.2606 28.6392 74.2895 28.6342 74.317 28.6403C74.3446 28.6465 74.3687 28.6634 74.3838 28.6872C74.6423 29.1189 74.9833 29.4953 75.3874 29.7951C75.4064 29.8079 75.4208 29.8265 75.4284 29.848C75.436 29.8696 75.4365 29.8931 75.4298 29.915C75.4231 29.9369 75.4095 29.9561 75.3911 29.9697C75.3727 29.9833 75.3504 29.9906 75.3275 29.9906Z" fill="black"/>
<path d="M79.2511 26.7739C78.9783 26.7868 78.7091 26.7085 78.4858 26.5512C78.2626 26.3939 78.0982 26.1667 78.0185 25.9056C78.0151 25.892 78.0145 25.8779 78.0166 25.864C78.0187 25.8502 78.0235 25.8369 78.0307 25.8249C78.0379 25.8129 78.0474 25.8025 78.0587 25.7942C78.07 25.7859 78.0828 25.7799 78.0964 25.7766C78.1239 25.7699 78.1528 25.7744 78.1771 25.7889C78.2013 25.8034 78.2188 25.8269 78.226 25.8542C78.3027 26.097 78.4668 26.3028 78.6864 26.4316C78.906 26.5605 79.1657 26.6034 79.4151 26.552C79.4292 26.55 79.4435 26.5509 79.4572 26.5547C79.471 26.5586 79.4837 26.5652 79.4947 26.5743C79.5057 26.5833 79.5147 26.5946 79.5212 26.6073C79.5276 26.62 79.5313 26.6339 79.532 26.6481C79.5346 26.6763 79.526 26.7044 79.508 26.7262C79.49 26.7481 79.4641 26.7619 79.4359 26.7648C79.3716 26.771 79.3099 26.7739 79.2511 26.7739Z" fill="black"/>
<path d="M77.9725 26.3955C77.9469 26.3955 77.9221 26.3862 77.9027 26.3694C77.8833 26.3527 77.8706 26.3295 77.8669 26.3041C77.8631 26.2788 77.8686 26.2529 77.8823 26.2313C77.8961 26.2096 77.9171 26.1936 77.9416 26.1862L78.1907 26.1113C78.2178 26.1033 78.2469 26.1064 78.2718 26.1198C78.2967 26.1333 78.3152 26.156 78.3234 26.1831C78.3315 26.2102 78.3286 26.2393 78.3153 26.2643C78.302 26.2892 78.2794 26.3079 78.2524 26.3162L78.0033 26.391C77.9933 26.394 77.9829 26.3955 77.9725 26.3955Z" fill="black"/>
<path d="M78.263 26.7607C78.2427 26.7608 78.2229 26.755 78.2059 26.7442C78.194 26.7367 78.1837 26.727 78.1756 26.7155C78.1675 26.7041 78.1617 26.6912 78.1586 26.6775C78.1555 26.6638 78.1552 26.6496 78.1576 26.6358C78.1599 26.622 78.165 26.6088 78.1725 26.5969L78.3211 26.3608C78.3286 26.3489 78.3383 26.3386 78.3497 26.3305C78.3612 26.3224 78.3741 26.3166 78.3878 26.3135C78.4015 26.3104 78.4156 26.31 78.4294 26.3124C78.4433 26.3147 78.4565 26.3198 78.4684 26.3273C78.4803 26.3347 78.4905 26.3445 78.4987 26.3559C78.5068 26.3674 78.5125 26.3803 78.5156 26.394C78.5188 26.4076 78.5192 26.4218 78.5168 26.4356C78.5144 26.4495 78.5094 26.4627 78.5019 26.4746L78.3534 26.7107C78.3438 26.726 78.3305 26.7386 78.3146 26.7474C78.2988 26.7561 78.281 26.7607 78.263 26.7607Z" fill="black"/>
<path d="M78.8719 29.4565C78.8617 29.4564 78.8515 29.455 78.8418 29.4521C78.6058 29.3893 78.3959 29.2533 78.2421 29.0637C78.0883 28.8741 77.9985 28.6407 77.9856 28.3969C77.9882 28.3694 78.0003 28.3437 78.0198 28.3242C78.0393 28.3046 78.065 28.2925 78.0925 28.2899C78.1207 28.29 78.1477 28.3012 78.1677 28.321C78.1877 28.3409 78.1991 28.3678 78.1994 28.396C78.2098 28.5944 78.2837 28.7842 78.4102 28.9374C78.5367 29.0907 78.7091 29.1992 78.902 29.2469C78.9267 29.2542 78.9479 29.2701 78.9618 29.2917C78.9757 29.3133 78.9814 29.3393 78.9777 29.3647C78.9741 29.3902 78.9613 29.4135 78.9419 29.4303C78.9225 29.4472 78.8976 29.4565 78.8719 29.4565Z" fill="#C4513B"/>
<path d="M21.8562 95.2371L12.4262 100.222C12.2814 100.298 12.1552 100.405 12.0565 100.535C11.9578 100.665 11.8891 100.816 11.8552 100.976C11.8213 101.136 11.8231 101.301 11.8605 101.46C11.8978 101.619 11.9698 101.768 12.0713 101.896L17.2038 110.799C17.2591 110.895 17.334 110.979 17.4235 111.044C17.5131 111.109 17.6153 111.154 17.7236 111.177C17.8319 111.2 17.9438 111.2 18.0521 111.177C18.1604 111.154 18.2626 111.109 18.3521 111.043C18.4933 110.941 18.5965 110.794 18.6454 110.626L20.153 105.458C20.1846 105.35 20.2391 105.25 20.3128 105.164C20.3864 105.079 20.4775 105.01 20.58 104.963L25.2612 102.802L21.8562 95.2371Z" fill="#393D7F"/>
<path d="M54.8859 79.5401L55.0027 79.538L56.4178 71.9197L53.9691 59.4041L49.9786 57.3182L45.8079 77.5176L21.1235 92.3374C20.9238 92.4573 20.7497 92.6154 20.611 92.8026C20.4724 92.9898 20.372 93.2025 20.3155 93.4285C20.2591 93.6545 20.2477 93.8894 20.2821 94.1198C20.3164 94.3502 20.3958 94.5716 20.5157 94.7713L25.5016 103.076C25.7438 103.479 26.1362 103.77 26.5927 103.884C27.0492 103.998 27.5322 103.926 27.9356 103.684L58.8457 85.1262L54.8859 79.5401Z" fill="#3E5ACE"/>
<path d="M45.3374 93.2363L58.8457 85.1262L54.8859 79.5401L55.0027 79.538L56.4179 71.9197L53.9692 59.4041L49.9787 57.3182C49.9787 57.3182 45.4441 93.1722 45.3374 93.2363Z" fill="black"/>
<path d="M45.1158 78.025C45.0958 78.025 45.0763 78.0184 45.0604 78.0064C45.0444 77.9943 45.0328 77.9774 45.0274 77.9581C45.0219 77.9389 45.0229 77.9184 45.0302 77.8997C45.0375 77.8811 45.0506 77.8654 45.0677 77.8549L46.6655 76.875C46.6862 76.8623 46.7112 76.8583 46.7348 76.864C46.7585 76.8696 46.7789 76.8845 46.7917 76.9052C46.8044 76.9259 46.8084 76.9508 46.8028 76.9745C46.7972 76.9982 46.7824 77.0186 46.7617 77.0314L45.1639 78.0113C45.1494 78.0203 45.1328 78.025 45.1158 78.025Z" fill="black"/>
<path d="M21.229 100.907C21.229 101.304 21.1113 101.692 20.8908 102.022C20.6703 102.352 20.3569 102.609 19.9903 102.761C19.6236 102.913 19.2202 102.953 18.8309 102.875C18.4417 102.798 18.0841 102.607 17.8035 102.326C17.5229 102.046 17.3318 101.688 17.2544 101.299C17.177 100.91 17.2167 100.506 17.3686 100.14C17.5204 99.7729 17.7776 99.4595 18.1076 99.239C18.4376 99.0186 18.8256 98.9009 19.2224 98.9009C19.4859 98.9009 19.7469 98.9528 19.9903 99.0536C20.2338 99.1545 20.455 99.3023 20.6413 99.4886C20.8276 99.6749 20.9754 99.8961 21.0763 100.14C21.1771 100.383 21.229 100.644 21.229 100.907Z" fill="#FFC840"/>
<path d="M13.2943 99.2764L13.1328 99.3639L18.9557 110.111L19.1172 110.024L13.2943 99.2764Z" fill="white"/>
<path d="M49.1816 113.73L48.8408 124.391C48.8351 124.555 48.8654 124.717 48.9298 124.868C48.9941 125.018 49.0908 125.152 49.2129 125.261C49.335 125.37 49.4796 125.45 49.6364 125.496C49.7932 125.543 49.9582 125.554 50.1198 125.529L60.3963 125.481C60.507 125.48 60.6164 125.456 60.7173 125.411C60.8182 125.365 60.9084 125.299 60.982 125.216C61.0556 125.134 61.1111 125.036 61.1447 124.931C61.1782 124.825 61.1893 124.714 61.177 124.604C61.1577 124.43 61.0813 124.268 60.9599 124.142L57.2173 120.273C57.1388 120.192 57.0787 120.095 57.0409 119.989C57.0031 119.882 56.9886 119.769 56.9982 119.657L57.44 114.52L49.1816 113.73Z" fill="#393D7F"/>
<path d="M50.8772 44.8035C50.8772 44.8035 48.6105 47.3433 48.6114 51.9687C48.6641 54.2186 49.093 56.4439 49.8803 58.5522C50.1429 59.2417 50.2548 59.9794 50.2084 60.7157L46.9362 112.339C46.9214 112.572 46.9526 112.805 47.028 113.025C47.1033 113.246 47.2214 113.449 47.3754 113.624C47.5293 113.799 47.7162 113.942 47.9254 114.044C48.1345 114.147 48.3618 114.207 48.5943 114.222L58.2613 114.835C58.7309 114.864 59.193 114.707 59.546 114.396C59.8991 114.085 60.1142 113.646 60.1439 113.177L64.0508 51.5412L50.8772 44.8035Z" fill="#576CEA"/>
<path d="M56.7157 49.5725C56.6698 49.5694 56.6245 49.5848 56.5897 49.615C56.555 49.6453 56.5337 49.6881 56.5304 49.7341L52.1086 114.445L52.4558 114.467L56.8773 49.7578C56.8804 49.7118 56.8652 49.6665 56.8349 49.6317C56.8046 49.597 56.7617 49.5757 56.7157 49.5725Z" fill="white"/>
<path d="M58.9719 51.3297C58.9751 51.2837 58.9599 51.2383 58.9297 51.2036C58.8994 51.1688 58.8566 51.1474 58.8106 51.1442C58.7877 51.1419 58.7646 51.1444 58.7427 51.1514C58.7208 51.1584 58.7005 51.1698 58.6832 51.1848C58.6658 51.1999 58.6517 51.2184 58.6417 51.2391C58.6317 51.2598 58.6261 51.2824 58.6251 51.3053L54.1953 114.545C54.1957 114.556 54.1971 114.567 54.1996 114.577L54.5344 114.598C54.5379 114.589 54.5405 114.579 54.5421 114.569L58.9719 51.3297Z" fill="white"/>
<path d="M55.314 118.185C55.314 118.581 55.1964 118.969 54.976 119.299C54.7556 119.629 54.4422 119.887 54.0756 120.039C53.709 120.191 53.3055 120.23 52.9163 120.153C52.527 120.076 52.1695 119.885 51.8888 119.604C51.6081 119.324 51.4169 118.966 51.3394 118.577C51.2619 118.188 51.3016 117.784 51.4534 117.417C51.6052 117.051 51.8623 116.737 52.1922 116.517C52.5222 116.296 52.9101 116.178 53.307 116.178C53.5705 116.178 53.8314 116.23 54.0749 116.331C54.3184 116.432 54.5396 116.579 54.726 116.766C54.9123 116.952 55.0602 117.173 55.1611 117.417C55.262 117.66 55.3139 117.921 55.314 118.185Z" fill="#FFC840"/>
<path d="M48.4484 123.313L48.4453 123.496L61.1801 123.709L61.1832 123.526L48.4484 123.313Z" fill="white"/>
<path d="M51.2016 61.2756C51.1867 61.2756 51.172 61.272 51.1588 61.2651C51.1456 61.2581 51.1343 61.2481 51.1258 61.2358C50.0259 59.5272 49.264 57.6235 48.8813 55.6278C48.8774 55.6038 48.8831 55.5792 48.8973 55.5594C48.9115 55.5396 48.933 55.5262 48.957 55.5223C48.981 55.5183 49.0057 55.5241 49.0255 55.5383C49.0452 55.5524 49.0586 55.5739 49.0625 55.5979C49.4404 57.5671 50.1922 59.4456 51.2772 61.1317C51.2867 61.1455 51.2923 61.1616 51.2933 61.1783C51.2943 61.195 51.2907 61.2117 51.2829 61.2265C51.2751 61.2413 51.2634 61.2537 51.2491 61.2624C51.2347 61.271 51.2183 61.2756 51.2016 61.2756Z" fill="black"/>
<path d="M49.8515 45.5825C49.7533 45.4402 49.7026 45.2704 49.7065 45.0976C49.7105 44.9247 49.7689 44.7575 49.8735 44.6198C51.2486 42.8308 56.3753 36.2229 59.4562 33.1031C63.0385 29.4753 68.6615 26.5278 72.8787 30.2916C76.2279 33.2806 74.8934 38.9954 71.8131 42.6712C71.7287 42.7719 71.0436 43.6781 70.3082 44.6541C69.0426 46.3338 68.1148 48.2431 67.5762 50.2761L66.3819 54.7851C66.3541 54.8914 66.3051 54.9909 66.2378 55.0778C66.1706 55.1646 66.0864 55.2369 65.9904 55.2903C65.8945 55.3437 65.7887 55.3772 65.6794 55.3886C65.5702 55.4001 65.4598 55.3893 65.3548 55.3569C62.6331 54.5152 53.7889 51.4123 49.8515 45.5825Z" fill="#39D3AA"/>
<path d="M66.8535 53.0977C66.8468 53.0976 66.8402 53.0969 66.8337 53.0955C58.5846 51.2951 51.0987 43.192 51.0241 43.1103C51.0078 43.0923 50.9992 43.0686 51.0003 43.0443C51.0015 43.02 51.0122 42.9971 51.0301 42.9807C51.048 42.9643 51.0718 42.9557 51.096 42.9567C51.1203 42.9577 51.1432 42.9683 51.1597 42.9862C51.234 43.0675 58.6812 51.1281 66.8729 52.9161C66.895 52.9209 66.9145 52.9337 66.9278 52.9521C66.941 52.9705 66.947 52.9931 66.9446 53.0156C66.9422 53.0381 66.9316 53.0589 66.9147 53.074C66.8979 53.0892 66.8761 53.0976 66.8535 53.0977Z" fill="black"/>
<path d="M76.8263 54.6871C76.1235 54.6866 75.4393 54.4621 74.8728 54.0462C74.3064 53.6303 73.8873 53.0447 73.6765 52.3743L70.1738 41.2361C70.0426 40.8221 69.9944 40.3862 70.0319 39.9535C70.0693 39.5208 70.1918 39.0998 70.3922 38.7145C70.5926 38.3292 70.8671 37.9872 71.1998 37.7081C71.5326 37.429 71.9171 37.2182 72.3314 37.0879C72.7457 36.9576 73.1817 36.9103 73.6143 36.9487C74.0469 36.9871 74.4677 37.1105 74.8526 37.3117C75.2375 37.5129 75.5789 37.7881 75.8573 38.1214C76.1357 38.4548 76.3456 38.8398 76.475 39.2544L79.9778 50.3926C80.133 50.8874 80.1696 51.4118 80.0847 51.9234C79.9997 52.4349 79.7956 52.9193 79.4888 53.3374C79.182 53.7555 78.7811 54.0955 78.3186 54.3299C77.856 54.5644 77.3448 54.6868 76.8263 54.6871Z" fill="#F69C5E"/>
<path d="M73.384 46.0983C74.2291 45.0764 75.046 44.0316 75.8472 42.9751C76.2726 42.4141 76.6947 41.8508 77.1136 41.2849L76.475 39.2544C76.3456 38.8398 76.1357 38.4548 75.8573 38.1214C75.5789 37.7881 75.2375 37.5129 74.8526 37.3117C74.4677 37.1105 74.0469 36.9871 73.6143 36.9487C73.1817 36.9103 72.7457 36.9576 72.3314 37.0879C71.9171 37.2182 71.5326 37.429 71.1998 37.7081C70.8671 37.9872 70.5926 38.3292 70.3922 38.7145C70.1918 39.0998 70.0693 39.5208 70.0319 39.9535C69.9944 40.3862 70.0426 40.8221 70.1738 41.2361L72.1758 47.6024C72.6011 47.1089 72.9907 46.5739 73.384 46.0983Z" fill="black"/>
<path d="M66.4399 35.9599C66.4399 35.9599 67.4829 36.0506 67.9363 37.411C68.3898 38.7714 70.2037 44.9839 70.2037 44.9839C70.2037 44.9839 75.1465 44.5304 78.0486 42.9886C78.0486 42.9886 76.1894 33.6473 73.1123 30.5119L66.4399 35.9599Z" fill="#39D3AA"/>
<path d="M70.2033 45.0757C70.1834 45.0757 70.1641 45.0692 70.1482 45.0573C70.1323 45.0454 70.1208 45.0286 70.1153 45.0095C70.0969 44.9474 68.2966 38.7833 67.8488 37.4401C67.4193 36.1517 66.4413 36.0524 66.4317 36.0515C66.4196 36.0505 66.4079 36.0471 66.3972 36.0415C66.3865 36.036 66.377 36.0283 66.3692 36.0191C66.3615 36.0099 66.3556 35.9992 66.3519 35.9877C66.3483 35.9762 66.347 35.9641 66.348 35.9521C66.3507 35.9281 66.3626 35.906 66.3811 35.8905C66.3996 35.8749 66.4233 35.867 66.4474 35.8684C66.4925 35.8724 67.5558 35.9804 68.0232 37.382C68.4721 38.7284 70.2733 44.8959 70.2915 44.9582C70.2948 44.9698 70.2959 44.9819 70.2946 44.9939C70.2933 45.0058 70.2897 45.0174 70.2839 45.028C70.2781 45.0386 70.2703 45.0479 70.2609 45.0554C70.2515 45.063 70.2407 45.0686 70.2291 45.072C70.2208 45.0744 70.2121 45.0757 70.2033 45.0757Z" fill="black"/>
<path d="M96.3833 53.8978C97.1669 53.5698 97.7943 52.9531 98.1359 52.1753C98.4774 51.3976 98.5069 50.5183 98.2182 49.7194C97.1002 46.7252 94.926 46.0627 93.3464 46.1901L76.6189 48.1307C76.4906 48.1464 76.3633 48.1688 76.2373 48.1978C75.7965 48.3023 75.3819 48.4962 75.019 48.7674C74.6562 49.0387 74.353 49.3816 74.1281 49.7749C73.9032 50.1681 73.7615 50.6034 73.7117 51.0537C73.6619 51.5039 73.7051 51.9597 73.8386 52.3925C74.1073 53.2031 74.6724 53.882 75.4206 54.2933C76.1689 54.7046 77.045 54.8178 77.8733 54.6102L93.9025 50.8024C94.0327 50.7715 94.1694 50.7819 94.2934 50.8323C94.4175 50.8826 94.5227 50.9704 94.5945 51.0834L96.3833 53.8978Z" fill="#F69C5E"/>
<path d="M95.5756 50.1912C95.5657 50.1843 95.5546 50.1794 95.5428 50.1769C95.531 50.1743 95.5188 50.1741 95.5069 50.1763C95.495 50.1785 95.4837 50.1829 95.4735 50.1895C95.4634 50.1961 95.4547 50.2045 95.4478 50.2145C95.441 50.2244 95.4362 50.2356 95.4336 50.2474C95.4311 50.2592 95.431 50.2714 95.4332 50.2833C95.4354 50.2952 95.4399 50.3065 95.4465 50.3166C95.4531 50.3267 95.4616 50.3354 95.4716 50.3422C95.4877 50.3535 97.0455 51.4503 97.4381 53.1876C97.4911 53.1347 97.5399 53.0785 97.5891 53.0225C97.2427 51.8854 96.536 50.8917 95.5756 50.1912Z" fill="black"/>
<path d="M96.2553 49.5116C96.2454 49.5045 96.2342 49.4994 96.2223 49.4967C96.2104 49.494 96.1981 49.4937 96.1861 49.4958C96.1741 49.4978 96.1626 49.5023 96.1523 49.5089C96.1421 49.5155 96.1332 49.524 96.1263 49.5341C96.1194 49.5441 96.1145 49.5554 96.112 49.5674C96.1095 49.5793 96.1095 49.5916 96.1118 49.6036C96.1141 49.6156 96.1188 49.6269 96.1256 49.6371C96.1323 49.6472 96.141 49.6559 96.1512 49.6626C97.0467 50.3265 97.7165 51.2497 98.0697 52.307C98.1106 52.2249 98.1482 52.1414 98.1824 52.0564C97.8007 51.039 97.1311 50.1547 96.2553 49.5116Z" fill="black"/>
<path d="M98.4156 50.6534C98.0175 49.974 97.486 49.3821 96.8529 48.9137C96.843 48.9066 96.8318 48.9016 96.8199 48.8988C96.808 48.8961 96.7957 48.8958 96.7837 48.8979C96.7717 48.9 96.7602 48.9045 96.75 48.9111C96.7397 48.9176 96.7309 48.9262 96.724 48.9362C96.717 48.9463 96.7122 48.9576 96.7097 48.9695C96.7072 48.9815 96.7071 48.9938 96.7094 49.0058C96.7118 49.0177 96.7164 49.0291 96.7232 49.0392C96.73 49.0494 96.7387 49.0581 96.7489 49.0648C97.4474 49.5893 98.0164 50.2669 98.4121 51.0457C98.4213 50.9151 98.4224 50.7841 98.4156 50.6534Z" fill="black"/>
<path d="M94.8605 51.5831C94.8417 51.5832 94.8232 51.5774 94.8078 51.5665C94.7923 51.5557 94.7806 51.5404 94.7741 51.5227C94.4569 50.6498 93.2283 50.4787 93.2161 50.4771C93.2041 50.4755 93.1925 50.4717 93.182 50.4657C93.1715 50.4597 93.1623 50.4517 93.1549 50.4421C93.1475 50.4325 93.1421 50.4216 93.1389 50.4099C93.1358 50.3982 93.135 50.386 93.1365 50.3741C93.1381 50.3621 93.142 50.3505 93.148 50.34C93.1541 50.3295 93.1621 50.3204 93.1717 50.313C93.1813 50.3056 93.1922 50.3002 93.2039 50.2971C93.2156 50.294 93.2278 50.2932 93.2398 50.2948C93.295 50.3021 94.5918 50.4835 94.947 51.4599C94.9553 51.4828 94.9541 51.508 94.9439 51.5301C94.9336 51.5521 94.915 51.5692 94.8921 51.5776C94.882 51.5812 94.8713 51.5831 94.8605 51.5831Z" fill="black"/>
<path d="M77.0733 48.216C77.0499 48.216 77.0275 48.2071 77.0104 48.1911C76.9934 48.1751 76.9831 48.1532 76.9816 48.1299C76.9802 48.1066 76.9876 48.0836 77.0025 48.0656C77.0174 48.0476 77.0386 48.0359 77.0618 48.033L81.1086 47.5172C81.1206 47.5154 81.1328 47.516 81.1446 47.519C81.1563 47.5221 81.1673 47.5275 81.1769 47.5349C81.1865 47.5423 81.1945 47.5516 81.2004 47.5623C81.2063 47.5729 81.21 47.5846 81.2112 47.5967C81.2127 47.6087 81.2119 47.6208 81.2087 47.6325C81.2056 47.6442 81.2001 47.6551 81.1927 47.6646C81.1853 47.6742 81.1761 47.6822 81.1656 47.6882C81.1551 47.6941 81.1435 47.698 81.1315 47.6995L77.0848 48.2153C77.081 48.2158 77.0771 48.216 77.0733 48.216Z" fill="black"/>
<path d="M69.6101 42.8714C69.5859 42.8714 69.5626 42.8619 69.5454 42.8449C69.5282 42.8279 69.5184 42.8048 69.5181 42.7806C69.5178 42.7564 69.5271 42.7331 69.5439 42.7157C69.5607 42.6983 69.5837 42.6882 69.6079 42.6877C72.3363 42.5101 75.012 41.853 77.5123 40.7465C77.5345 40.7368 77.5597 40.7362 77.5824 40.745C77.605 40.7537 77.6233 40.7711 77.6331 40.7933C77.643 40.8155 77.6437 40.8407 77.635 40.8634C77.6263 40.8861 77.609 40.9044 77.5869 40.9144C75.0644 42.0305 72.3648 42.6929 69.6122 42.8714H69.6101Z" fill="black"/>
<path d="M85.4697 118.81L82.1267 127.721C82.0698 127.874 82.0475 128.038 82.0613 128.201C82.0751 128.364 82.1247 128.522 82.2065 128.663C82.2882 128.805 82.4002 128.927 82.5344 129.02C82.6687 129.113 82.8218 129.176 82.983 129.203L93.5303 130.994C93.7314 131.028 93.938 130.983 94.1067 130.869C94.2755 130.754 94.3934 130.579 94.4357 130.379C94.4608 130.261 94.4584 130.138 94.4287 130.021C94.3991 129.904 94.3429 129.795 94.2645 129.703L91.6644 126.647C91.5302 126.489 91.4427 126.297 91.4118 126.092C91.3809 125.888 91.4079 125.678 91.4896 125.488L93.394 121.054L85.4697 118.81Z" fill="black"/>
<path d="M95.1129 129.746C90.608 128.886 82.0366 127.253 81.8403 127.232L81.8475 127.048C81.9558 127.048 92.0548 128.976 95.1474 129.566L95.1129 129.746Z" fill="#FFC840"/>
<path d="M69.251 68.1559L106.271 83.4832C107.314 83.915 108.172 84.7008 108.693 85.7023C109.214 86.7037 109.365 87.8569 109.121 88.9589L109.121 88.959C108.846 90.1931 108.096 91.2691 107.033 91.9535C105.97 92.6378 104.68 92.8751 103.443 92.6138L76.4143 86.9049C73.3919 86.2665 70.7395 84.4705 69.0245 81.9013C67.857 80.1523 67.1772 78.1236 67.0551 76.0243C66.933 73.925 67.3731 71.8311 68.3299 69.9586L69.251 68.1559Z" fill="#3B82FE"/>
<path d="M96.6504 81.5349C98.1297 81.5218 99.608 81.4499 101.083 81.3352L91.1833 77.2366C91.284 78.3435 91.4727 79.4609 92.115 80.3511C93.1519 81.788 95.0936 81.5488 96.6504 81.5349Z" fill="black"/>
<path d="M98.6715 86.2929L84.0635 119.003C83.9599 119.235 83.9116 119.488 83.9224 119.742C83.9332 119.996 84.0029 120.244 84.1259 120.467C84.249 120.689 84.422 120.88 84.6314 121.024C84.8407 121.168 85.0807 121.262 85.3324 121.297L93.5184 122.453C93.8703 122.503 94.2288 122.437 94.54 122.265C94.8512 122.094 95.0983 121.826 95.2441 121.502L109.005 90.9257C109.354 90.1504 109.524 89.3065 109.502 88.4565C109.481 87.6066 109.268 86.7725 108.879 86.0161C108.491 85.2597 107.937 84.6004 107.26 84.0872C106.582 83.5741 105.797 83.2201 104.964 83.0517C103.703 82.7968 102.392 82.9789 101.249 83.568C100.105 84.1571 99.1961 85.1182 98.6715 86.2929Z" fill="#3B82FE"/>
<path d="M96.0054 92.5536C95.9903 92.5537 95.9754 92.55 95.962 92.5429C95.9486 92.5358 95.9372 92.5255 95.9288 92.513C95.9203 92.5004 95.9151 92.4859 95.9137 92.4708C95.9122 92.4558 95.9145 92.4406 95.9203 92.4266L96.4213 91.2141C96.586 90.8196 96.6114 90.3807 96.4931 89.9699C96.3748 89.5591 96.12 89.2008 95.7707 88.9543C95.7508 88.9402 95.7374 88.9188 95.7332 88.8948C95.7291 88.8708 95.7347 88.8461 95.7488 88.8262C95.7629 88.8063 95.7843 88.7928 95.8083 88.7887C95.8324 88.7846 95.857 88.7902 95.8769 88.8043C96.2603 89.0748 96.54 89.468 96.6699 89.9189C96.7998 90.3697 96.7721 90.8515 96.5914 91.2845L96.0904 92.4969C96.0834 92.5136 96.0716 92.528 96.0565 92.538C96.0413 92.5481 96.0236 92.5535 96.0054 92.5536Z" fill="black"/>
<path d="M102.831 88.0761C102.689 87.7563 102.483 87.4692 102.225 87.2327C101.968 86.9961 101.664 86.8153 101.333 86.7014L79.5959 79.1187C78.7127 78.8149 77.9517 78.2329 77.4271 77.4601C76.9024 76.6873 76.6425 75.7652 76.6861 74.8322L76.8363 71.2966L76.4944 71.155L76.3388 74.8176C76.2917 75.8253 76.5725 76.8211 77.1391 77.6557C77.7057 78.4904 78.5276 79.1189 79.4815 79.447L101.218 87.0297C101.504 87.1292 101.766 87.286 101.989 87.4903C102.211 87.6947 102.39 87.9424 102.514 88.2182C102.638 88.494 102.704 88.7922 102.708 89.0945C102.713 89.3968 102.655 89.6968 102.54 89.9761L89.3549 121.865L89.7104 121.915L102.861 90.1092C102.996 89.7865 103.063 89.4394 103.058 89.0895C103.053 88.7397 102.975 88.3947 102.831 88.0761Z" fill="white"/>
<path d="M122.946 84.9567L122.439 83.3578L122.186 82.5584L122.154 82.4585L122.138 82.4085C122.137 82.4008 122.112 82.3376 122.099 82.3049C122.037 82.145 121.967 81.9887 121.89 81.8348C121.735 81.5274 121.552 81.2348 121.344 80.9606C120.923 80.4109 120.402 79.9449 119.809 79.5869C119.512 79.4068 119.199 79.2556 118.873 79.1355C118.715 79.0741 118.536 79.0222 118.405 78.9833L118.204 78.9221L116.603 78.4324L110.198 76.4739L100.075 73.3784L99.1865 62.7746C99.1408 62.2286 98.988 61.697 98.7368 61.2102C98.4856 60.7233 98.141 60.2906 97.7226 59.937C97.3042 59.5833 96.8203 59.3154 96.2984 59.1488C95.7765 58.9821 95.2269 58.9199 94.681 58.9656C94.135 59.0114 93.6034 59.1642 93.1165 59.4154C92.6297 59.6666 92.197 60.0112 91.8433 60.4296C91.4896 60.8479 91.2218 61.3319 91.0551 61.8538C90.8885 62.3757 90.8262 62.9253 90.872 63.4712L91.9628 76.4914C91.9717 76.5973 91.9877 76.7008 92.0041 76.8041C92.059 77.7071 92.4058 78.5679 92.9923 79.2568C93.5788 79.9457 94.3732 80.4253 95.2559 80.6236L108.34 83.557L114.882 85.0235L116.346 85.3518L116.487 85.6586L117.187 87.1825C117.516 87.8978 118.105 88.4608 118.834 88.7568C119.564 89.0529 120.379 89.0597 121.113 88.7759C121.847 88.4921 122.445 87.939 122.786 87.2294C123.127 86.5198 123.184 85.707 122.946 84.9567ZM116.104 84.8509C116.091 84.8214 116.081 84.7907 116.071 84.7606C116.071 84.7606 116.06 84.7287 116.071 84.7537L116.093 84.8013L116.137 84.8966L116.183 84.9964C116.152 84.9504 116.126 84.9017 116.104 84.8509Z" fill="#936767"/>
<path d="M91.615 72.3388C92.4225 71.8247 93.0877 70.986 93.6991 70.3179C94.7109 69.2123 95.7423 68.1397 96.6839 66.971C97.5821 65.8561 98.4267 64.701 99.2499 63.5303L99.1866 62.7745C99.0942 61.6719 98.5676 60.6512 97.7226 59.9368C96.8777 59.2225 95.7835 58.8731 94.681 58.9655C93.5784 59.0579 92.5577 59.5845 91.8433 60.4294C91.129 61.2744 90.7796 62.3685 90.872 63.4711L91.615 72.3388Z" fill="black"/>
<path d="M87.6875 55.3076C87.6875 55.3076 88.9118 55.7157 89.1386 58.0284C89.3653 60.3411 89.7281 68.5035 89.7281 68.5035C89.7281 68.5035 96.258 70.0906 100.022 68.05L98.523 55.461C98.4222 54.5108 98.0817 53.6018 97.5333 52.8192C97.1433 52.2378 96.6051 51.771 95.9743 51.467C95.3436 51.1631 94.6431 51.0331 93.9453 51.0904C90.3629 51.3171 87.6875 55.3076 87.6875 55.3076Z" fill="#FC6363"/>
<path d="M89.7275 65.7353V68.5034C89.7275 68.5034 96.2574 70.0905 100.021 68.05L99.7102 65.4378C95.9093 67.2369 89.7275 65.7353 89.7275 65.7353Z" fill="white"/>
<path d="M89.7276 68.5953C89.704 68.5953 89.6812 68.5862 89.6641 68.5698C89.647 68.5535 89.6369 68.5312 89.6357 68.5076C89.6322 68.426 89.2705 60.3212 89.0466 58.0373C88.8291 55.8208 87.6695 55.3986 87.6576 55.3946C87.6346 55.3868 87.6157 55.3701 87.6049 55.3484C87.5942 55.3266 87.5925 55.3015 87.6002 55.2784C87.608 55.2554 87.6245 55.2364 87.6462 55.2256C87.6679 55.2147 87.693 55.2128 87.7161 55.2204C87.7685 55.2378 88.9996 55.6745 89.2296 58.0194C89.4538 60.3081 89.8159 68.4177 89.8195 68.4993C89.82 68.5114 89.8182 68.5234 89.814 68.5348C89.8099 68.5462 89.8036 68.5566 89.7954 68.5655C89.7872 68.5744 89.7774 68.5816 89.7664 68.5867C89.7555 68.5918 89.7436 68.5946 89.7316 68.5951L89.7276 68.5953Z" fill="black"/>
<path d="M100.021 68.1419C99.9989 68.1419 99.9772 68.1337 99.9604 68.1188C99.9436 68.1039 99.9328 68.0833 99.9302 68.061L99.04 60.5845C99.0371 60.5603 99.0439 60.536 99.0589 60.5168C99.074 60.4977 99.096 60.4853 99.1202 60.4824C99.1443 60.4795 99.1687 60.4863 99.1878 60.5014C99.207 60.5164 99.2193 60.5384 99.2222 60.5626L100.112 68.0391C100.114 68.0511 100.113 68.0632 100.11 68.0749C100.107 68.0865 100.101 68.0974 100.094 68.1069C100.086 68.1164 100.077 68.1243 100.066 68.1302C100.056 68.1361 100.044 68.1398 100.032 68.1412C100.029 68.1417 100.025 68.1419 100.021 68.1419Z" fill="black"/>
<path d="M101.323 73.9273C101.312 73.9273 101.301 73.9254 101.291 73.9218L98.3321 72.8335C98.3093 72.825 98.2907 72.8079 98.2805 72.7858C98.2702 72.7637 98.2692 72.7385 98.2776 72.7156C98.2859 72.6928 98.303 72.6742 98.3251 72.6639C98.3472 72.6536 98.3724 72.6525 98.3953 72.6609L101.354 73.7492C101.374 73.7566 101.391 73.7709 101.402 73.7896C101.413 73.8083 101.417 73.8302 101.413 73.8514C101.409 73.8727 101.398 73.8919 101.381 73.9058C101.365 73.9197 101.344 73.9273 101.323 73.9273Z" fill="black"/>
<path d="M116.676 85.9825C116.66 85.9826 116.644 85.9783 116.63 85.9701C116.616 85.962 116.604 85.9503 116.596 85.9363C116.223 85.2846 115.862 84.6081 115.525 83.9254C115.515 83.9036 115.513 83.8784 115.521 83.8554C115.529 83.8324 115.546 83.8135 115.568 83.8028C115.589 83.792 115.615 83.7904 115.638 83.7982C115.661 83.806 115.68 83.8226 115.69 83.8444C116.025 84.5234 116.384 85.1966 116.756 85.845C116.764 85.8589 116.768 85.8748 116.768 85.8908C116.768 85.9069 116.764 85.9227 116.755 85.9367C116.747 85.9506 116.736 85.9621 116.722 85.9702C116.708 85.9782 116.692 85.9825 116.676 85.9825Z" fill="black"/>
<path d="M120.926 88.8618C120.902 88.8617 120.878 88.852 120.861 88.8348C120.844 88.8176 120.834 88.7943 120.834 88.7699V86.4031C120.835 85.9301 120.736 85.4621 120.545 85.0294L119.448 82.5365C119.443 82.5255 119.441 82.5136 119.44 82.5015C119.44 82.4895 119.442 82.4774 119.446 82.4662C119.451 82.4549 119.457 82.4447 119.466 82.4359C119.474 82.4272 119.484 82.4202 119.495 82.4154C119.517 82.4059 119.543 82.4055 119.565 82.4143C119.588 82.4231 119.606 82.4405 119.616 82.4626L120.713 84.9555C120.915 85.4115 121.019 85.9046 121.018 86.4031V88.7699C121.018 88.7943 121.008 88.8176 120.991 88.8348C120.974 88.852 120.95 88.8617 120.926 88.8618Z" fill="black"/>
<path d="M121.85 88.8617C121.826 88.8616 121.803 88.8519 121.785 88.8347C121.768 88.8175 121.758 88.7942 121.758 88.7698V86.403C121.759 85.93 121.66 85.462 121.469 85.0293L120.31 82.3952C120.305 82.3842 120.302 82.3723 120.302 82.3602C120.302 82.3482 120.304 82.3362 120.308 82.3249C120.313 82.3137 120.319 82.3034 120.327 82.2947C120.336 82.286 120.346 82.279 120.357 82.2741C120.379 82.2646 120.404 82.2643 120.427 82.2731C120.45 82.2819 120.468 82.2992 120.478 82.3214L121.637 84.9554C121.839 85.4113 121.943 85.9045 121.942 86.403V88.7698C121.942 88.7942 121.932 88.8175 121.915 88.8347C121.898 88.8519 121.875 88.8616 121.85 88.8617Z" fill="black"/>
<path d="M122.479 88.9012H122.474C122.449 88.8997 122.427 88.8887 122.41 88.8706C122.394 88.8524 122.386 88.8286 122.387 88.8043L122.516 86.4411C122.542 85.9687 122.469 85.496 122.302 85.0534L121.273 82.3226C121.265 82.2998 121.266 82.2746 121.276 82.2525C121.286 82.2304 121.304 82.2132 121.327 82.2046C121.35 82.1961 121.375 82.1969 121.397 82.2068C121.419 82.2168 121.437 82.2351 121.445 82.2578L122.474 84.9886C122.65 85.4551 122.727 85.9533 122.699 86.4511L122.571 88.8143C122.569 88.8377 122.559 88.8598 122.542 88.8759C122.525 88.8921 122.502 88.9011 122.479 88.9012Z" fill="black"/>
<path d="M120.399 86.8957C120.399 87.3417 120.267 87.7777 120.019 88.1485C119.771 88.5193 119.419 88.8083 119.007 88.979C118.595 89.1497 118.142 89.1943 117.704 89.1074C117.267 89.0204 116.865 88.8056 116.55 88.4903C116.234 88.1749 116.02 87.7731 115.932 87.3357C115.845 86.8983 115.89 86.4449 116.061 86.0329C116.231 85.6209 116.52 85.2687 116.891 85.0209C117.262 84.7732 117.698 84.6409 118.144 84.6409C118.742 84.6409 119.316 84.8785 119.738 85.3013C120.161 85.7242 120.399 86.2977 120.399 86.8957Z" fill="#FFC840"/>
<path d="M58.3677 126.449C58.3677 126.893 58.2361 127.327 57.9895 127.696C57.7428 128.065 57.3923 128.353 56.9821 128.523C56.5719 128.693 56.1206 128.737 55.6852 128.65C55.2498 128.564 54.8498 128.35 54.5359 128.036C54.222 127.722 54.0082 127.322 53.9216 126.887C53.8349 126.451 53.8794 126 54.0493 125.59C54.2192 125.18 54.5069 124.829 54.876 124.583C55.2451 124.336 55.6791 124.204 56.1231 124.204C56.7184 124.204 57.2893 124.441 57.7103 124.862C58.1312 125.283 58.3677 125.854 58.3677 126.449Z" fill="#FFC840"/>
<path d="M43.3982 62.2786H17.3588C17.31 62.2786 17.2633 62.2593 17.2289 62.2248C17.1944 62.1904 17.175 62.1436 17.175 62.0949C17.175 62.0462 17.1944 61.9995 17.2289 61.965C17.2633 61.9305 17.31 61.9112 17.3588 61.9112H43.3982C43.4469 61.9112 43.4937 61.9305 43.5281 61.965C43.5626 61.9995 43.5819 62.0462 43.5819 62.0949C43.5819 62.1436 43.5626 62.1904 43.5281 62.2248C43.4937 62.2593 43.4469 62.2786 43.3982 62.2786Z" fill="white"/>
<path d="M45.1159 56.9695H32.349C32.3003 56.9695 32.2535 56.9502 32.2191 56.9157C32.1846 56.8813 32.1653 56.8345 32.1653 56.7858C32.1653 56.7371 32.1846 56.6904 32.2191 56.6559C32.2535 56.6215 32.3003 56.6021 32.349 56.6021H45.1159C45.1646 56.6021 45.2113 56.6215 45.2458 56.6559C45.2802 56.6904 45.2996 56.7371 45.2996 56.7858C45.2996 56.8345 45.2802 56.8813 45.2458 56.9157C45.2113 56.9502 45.1646 56.9695 45.1159 56.9695Z" fill="white"/>
<path d="M41.5766 67.5878H28.8097C28.761 67.5878 28.7142 67.5684 28.6798 67.534C28.6453 67.4995 28.626 67.4528 28.626 67.4041C28.626 67.3553 28.6453 67.3086 28.6798 67.2741C28.7142 67.2397 28.761 67.2203 28.8097 67.2203H41.5766C41.6253 67.2203 41.672 67.2397 41.7065 67.2741C41.7409 67.3086 41.7603 67.3553 41.7603 67.4041C41.7603 67.4528 41.7409 67.4995 41.7065 67.534C41.672 67.5684 41.6253 67.5878 41.5766 67.5878Z" fill="white"/>
<path d="M137.659 149.623H102.822C102.822 149.623 104.406 143.218 108.986 144.082C110.415 144.409 111.701 145.189 112.652 146.304C112.868 146.534 113.166 146.67 113.482 146.682C113.797 146.694 114.104 146.581 114.337 146.368C114.874 145.848 115.526 145.462 116.24 145.243C116.954 145.023 117.71 144.975 118.446 145.104C119.745 145.321 121.137 146.469 121.853 147.137C122.01 147.277 122.2 147.374 122.405 147.418C122.611 147.462 122.824 147.452 123.025 147.388C125.078 146.761 130.173 145.93 137.659 149.623Z" fill="#C1ECFF"/>
<path d="M56.8852 149.623H25.0681C25.0681 149.623 26.5146 143.773 30.6977 144.563C32.003 144.861 33.1772 145.573 34.0459 146.592C34.2433 146.802 34.5155 146.926 34.8035 146.937C35.0915 146.948 35.3723 146.845 35.585 146.65C36.0749 146.175 36.6704 145.823 37.3226 145.622C37.9748 145.422 38.6653 145.378 39.3375 145.496C40.5242 145.694 41.7951 146.742 42.4491 147.352C42.5922 147.48 42.7661 147.569 42.9537 147.609C43.1414 147.649 43.3363 147.64 43.5193 147.582C45.395 147.009 50.0478 146.25 56.8852 149.623Z" fill="#C1ECFF"/>
<path d="M148.248 149.596H11.8308V149.964H148.248V149.596Z" fill="#393D7F"/>
</g>
<defs>
<clipPath id="clip0">
<rect width="162" height="162" fill="white"/>
</clipPath>
</defs>
</svg>
