<svg width="24" height="24" viewBox="0 0 24 24" fill="none" xmlns="http://www.w3.org/2000/svg">
<path d="M20.3688 2L3.63116 2C2.7303 2 2 2.72807 2 3.62619L2 20.3738C2 21.2719 2.7303 22 3.63116 22L20.3688 22C21.2697 22 22 21.2719 22 20.3738L22 3.62619C22 2.72807 21.2697 2 20.3688 2Z" fill="url(#paint0_linear)"/>
<path d="M17.2195 6.07282C17.4467 6.10657 17.6511 6.22885 17.7879 6.41279C17.9246 6.59673 17.9825 6.82728 17.9489 7.05377C17.9325 7.16601 17.8941 7.27393 17.8358 7.37136C17.7776 7.46878 17.7006 7.55378 17.6093 7.6215C17.5181 7.68922 17.4143 7.73833 17.304 7.76601C17.1936 7.79369 17.0789 7.7994 16.9664 7.78282C15.9108 7.62662 14.4224 9.17043 12.7655 12.3247C10.7087 16.2414 8.80722 18.0947 6.84266 17.9495C6.61371 17.9323 6.40096 17.8252 6.2512 17.6517C6.10144 17.4782 6.02693 17.2525 6.04404 17.0242C6.07938 16.5481 6.49398 16.1909 6.97067 16.2261C8.0554 16.3061 9.56429 14.7009 11.2341 11.5214C13.3028 7.58234 15.2268 5.77853 17.2195 6.07282Z" fill="white" stroke="white" stroke-width="0.778"/>
<defs>
<linearGradient id="paint0_linear" x1="2" y1="4.0608" x2="21.1264" y2="16.4924" gradientUnits="userSpaceOnUse">
<stop stop-color="#2BEAED"/>
<stop offset="1" stop-color="#0FCCCE"/>
</linearGradient>
</defs>
</svg>
