<svg width="150" height="150" viewBox="0 0 150 150" fill="none" xmlns="http://www.w3.org/2000/svg">
<mask id="mask0_323_674" style="mask-type:alpha" maskUnits="userSpaceOnUse" x="33" y="23" width="105" height="104">
<path d="M85.6251 126.519C114.275 126.519 137.5 103.407 137.5 74.8975C137.5 46.3876 114.275 23.2759 85.6251 23.2759C56.9753 23.2759 33.7501 46.3876 33.7501 74.8975C33.7501 103.407 56.9753 126.519 85.6251 126.519Z" fill="white"/>
</mask>
<g mask="url(#mask0_323_674)">
<path d="M85.6251 126.519C114.275 126.519 137.5 103.407 137.5 74.8975C137.5 46.3876 114.275 23.2759 85.6251 23.2759C56.9753 23.2759 33.7501 46.3876 33.7501 74.8975C33.7501 103.407 56.9753 126.519 85.6251 126.519Z" fill="url(#paint0_linear_323_674)"/>
<path d="M137.5 23.2759H85.6251V74.8975H137.5V23.2759Z" fill="url(#paint1_linear_323_674)"/>
<path d="M85.6251 23.2759H33.7501V74.8975H85.6251V23.2759Z" fill="url(#paint2_linear_323_674)"/>
</g>
<g filter="url(#filter0_f_323_674)">
<path fill-rule="evenodd" clip-rule="evenodd" d="M23.75 45.0441H73.75C76.5114 45.0441 78.75 47.2717 78.75 50.0196V99.7754C78.75 102.523 70.2614 110.97 67.5 110.97H17.5C14.7386 110.97 12.5 108.743 12.5 105.995V56.2391C12.5 53.4912 20.9886 45.0441 23.75 45.0441Z" fill="black" fill-opacity="0.1"/>
</g>
<path d="M73.1251 45.0441H23.1251C20.3637 45.0441 18.1251 47.2717 18.1251 50.0196V99.7754C18.1251 102.523 20.3637 104.751 23.1251 104.751H73.1251C75.8865 104.751 78.1251 102.523 78.1251 99.7754V50.0196C78.1251 47.2717 75.8865 45.0441 73.1251 45.0441Z" fill="url(#paint3_linear_323_674)"/>
<path d="M73.1251 45.0441H23.1251C20.3637 45.0441 18.1251 47.2717 18.1251 50.0196V99.7754C18.1251 102.523 20.3637 104.751 23.1251 104.751H73.1251C75.8865 104.751 78.1251 102.523 78.1251 99.7754V50.0196C78.1251 47.2717 75.8865 45.0441 73.1251 45.0441Z" fill="url(#paint4_radial_323_674)"/>
<g filter="url(#filter1_dd_323_674)">
<path d="M42.525 79.3312V89.8327H36.25V59.3488H48.9343C56.6533 59.3488 60.5127 62.587 60.5127 69.0636C60.5127 72.1248 59.4054 74.6013 57.1908 76.4933C54.9763 78.3853 52.0176 79.3312 48.3148 79.3312H42.525ZM42.525 63.9988V74.123H48.0418C51.9303 74.123 53.8745 72.4168 53.8745 69.0043C53.8745 65.6673 51.9303 63.9988 48.0418 63.9988H42.525Z" fill="black"/>
</g>
<path d="M42.525 79.3312V89.8327H36.25V59.3488H48.9343C56.6533 59.3488 60.5127 62.587 60.5127 69.0636C60.5127 72.1248 59.4054 74.6013 57.1908 76.4933C54.9763 78.3853 52.0176 79.3312 48.3148 79.3312H42.525ZM42.525 63.9988V74.123H48.0418C51.9303 74.123 53.8745 72.4168 53.8745 69.0043C53.8745 65.6673 51.9303 63.9988 48.0418 63.9988H42.525Z" fill="url(#paint5_linear_323_674)"/>
<defs>
<filter id="filter0_f_323_674" x="9.5" y="42.0441" width="72.25" height="71.9264" filterUnits="userSpaceOnUse" color-interpolation-filters="sRGB">
<feFlood flood-opacity="0" result="BackgroundImageFix"/>
<feBlend mode="normal" in="SourceGraphic" in2="BackgroundImageFix" result="shape"/>
<feGaussianBlur stdDeviation="1.5" result="effect1_foregroundBlur_323_674"/>
</filter>
<filter id="filter1_dd_323_674" x="30.25" y="54.3488" width="36.2627" height="42.4839" filterUnits="userSpaceOnUse" color-interpolation-filters="sRGB">
<feFlood flood-opacity="0" result="BackgroundImageFix"/>
<feColorMatrix in="SourceAlpha" type="matrix" values="0 0 0 0 0 0 0 0 0 0 0 0 0 0 0 0 0 0 127 0" result="hardAlpha"/>
<feOffset dy="1"/>
<feGaussianBlur stdDeviation="3"/>
<feColorMatrix type="matrix" values="0 0 0 0 0 0 0 0 0 0 0 0 0 0 0 0 0 0 0.1 0"/>
<feBlend mode="normal" in2="BackgroundImageFix" result="effect1_dropShadow_323_674"/>
<feColorMatrix in="SourceAlpha" type="matrix" values="0 0 0 0 0 0 0 0 0 0 0 0 0 0 0 0 0 0 127 0" result="hardAlpha"/>
<feOffset dy="1"/>
<feGaussianBlur stdDeviation="0.5"/>
<feColorMatrix type="matrix" values="0 0 0 0 0 0 0 0 0 0 0 0 0 0 0 0 0 0 0.1 0"/>
<feBlend mode="normal" in2="effect1_dropShadow_323_674" result="effect2_dropShadow_323_674"/>
<feBlend mode="normal" in="SourceGraphic" in2="effect2_dropShadow_323_674" result="shape"/>
</filter>
<linearGradient id="paint0_linear_323_674" x1="130.61" y1="120.027" x2="37.7465" y2="62.6021" gradientUnits="userSpaceOnUse">
<stop stop-color="#FF4619"/>
<stop offset="1" stop-color="#871D08"/>
</linearGradient>
<linearGradient id="paint1_linear_323_674" x1="127.3" y1="74.8975" x2="89.1327" y2="23.0971" gradientUnits="userSpaceOnUse">
<stop stop-color="#FFC896"/>
<stop offset="1" stop-color="#EB875A"/>
</linearGradient>
<linearGradient id="paint2_linear_323_674" x1="86.2336" y1="74.8975" x2="41.5339" y2="27.5897" gradientUnits="userSpaceOnUse">
<stop stop-color="#EE6D43"/>
<stop offset="1" stop-color="#B65737"/>
</linearGradient>
<linearGradient id="paint3_linear_323_674" x1="19.4157" y1="50.8434" x2="85.7555" y2="107.862" gradientUnits="userSpaceOnUse">
<stop stop-color="#75200E"/>
<stop offset="1" stop-color="#BB3212"/>
</linearGradient>
<radialGradient id="paint4_radial_323_674" cx="0" cy="0" r="1" gradientUnits="userSpaceOnUse" gradientTransform="translate(70.0857 95.3233) scale(37.4388 37.2559)">
<stop stop-color="#BB3112"/>
<stop offset="1" stop-color="#BB3112" stop-opacity="0"/>
</radialGradient>
<linearGradient id="paint5_linear_323_674" x1="43.3997" y1="74.5907" x2="60.0185" y2="74.5907" gradientUnits="userSpaceOnUse">
<stop stop-color="#F0F0F0"/>
<stop offset="1" stop-color="white"/>
</linearGradient>
</defs>
</svg>
