<svg width="16" height="16" viewBox="0 0 16 16" fill="none" xmlns="http://www.w3.org/2000/svg">
<path d="M14.3361 13.3761C14.3361 13.4401 14.3041 13.4721 14.2721 13.5361C13.7921 14.2081 11.2001 14.7521 8.06411 14.7521C4.92811 14.7521 2.30411 14.2401 1.85611 13.5361C1.82411 13.5041 1.79211 13.4401 1.79211 13.3761C1.50411 12.5441 2.14411 11.7441 2.14411 11.7441C2.14411 11.7441 3.04011 12.1601 3.42411 12.3201C5.92011 11.7121 10.2081 11.7121 12.7361 12.3201C13.1201 12.1281 14.0161 11.7441 14.0161 11.7441C14.0161 11.7441 14.6241 12.5761 14.3361 13.3761Z" fill="#D8DBEB"/>
<path opacity="0.1" d="M12.672 12.3519C12.448 12.2879 12.224 12.2559 11.968 12.1919C12.128 12.3519 12.288 12.4799 12.416 12.6719C12.576 12.9279 12.672 13.2479 12.64 13.5679C12.608 13.6959 12.576 13.8559 12.512 13.9839C12.448 14.1119 12.384 14.2399 12.32 14.3359C13.344 14.1119 14.048 13.8239 14.272 13.5039C14.304 13.4399 14.336 13.4079 14.336 13.3439C14.624 12.5119 13.984 11.7119 13.984 11.7119C13.984 11.7119 13.088 12.1919 12.672 12.3519V12.3519Z" fill="#D8DBEB"/>
<path opacity="0.15" d="M3.39224 12.3519C3.61624 12.2879 3.84024 12.2559 4.09624 12.1919C3.93624 12.3519 3.77624 12.4799 3.64824 12.6719C3.48824 12.9279 3.39224 13.2479 3.42424 13.5679C3.45624 13.6959 3.48824 13.8559 3.55224 13.9839C3.61624 14.1119 3.68024 14.2399 3.74424 14.3359C2.72024 14.1119 2.01624 13.8239 1.79224 13.5039C1.76024 13.4399 1.72824 13.4079 1.72824 13.3439C1.44024 12.5119 2.08024 11.7119 2.08024 11.7119C2.08024 11.7119 3.00824 12.1919 3.39224 12.3519V12.3519Z" fill="#D8DBEB"/>
<path d="M14.0482 11.968C14.0482 12.736 11.3602 13.344 8.03221 13.344C4.70421 13.344 2.0162 12.736 2.0162 11.968C2.0482 10.144 14.0482 10.144 14.0482 11.968Z" fill="#D8DBEB"/>
<path d="M14.8158 6.20803C14.8158 8.00003 14.4638 9.98403 13.8558 11.808C13.8238 12.544 11.2318 13.12 8.03183 13.12C4.83183 13.12 2.23983 12.544 2.20783 11.808C1.59983 9.98403 1.24783 8.00003 1.24783 6.20803C1.24783 5.69603 1.27983 5.21603 1.31183 4.73603H2.55983C2.81583 6.59203 3.74383 7.96803 4.83183 7.96803C6.11183 7.96803 7.16783 6.01603 7.16783 3.61603V3.32803H8.86383C8.79983 5.15203 9.53583 7.96803 11.1998 7.96803C12.2878 7.96803 13.1838 6.59203 13.4718 4.73603H14.7198C14.7838 5.18403 14.8158 5.69603 14.8158 6.20803Z" fill="#D8DBEB"/>
<path d="M8.06406 3.29609H7.20006V3.58409C7.20006 5.98409 6.14406 7.93609 4.86406 7.93609C3.77606 7.93609 2.88006 6.56009 2.59206 4.70409H1.34406C1.28006 5.18409 1.28006 5.69609 1.28006 6.17609C1.28006 7.96809 1.63206 9.95209 2.24006 11.7761C2.27206 12.5121 4.86406 13.0881 8.06406 13.0881H8.09606V3.29609H8.06406Z" fill="#D8DBEB"/>
<path d="M7.20006 3.84004V4.09604C7.20006 6.49604 6.14406 8.44804 4.86406 8.44804C3.77606 8.44804 2.88006 7.07204 2.59206 5.21604H1.34406C1.31206 5.63204 1.28006 6.04804 1.28006 6.43204V6.17604C1.28006 5.66404 1.31206 5.18404 1.34406 4.70404H2.59206C2.84806 6.56004 3.77606 7.93604 4.86406 7.93604C6.11206 7.93604 7.13606 6.11204 7.20006 3.84004V3.84004Z" fill="#D8DBEB"/>
<path d="M7.19998 3.58409V3.29609H8.89598V3.80809H7.19998V3.58409Z" fill="#D8DBEB"/>
<path d="M14.8162 6.20804V6.46404C14.8162 6.04804 14.7842 5.63204 14.7522 5.24804H13.5042C13.2482 7.10404 12.3202 8.48004 11.2322 8.48004C9.53623 8.48004 8.83223 5.63204 8.89623 3.84004C9.05623 8.80004 12.8322 9.50404 13.5042 4.73604H14.7202C14.7842 5.18404 14.8162 5.69604 14.8162 6.20804Z" fill="#D8DBEB"/>
<path opacity="0.1" d="M14.7202 4.7041H13.4722C13.2482 6.3681 12.4802 7.6161 11.5842 7.8721L10.9762 12.8961C12.6722 12.6721 13.8242 12.2561 13.8562 11.7761C14.4642 9.9521 14.8162 7.9681 14.8162 6.1761C14.8162 5.6961 14.7842 5.1841 14.7202 4.7041V4.7041Z" fill="#D8DBEB"/>
<path opacity="0.15" d="M1.34383 4.7041H2.59183C2.81583 6.3681 3.58383 7.6161 4.47983 7.8721L5.08783 12.8961C3.39183 12.6721 2.23983 12.2561 2.20783 11.7761C1.59983 9.9521 1.24783 7.9681 1.24783 6.1761C1.24783 5.6961 1.27983 5.1841 1.34383 4.7041V4.7041Z" fill="#D8DBEB"/>
<path d="M14.1119 5.9201C14.8895 5.9201 15.5199 5.28972 15.5199 4.5121C15.5199 3.73449 14.8895 3.1041 14.1119 3.1041C13.3343 3.1041 12.7039 3.73449 12.7039 4.5121C12.7039 5.28972 13.3343 5.9201 14.1119 5.9201Z" fill="#D8DBEB"/>
<path opacity="0.2" d="M14.016 5.6322C14.6876 5.6322 15.232 5.08777 15.232 4.4162C15.232 3.74462 14.6876 3.2002 14.016 3.2002C13.3444 3.2002 12.8 3.74462 12.8 4.4162C12.8 5.08777 13.3444 5.6322 14.016 5.6322Z" fill="#D8DBEB"/>
<path opacity="0.2" d="M13.9201 5.37603C14.4856 5.37603 14.9441 4.91757 14.9441 4.35203C14.9441 3.78649 14.4856 3.32803 13.9201 3.32803C13.3545 3.32803 12.8961 3.78649 12.8961 4.35203C12.8961 4.91757 13.3545 5.37603 13.9201 5.37603Z" fill="#D8DBEB"/>
<path opacity="0.2" d="M13.8239 4.95999C14.2303 4.95999 14.5599 4.63047 14.5599 4.22399C14.5599 3.81751 14.2303 3.48799 13.8239 3.48799C13.4174 3.48799 13.0879 3.81751 13.0879 4.22399C13.0879 4.63047 13.4174 4.95999 13.8239 4.95999Z" fill="#D8DBEB"/>
<path d="M1.88807 5.9201C2.66569 5.9201 3.29607 5.28972 3.29607 4.5121C3.29607 3.73449 2.66569 3.1041 1.88807 3.1041C1.11046 3.1041 0.480072 3.73449 0.480072 4.5121C0.480072 5.28972 1.11046 5.9201 1.88807 5.9201Z" fill="#D8DBEB"/>
<path opacity="0.2" d="M1.82382 5.6322C2.4954 5.6322 3.03982 5.08777 3.03982 4.4162C3.03982 3.74462 2.4954 3.2002 1.82382 3.2002C1.15224 3.2002 0.607819 3.74462 0.607819 4.4162C0.607819 5.08777 1.15224 5.6322 1.82382 5.6322Z" fill="#D8DBEB"/>
<path opacity="0.2" d="M1.72789 5.37603C2.29343 5.37603 2.75189 4.91757 2.75189 4.35203C2.75189 3.78649 2.29343 3.32803 1.72789 3.32803C1.16235 3.32803 0.703888 3.78649 0.703888 4.35203C0.703888 4.91757 1.16235 5.37603 1.72789 5.37603Z" fill="#D8DBEB"/>
<path opacity="0.2" d="M1.63209 4.95999C2.03857 4.95999 2.36809 4.63047 2.36809 4.22399C2.36809 3.81751 2.03857 3.48799 1.63209 3.48799C1.22561 3.48799 0.896088 3.81751 0.896088 4.22399C0.896088 4.63047 1.22561 4.95999 1.63209 4.95999Z" fill="#D8DBEB"/>
<path d="M8.03218 4.96005C9.05722 4.96005 9.88818 4.12909 9.88818 3.10405C9.88818 2.07901 9.05722 1.24805 8.03218 1.24805C7.00714 1.24805 6.17618 2.07901 6.17618 3.10405C6.17618 4.12909 7.00714 4.96005 8.03218 4.96005Z" fill="#D8DBEB"/>
<path opacity="0.2" d="M7.93638 4.51208C8.80236 4.51208 9.50438 3.81006 9.50438 2.94408C9.50438 2.07809 8.80236 1.37608 7.93638 1.37608C7.0704 1.37608 6.36838 2.07809 6.36838 2.94408C6.36838 3.81006 7.0704 4.51208 7.93638 4.51208Z" fill="#D8DBEB"/>
<path opacity="0.2" d="M7.80808 4.22413C8.55035 4.22413 9.15208 3.6224 9.15208 2.88013C9.15208 2.13786 8.55035 1.53613 7.80808 1.53613C7.06581 1.53613 6.46408 2.13786 6.46408 2.88013C6.46408 3.6224 7.06581 4.22413 7.80808 4.22413Z" fill="#D8DBEB"/>
<path opacity="0.2" d="M7.68012 3.67996C8.21032 3.67996 8.64012 3.25015 8.64012 2.71996C8.64012 2.18977 8.21032 1.75996 7.68012 1.75996C7.14993 1.75996 6.72012 2.18977 6.72012 2.71996C6.72012 3.25015 7.14993 3.67996 7.68012 3.67996Z" fill="#D8DBEB"/>
<path opacity="0.2" d="M7.80805 14.624C8.55032 14.624 9.15205 14.3518 9.15205 14.016C9.15205 13.6802 8.55032 13.408 7.80805 13.408C7.06578 13.408 6.46405 13.6802 6.46405 14.016C6.46405 14.3518 7.06578 14.624 7.80805 14.624Z" fill="#D8DBEB"/>
<path opacity="0.2" d="M7.80797 14.528C8.3735 14.528 8.83196 14.356 8.83196 14.144C8.83196 13.9319 8.3735 13.76 7.80797 13.76C7.24243 13.76 6.78397 13.9319 6.78397 14.144C6.78397 14.356 7.24243 14.528 7.80797 14.528Z" fill="#D8DBEB"/>
</svg>
